<?xml version="1.0" standalone="no"?>
<!DOCTYPE svg PUBLIC "-//W3C//DTD SVG 1.1//EN" "http://www.w3.org/Graphics/SVG/1.1/DTD/svg11.dtd" >
<!--
2013-9-30: Created.
-->
<svg>
<metadata>
Created by iconfont
</metadata>
<defs>

<font id="yo-font" horiz-adv-x="1024" >
  <font-face
    font-family="yo-font"
    font-weight="500"
    font-stretch="normal"
    units-per-em="1024"
    ascent="896"
    descent="-128"
  />
    <missing-glyph />
    
    <glyph glyph-name="warn" unicode="&#58979;" d="M849.12-32.70399999999995L174.88-32.70399999999995c-45.216 0-81.536 17.728-99.68 48.64-18.144 30.912-15.936 71.296 6.08 110.752L421.472 736.352c22.144 39.744 55.072 62.528 90.304 62.528s68.128-22.752 90.336-62.464l340.544-609.792c22.016-39.456 24.288-79.808 6.112-110.72C930.656-15.008000000000038 894.304-32.70399999999995 849.12-32.70399999999995zM511.808 734.88c-11.2 0-24.032-11.104-34.432-29.696L137.184 95.45600000000002c-10.656-19.136-13.152-36.32-6.784-47.168 6.368-10.816 22.592-17.024 44.48-17.024l674.24 0c21.92 0 38.112 6.176 44.48 17.024 6.336 10.816 3.872 28-6.816 47.136L546.24 705.184C535.872 723.7760000000001 522.976 734.88 511.808 734.88zM512 256c-17.664 0-32 14.304-32 32l0 288c0 17.664 14.336 32 32 32s32-14.336 32-32l0-288C544 270.304 529.664 256 512 256zM512 143.87199999999996m-48 0a1.5 1.5 0 1 1 96 0 1.5 1.5 0 1 1-96 0Z"  horiz-adv-x="1024" />

    
    <glyph glyph-name="info" unicode="&#58943;" d="M512 831C265.146 831 65 630.854 65 384c0-246.854 200.146-447 447-447 246.854 0 447 200.146 447 447C959 630.854 758.854 831 512 831zM512-33.198999999999955C281.952-33.198999999999955 94.8 153.952 94.8 384S281.952 801.2 512 801.2 929.2 614.048 929.2 384 742.048-33.198999999999955 512-33.198999999999955zM497.1 484.575l29.8 0 0-342.7-29.8 0 0 342.7ZM512 573.975m-29.8 0a29.8 29.8 0 1 1 59.6 0 29.8 29.8 0 1 1-59.6 0Z"  horiz-adv-x="1024" />

    
    <glyph glyph-name="calendar1" unicode="&#59059;" d="M1088-80l0 608c0 8.832-7.168 16-16 16s-16-7.168-16-16l0-608c0-8.832-7.168-16-16-16l-992 0c-8.832 0-16 7.168-16 16l0 608c0 8.832-7.168 16-16 16s-16-7.168-16-16l0-608c0-26.464 21.536-48 48-48l992 0c26.464 0 48 21.536 48 48zM144 160c-8.832 0-16-7.168-16-16s7.168-16 16-16l48 0 0-112c0-8.832 7.168-16 16-16s16 7.168 16 16l0 112 192 0 0-112c0-8.832 7.168-16 16-16s16 7.168 16 16l0 112 192 0 0-112c0-8.832 7.168-16 16-16s16 7.168 16 16l0 112 192 0 0-112c0-8.832 7.168-16 16-16s16 7.168 16 16l0 112 48 0c8.832 0 16 7.168 16 16s-7.168 16-16 16l-48 0 0 160 48 0c8.832 0 16 7.168 16 16s-7.168 16-16 16l-48 0 0 144c0 8.832-7.168 16-16 16s-16-7.168-16-16l0-144-192 0 0 144c0 8.832-7.168 16-16 16s-16-7.168-16-16l0-144-192 0 0 144c0 8.832-7.168 16-16 16s-16-7.168-16-16l0-144-192 0 0 144c0 8.832-7.168 16-16 16s-16-7.168-16-16l0-144-48 0c-8.832 0-16-7.168-16-16s7.168-16 16-16l48 0 0-160-48 0zM864 320l0-160-192 0 0 160 192 0zM640 320l0-160-192 0 0 160 192 0zM224 320l192 0 0-160-192 0 0 160zM912 800l136 0c2.784 0 8 0 8-16l0-144-1024 0 0 144c0 8.832 7.168 16 16 16l128 0c8.832 0 16 7.168 16 16s-7.168 16-16 16l-128 0c-26.464 0-48-21.536-48-48l0-160c0-8.832 7.168-16 16-16l1056 0c8.832 0 16 7.168 16 16l0 160c0 35.392-20.672 48-40 48l-136 0c-8.832 0-16-7.168-16-16s7.168-16 16-16zM720 800c8.832 0 16 7.168 16 16s-7.168 16-16 16l-352 0c-8.832 0-16-7.168-16-16s7.168-16 16-16l352 0zM288 752l0 128c0 8.832-7.168 16-16 16s-16-7.168-16-16l0-128c0-8.832 7.168-16 16-16s16 7.168 16 16zM816 736c8.832 0 16 7.168 16 16l0 128c0 8.832-7.168 16-16 16s-16-7.168-16-16l0-128c0-8.832 7.168-16 16-16z"  horiz-adv-x="1088" />

    
    <glyph glyph-name="code" unicode="&#58923;" d="M256 128c-6.5536 0-13.1072 2.5088-18.1248 7.4752l-204.8 204.8c-9.984 9.984-9.984 26.2144 0 36.1984l204.8 204.8c9.984 9.984 26.2144 9.984 36.1984 0s9.984-26.2144 0-36.1984l-186.6752-186.6752 186.6752-186.6752c9.984-9.984 9.984-26.2144 0-36.1984-5.0176-5.0176-11.5712-7.4752-18.1248-7.4752zM768 128c-6.5536 0-13.1072 2.5088-18.1248 7.4752-9.984 9.984-9.984 26.2144 0 36.1984l186.6752 186.6752-186.6752 186.6752c-9.984 9.984-9.984 26.2144 0 36.1984s26.2144 9.984 36.1984 0l204.8-204.8c9.984-9.984 9.984-26.2144 0-36.1984l-204.8-204.8c-5.0176-5.0176-11.5712-7.4752-18.1248-7.4752zM384 128c-4.6592 0-9.3184 1.28-13.568 3.8912-11.9808 7.4752-15.616 23.296-8.1408 35.2768l256 409.6c7.4752 11.9808 23.296 15.616 35.2768 8.1408s15.616-23.296 8.1408-35.2768l-256-409.6c-4.864-7.7824-13.2096-12.032-21.7088-12.032z"  horiz-adv-x="1024" />

    
    <glyph glyph-name="remove" unicode="&#59081;" d="M482.333842 578.515159c0 17.637706 14.435781 31.840172 31.807427 31.840172l0 0c17.3389 0 31.775704-14.450107 31.775704-31.840172L545.916972 95.648686c0-17.637706-14.435781-31.809473-31.775704-31.809473l0 0c-17.619286 0-31.807427 14.418384-31.807427 31.809473L482.333842 578.515159zM927.372777 700.400137l0 5.507434c-1.390673 16.338107-14.989389 29.086455-31.682583 29.086455l0 0L724.730521 734.994026l0 40.164768c0 31.098275-27.882024 55.573713-63.612807 55.573713l-294.231231 0c-35.700083 0-63.611783-24.475438-63.611783-55.573713l0-39.916105L127.181099 735.242689c-17.618263 0-31.806403-14.202467-31.806403-31.840172s14.187117-31.840172 31.806403-31.840172l67.01223 0 0-671.403476c0-34.284851 28.622898-62.195527 63.582107-62.195527l512.947582 0c34.958186 0 63.582107 27.910677 63.582107 62.195527l0 671.155836 61.385069 0C912.383388 671.312658 925.982104 684.06203 927.372777 700.400137L927.372777 700.400137zM332.390831 578.515159c0 17.637706 14.187117 31.840172 31.806403 31.840172l0 0c17.618263 0 31.774681-14.450107 31.774681-31.840172L395.971915 95.648686c0-17.637706-14.404058-31.809473-31.774681-31.809473l0 0c-17.619286 0-31.806403 14.418384-31.806403 31.809473L332.390831 578.515159zM632.030236 578.515159c0 17.637706 14.434757 31.840172 31.806403 31.840172l0 0c17.588587 0 31.775704-14.450107 31.775704-31.840172L695.612343 95.648686c0-17.637706-14.433734-31.809473-31.775704-31.809473l0 0c-17.371646 0-31.806403 14.418384-31.806403 31.809473L632.030236 578.515159zM366.88546 766.834198l294.231231 0 0-31.840172-294.231231 0L366.88546 766.834198zM736.969263 1.39502200000004c0 0-411.4397-1.485841-446.39891-1.485841-34.988886 0-33.010835 35.987632-33.010835 35.987632L257.559519 640.710686c0 36.729529 31.064506 30.601972 31.064506 30.601972l444.420859 0c0 0 37.432541 2.227738 37.432541-30.601972 0-32.800034 0.494257-577.12116 0.494257-607.970772C770.970658 2.1072430000000395 736.969263 1.39502200000004 736.969263 1.39502200000004L736.969263 1.39502200000004z"  horiz-adv-x="1024" />

    
    <glyph glyph-name="user1" unicode="&#58887;" d="M515.478588-112.09788200000003c-273.995294 0-496.941176 222.930824-496.941176 496.926118 0 274.025412 222.945882 496.941176 496.941176 496.941176 274.010353 0 496.926118-222.915765 496.926118-496.941176C1012.404706 110.81788200000005 789.504-112.09788200000003 515.478588-112.09788200000003zM515.478588 851.651765c-257.415529 0-466.823529-209.408-466.823529-466.823529 0-257.385412 209.408-466.808471 466.823529-466.808471 257.400471 0 466.808471 209.423059 466.808471 466.808471C982.287059 642.228706 772.879059 851.651765 515.478588 851.651765zM778.526118-6.912000000000035c-13.613176 145.031529-125.876706 254.418824-261.104941 254.418824-135.183059 0-247.416471-109.387294-261.029647-254.418824l-29.997176 2.831059c15.088941 160.587294 140.212706 281.705412 291.026824 281.705412 150.874353 0 276.013176-121.118118 291.102118-281.705412L778.526118-6.912000000000035zM513.596235 327.60470599999996c-90.172235 0-163.523765 73.336471-163.523765 163.478588 0 90.172235 73.351529 163.553882 163.523765 163.553882 90.157176 0 163.508706-73.381647 163.508706-163.553882C677.12 400.941176 603.768471 327.60470599999996 513.596235 327.60470599999996zM513.596235 624.534588c-73.562353 0-133.406118-59.858824-133.406118-133.436235 0-73.532235 59.858824-133.360941 133.406118-133.360941 73.547294 0 133.391059 59.843765 133.391059 133.360941C647.002353 564.675765 587.143529 624.534588 513.596235 624.534588z"  horiz-adv-x="1024" />

    
    <glyph glyph-name="music" unicode="&#58926;" d="M184.290795 37.171853000000056c-3.473101 0-6.931876 1.346671-9.537214 4.041036-14.603603 15.083533-22.636556 34.960233-22.623253 55.952336 0 7.30743 5.947456 13.242606 13.268188 13.242606 0 0 0 0 0.013303 0 7.320733 0 13.255908-5.936199 13.255908-13.269211-0.013303-14.072507 5.377474-27.367301 15.160281-37.474496 5.091972-5.260817 4.963035-13.682627-0.311085-18.761296C190.938192 38.41517099999999 187.621657 37.171853000000056 184.290795 37.171853000000056zM715.035718 143.320429c-3.473101 0-6.931876 1.346671-9.53619 4.043083-14.603603 15.081487-22.63758 34.960233-22.624277 55.94415 0 7.320733 5.947456 13.254885 13.269211 13.254885 0 0 0 0 0.01228 0 7.321756 0 13.256932-5.946432 13.256932-13.281491-0.014326-14.06432 5.376451-27.359115 15.159258-37.46631 5.092995-5.260817 4.963035-13.682627-0.311085-18.763342C721.682092 144.562722 718.365556 143.320429 715.035718 143.320429zM228.800521 15.972019000000046c-2.202155 0-4.768607 0.415462-7.761778 1.425466-6.957459 2.306532-10.728342 9.797134-8.42181 16.768919 2.164293 6.529717 8.901741 10.235109 15.510252 8.758478 1.373277 0.234337 2.850931 0.337691 4.431939 0.337691 7.334036 0 13.268188-5.936199 13.268188-13.269211 0-6.997368-5.403057-12.725836-12.258185-13.242606C232.208131 16.284127000000012 230.627123 15.972019000000046 228.800521 15.972019000000046zM770.02717 43.44369700000004c-87.800695 0-159.223375 71.421656-159.223375 159.216211 0 87.800695 71.422679 159.224398 159.223375 159.224398 75.464739 0 159.495574-19.384489 163.033144-20.202111 11.06501-2.589988 19.266809-11.933797 20.382213-23.232121 0.583285-5.858428 13.359262-144.18589-57.726749-222.657102C864.242971 61.06605300000001 821.948703 43.44369700000004 770.02717 43.44369700000004zM770.02717 308.807461c-58.529021 0-106.147552-47.617507-106.147552-106.147552 0-58.536184 47.618531-106.142435 106.147552-106.142435 36.774555 0 64.983014 11.376095 86.259596 34.80469 41.917692 46.155203 45.830815 126.20026 45.220924 162.739455C873.170295 299.59565799999996 818.708915 308.807461 770.02717 308.807461zM927.035086 291.92495499999995c-14.603603 0-26.471908 10.495028-26.5374 25.085328L898.282229 794.044934c-0.064468 14.668071 11.751648 28.623921 26.408463 28.623921 0.051165 0 0.090051 0 0.128937 0 14.603603 0 26.472931-14.409175 26.5374-29.025057l2.216481-475.063763c0.063445-14.668071-11.752672-26.654057-26.408463-26.654057C927.112857 291.92495499999995 927.073972 291.92495499999995 927.035086 291.92495499999995zM226.015082-62.70590100000004c-87.800695 0-159.223375 71.423703-159.223375 159.224398s71.422679 159.216211 159.223375 159.216211c75.464739 0 159.495574-19.384489 163.033144-20.200064 11.06501-2.592035 19.267832-11.933797 20.382213-23.234167 0.583285-5.856381 13.359262-144.183843-57.726749-222.657102C320.22986-45.08456899999999 277.935592-62.70590100000004 226.015082-62.70590100000004zM226.015082 202.65990899999997c-58.530045 0-106.148575-47.625694-106.148575-106.142435 0-58.542324 47.619554-106.149599 106.148575-106.149599 36.773532 0 64.98199 11.378142 86.258573 34.80469 41.917692 46.155203 45.830815 126.208447 45.221948 162.747641C329.157183 193.43992000000003 274.695804 202.65990899999997 226.015082 202.65990899999997zM383.021975 185.76921600000003c-14.603603 0-26.472931 10.495028-26.5374 25.119097l-2.215458 486.155379c-0.064468 14.654768 11.765975 27.496238 26.420743 27.496238 0.038886 0 0.077771 0 0.116657 0 14.603603 0 26.472931-13.294794 26.5374-27.910677l2.215458-484.769822c0.064468-14.655791-11.765975-26.090215-26.420743-26.090215C383.099746 185.76921600000003 383.060861 185.76921600000003 383.021975 185.76921600000003zM380.779911 673.720498c-12.491499 0-23.608697 8.849552-26.045189 21.561062-2.746554 14.395872 6.699586 28.287253 21.095457 31.046087L919.844314 830.248484c14.485923 2.682086 28.29851-6.711865 31.04711-21.095457 2.746554-14.395872-6.699586-28.28623-21.095457-31.046087L385.781832 674.187125C384.09747 673.87604 382.426411 673.720498 380.779911 673.720498zM392.792503 569.8528719999999c-12.491499 0-23.608697 8.837272-26.045189 21.561062-2.747577 14.395872 6.698562 28.28623 21.095457 31.046087l532.001543 101.639888c14.370289 2.629897 28.29851-6.698562 31.04711-21.095457 2.746554-14.395872-6.699586-28.28623-21.095457-31.046087L397.7934 570.3184759999999C396.122341 570.007391 394.437979 569.8528719999999 392.792503 569.8528719999999z"  horiz-adv-x="1024" />

    
    <glyph glyph-name="voice1" unicode="&#59397;" d="M593.024 661.504l-46.165333-46.229333c0.106667-0.085333 0.149333-0.149333 0.277333-0.234667 127.552-127.658667 127.552-334.677333 0-462.336l46.122667-46.250667c153.045333 153.194667 153.045333 401.621333 0 554.816C593.173333 661.333333 593.130667 661.44 593.024 661.504zM500.885333 568.810667c-0.042667 0.085333-0.128 0.149333-0.234667 0.213333l-46.165333-46.229333c0.042667-0.085333 0.128-0.149333 0.234667-0.256 76.48-76.565333 76.48-200.789333 0-277.397333l46.144-46.229333C603.008 300.99199999999996 603.008 466.666667 500.885333 568.810667zM408.32 476.565333l-92.394667-92.458667 92.629333-92.714667c51.008 51.114667 51.008 133.888 0 184.938667C408.469333 476.416 408.362667 476.48 408.32 476.565333zM512 896C229.696 896 0 666.304 0 384c0-282.282667 229.696-512 512-512 282.282667 0 512 229.717333 512 512C1024 666.304 794.282667 896 512 896zM512-85.29066699999998C253.226667-85.29066699999998 42.688 125.22666700000002 42.688 384S253.226667 853.312 512 853.312 981.290667 642.773333 981.290667 384 770.773333-85.29066699999998 512-85.29066699999998z"  horiz-adv-x="1024" />

    
    <glyph glyph-name="check" unicode="&#60366;" d="M726.016 342.01599999999996l0 84.010667-427.989333 0 0-84.010667 427.989333 0zM809.984 768q34.005333 0 59.989333-25.984t25.984-59.989333l0-596.010667q0-34.005333-25.984-59.989333t-59.989333-25.984l-596.010667 0q-34.005333 0-59.989333 25.984t-25.984 59.989333l0 596.010667q0 34.005333 25.984 59.989333t59.989333 25.984l596.010667 0z"  horiz-adv-x="1024" />

    
    <glyph glyph-name="y" unicode="&#58975;" d="M643.33913 882.643478L643.33913 795.826087 741.286957 784.695652 752.417391 757.982609 498.643478 412.93913 373.982609 764.6608699999999 387.33913 786.921739 476.382609 795.826087 476.382609 882.643478 6.678261 882.643478 6.678261 798.052174 113.530435 784.695652 291.617391 259.33912999999995 244.869565 12.243477999999982 222.608696-16.695651999999995 113.530435-25.600000000000023 113.530435-114.64347799999996 614.4-114.64347799999996 614.4-27.82608700000003 507.547826-14.469564999999989 491.965217 3.3391299999999546 547.617391 288.27826100000004 919.373913 780.243478 1017.321739 800.278261 1017.321739 882.643478Z"  horiz-adv-x="1024" />

    
    <glyph glyph-name="search" unicode="&#58889;" d="M467.921455-33.62909100000002c-253.998545 0-460.637091 206.638545-460.637091 460.613818 0 254.021818 206.638545 460.660364 460.637091 460.660364s460.637091-206.638545 460.637091-460.660364C928.558545 173.009455 721.943273-33.62909100000002 467.921455-33.62909100000002zM467.921455 841.099636c-228.328727 0-414.091636-185.762909-414.091636-414.114909 0-228.328727 185.762909-414.068364 414.091636-414.068364 228.352 0 414.091636 185.739636 414.091636 414.068364C882.013091 655.336727 696.273455 841.099636 467.921455 841.099636zM994.629818-119.64509099999998c-5.701818 0-11.426909 2.094545-15.941818 6.306909l-220.066909 206.592c-9.355636 8.797091-9.844364 23.552-1.047273 32.907636 8.820364 9.355636 23.552 9.797818 32.907636 1.047273l220.066909-206.592c9.355636-8.797091 9.844364-23.552 1.047273-32.907636C1007.034182-117.17818199999999 1000.843636-119.64509099999998 994.629818-119.64509099999998z"  horiz-adv-x="1024" />

    
    <glyph glyph-name="notice" unicode="&#58940;" d="M620.313-17.69100000000003L220.932 212.36 102.745 212.36c-19.437 0-35.248 15.826-35.248 35.263L67.497 520.3340000000001c0 19.451 15.812 35.269 35.248 35.269l118.186 0 399.382 230.087L620.313-17.69100000000003zM102.745 522.606c-1.24 0-2.257-1.023-2.257-2.271l0-272.712c0-1.214 1.03-2.257 2.257-2.257l127.016 0 357.547-205.961L587.308 728.602 229.761 522.606 102.745 522.606zM625.313-26.341999999999985L219.595 207.36l-116.85 0c-22.193 0-40.248 18.062-40.248 40.263L62.497 520.3340000000001c0 22.205 18.055 40.269 40.248 40.269l116.848 0 405.719 233.738L625.312-26.341999999999985zM102.745 550.604c-16.679 0-30.248-13.579-30.248-30.269l0-272.711c0-16.687 13.569-30.263 30.248-30.263l119.523 0 1.159-0.667 391.885-225.734L615.312 777.04 222.268 550.604 102.745 550.604zM592.308 30.754999999999995L228.424 240.36599999999999 102.745 240.36599999999999c-4.001 0-7.257 3.255-7.257 7.257L95.488 520.335c0 4.009 3.255 7.271 7.257 7.271l125.678 0 363.884 209.646L592.307 30.754999999999995zM105.488 250.36599999999999l125.609 0 1.159-0.667 350.051-201.644L582.307 719.95 231.098 517.606l-125.61 0L105.488 250.36599999999999zM208.857 539.1089999999999l32.992 0 0-310.245-32.992 0L208.857 539.1089999999999zM246.849 223.86400000000003l-42.992 0L203.857 544.1089999999999l42.992 0L246.849 223.86400000000003zM213.857 233.86400000000003l22.992 0L236.849 534.1089999999999l-22.992 0L213.857 233.86400000000003zM735.24 263.84400000000005l-14.373 29.704c37.843 18.28 61.342 55.602 61.342 97.431 0 41.834-23.499 79.171-61.313 97.437l14.33 29.712c48.578-23.442 79.989-73.353 79.989-127.148C815.215 336.37 784.564 287.653 735.24 263.84400000000005zM732.915 257.169l-18.728 38.705 4.505 2.176c36.095 17.436 58.517 53.044 58.517 92.929 0 39.897-22.411 75.508-58.488 92.934l-4.5 2.174 18.674 38.717 4.504-2.174c50.309-24.277 82.816-75.953 82.816-131.651 0-56.543-31.728-106.983-82.801-131.638L732.915 257.169zM727.501 291.317l10.026-20.72c44.967 23.697 72.688 69.375 72.688 120.381 0 50.219-28.374 96.93-72.698 120.388l-9.993-20.718c36.944-19.823 59.686-57.568 59.686-99.67C787.209 348.89 764.461 311.148 727.501 291.317zM791.067 133.769l-13.696 30.028c88.776 40.482 146.141 129.653 146.141 227.168 0 95.421-55.616 183.773-141.657 225.102l14.274 29.741c97.438-46.772 160.375-146.805 160.375-254.842C956.505 280.558 891.579 179.60900000000004 791.067 133.769zM788.593 127.14499999999998l-17.846 39.127 4.55 2.074c87 39.673 143.215 127.056 143.215 222.619 0 93.499-54.491 180.088-138.822 220.595l-4.506 2.164 18.602 38.755 4.508-2.164c99.146-47.593 163.211-149.394 163.211-259.35 0.001-112.358-66.085-215.1-168.361-261.745L788.593 127.14499999999998zM783.975 161.36699999999996l9.548-20.934c96.14 45.962 157.982 143.747 157.981 250.531 0 104.462-59.913 201.303-153.051 248.13l-9.949-20.73c85.216-43.043 140.008-131.748 140.008-227.399C928.512 293.16499999999996 871.944 203.59500000000003 783.975 161.36699999999996z"  horiz-adv-x="1024" />

    
    <glyph glyph-name="return" unicode="&#59117;" d="M412.081 549.7h443.415l-215.328 212.429c-18.973 18.973-18.973 46.064 0 65.038s44.325 19.884 63.381 0.83l291.385-284.591c18.973-18.973 18.973-44.159 0-63.132l-291.385-284.923c-18.973-18.973-44.325-18.973-63.381 0.083-18.973 18.973-18.973 43.91 0 62.883l215.328 208.534h-443.415c-177.3 0-314.335-138.359-314.335-309.364v-44.325c0-25.354-16.074-44.325-41.425-44.325s-41.425 18.973-41.425 44.325v44.325c0 221.709 169.181 392.213 397.185 392.213z"  horiz-adv-x="1024" />

    
    <glyph glyph-name="radio1-off" unicode="&#59082;" d="M510.54537 833.634604c-247.564375 0-448.16002-200.594621-448.16002-448.16002s200.595644-448.161043 448.16002-448.161043S958.70539 137.91123200000004 958.70539 385.475608 758.109746 833.634604 510.54537 833.634604L510.54537 833.634604zM510.54537-25.410483999999997c-226.449475 0-410.885068 184.219675-410.885068 410.886091 0 226.449475 184.218652 410.885068 410.885068 410.885068 226.449475 0 410.885068-184.218652 410.885068-410.885068C921.430438 159.02510900000004 736.994845-25.410483999999997 510.54537-25.410483999999997L510.54537-25.410483999999997zM510.54537-25.410483999999997"  horiz-adv-x="1024" />

    
    <glyph glyph-name="category1" unicode="&#59003;" d="M349.534791 832.63381L158.087505 832.63381c-52.782134 0-95.723132-42.940998-95.723132-95.723132L62.364373 545.463392c0-52.782134 42.940998-95.723132 95.723132-95.723132L349.534791 449.74026c52.782134 0 95.723132 42.940998 95.723132 95.723132L445.257923 736.9096549999999C445.257923 789.692812 402.316925 832.63381 349.534791 832.63381zM381.442502 545.463392c0-17.593703-14.314007-31.907711-31.907711-31.907711L158.087505 513.555681c-17.593703 0-31.907711 14.314007-31.907711 31.907711L126.179794 736.9096549999999c0 17.593703 14.314007 31.907711 31.907711 31.907711L349.534791 768.817366c17.593703 0 31.907711-14.314007 31.907711-31.907711L381.442502 545.463392zM349.534791 385.923816L158.087505 385.923816c-52.782134 0-95.723132-42.940998-95.723132-95.723132l0-191.446263c0-52.782134 42.940998-95.723132 95.723132-95.723132L349.534791 3.031289000000015c52.782134 0 95.723132 42.940998 95.723132 95.723132L445.257923 290.200684C445.257923 342.98281799999995 402.316925 385.923816 349.534791 385.923816zM381.442502 98.75442099999998c0-17.593703-14.314007-31.908734-31.907711-31.908734L158.087505 66.845687c-17.593703 0-31.907711 14.314007-31.907711 31.908734L126.179794 290.200684c0 17.593703 14.314007 31.908734 31.907711 31.908734L349.534791 322.109418c17.593703 0 31.907711-14.314007 31.907711-31.908734L381.442502 98.75442099999998zM604.796476 448.895009l191.447287 0c52.782134 0 95.723132 42.940998 95.723132 95.723132L891.966894 736.065428c0 52.782134-42.940998 95.723132-95.723132 95.723132L604.796476 831.788559c-52.782134 0-95.723132-42.940998-95.723132-95.723132l0-191.446263C509.073344 491.836007 552.014342 448.895009 604.796476 448.895009zM572.888765 736.065428c0 17.593703 14.314007 31.907711 31.908734 31.907711l191.447287 0c17.593703 0 31.908734-14.314007 31.908734-31.907711l0-191.446263c0-17.593703-14.314007-31.907711-31.908734-31.907711L604.796476 512.711454c-17.593703 0-31.908734 14.314007-31.908734 31.907711L572.887742 736.065428zM700.520631 290.200684c-52.782134 0-95.723132-42.940998-95.723132-95.723132 0-17.622356 14.285355-31.907711 31.907711-31.907711s31.907711 14.285355 31.907711 31.907711c0 17.593703 14.314007 31.908734 31.908734 31.908734 17.622356 0 31.907711 14.285355 31.907711 31.907711S718.142987 290.200684 700.520631 290.200684zM927.746796 12.376121000000012l-71.232344 71.232344c22.314215 31.304983 35.453467 69.581752 35.453467 110.869087 0 105.564267-85.881996 191.446263-191.446263 191.446263s-191.447287-85.881996-191.447287-191.446263 85.883019-191.446263 191.447287-191.446263c41.287335 0 79.56308 13.138228 110.869087 35.452443l71.232344-71.232344c12.409634-12.409634 32.715099-12.409634 45.124733 0l0 0C940.155407-20.338977999999997 940.155407-0.033512999999970816 927.746796 12.376121000000012zM572.888765 194.47755199999995c0 70.375837 57.256028 127.631866 127.632889 127.631866s127.631866-57.255005 127.631866-127.631866-57.255005-127.631866-127.631866-127.631866S572.888765 124.10069199999998 572.888765 194.47755199999995z"  horiz-adv-x="1024" />

    
    <glyph glyph-name="copy" unicode="&#59204;" d="M746.932 197.892M925.731 607.302c-1.261 1.18-3.607 3.272-6.902 6.343-5.486 5.112-11.615 10.758-18.236 16.891-18.921 17.526-38.003 35.028-56.046 51.397-2.038 1.848-2.038 1.835-4.077 3.682-24.075 21.795-44.156 39.556-58.996 52.076-8.682 7.325-15.517 12.807-20.539 16.426-3.333 2.402-6.043 4.13-8.715 5.396-3.365 1.595-6.48 2.566-10.905 2.483C729.478 761.773 720 752.23 720 740.266l0-42.475 0-42.475 0-84.95L720 549l21.205 0L890 549l0-595L358.689-46C323.429-46 295-17.132 295 18.078L295 719l361.205 0c11.736 0 21.25 9.771 21.25 21.5s-9.514 21.5-21.25 21.5l-382.5 0L252 762l0-21.734L252 83l-52.421 0C166.646 83 140 109.072 140 141.322L140 824l566.286 0C739.29 824 766 797.846 766 765.596L766 762l40 0 0 3.596C806 819.404 761.271 863 706.286 863L119.958 863 100 863l0-19.506 0-702.172C100 87.537 144.642 44 199.579 44L252 44l0-25.922C252-40.612 299.979-88 358.689-88l552.515 0L932-88l0 21.237L932 570.365 932 592l0.433 0C932.432 597 930.196 603.122 925.731 607.302zM762 592l0 63.315L762 697.79l0 0.273c14-11.479 30.3-26.369 49.711-43.942 2.022-1.832 2.136-1.832 4.157-3.665 17.923-16.259 36.957-33.492 55.779-50.926 2.878-2.666 5.713-5.531 8.391-7.531L762 591.999zM816.936 460 407.295 460c-10.996 0-19.91-8.727-19.91-19.5 0-10.77 8.914-19.5 19.91-19.5l409.641 0c11 0 19.914 8.73 19.914 19.5C836.85 451.273 827.936 460 816.936 460zM816.936 343 407.295 343c-10.996 0-19.91-8.727-19.91-19.5 0-10.774 8.914-19.5 19.91-19.5l409.641 0c11 0 19.914 8.726 19.914 19.5C836.85 334.273 827.936 343 816.936 343zM816.936 207 407.295 207c-10.996 0-19.91-8.729-19.91-19.503 0-10.769 8.914-19.497 19.91-19.497l409.641 0c11 0 19.914 8.729 19.914 19.497C836.85 198.271 827.936 207 816.936 207z"  horiz-adv-x="1024" />

    
    <glyph glyph-name="service" unicode="&#59069;" d="M516.075317 125.868965c4.367471 0 8.807596 0.272199 13.279445 0.803295 42.890856 5.13802 79.310324 35.126009 92.749404 76.43381 1.017166 3.090385-0.448208 6.401804-3.405563 7.756661-2.923586 1.36509-6.465249 0.186242-8.118911-2.585895-0.157589-0.264013-17.196661-27.788903-83.535555-36.751019-9.933233-1.325182-19.59222-2.025123-28.754904-2.025123-46.475498 0.025583-67.189262 17.547655-67.38062 17.706267-2.338255 2.080382-5.906523 2.136663-8.306176 0.107447-2.421142-2.028193-2.975774-5.544273-1.326205-8.240685C441.510064 146.26755100000003 477.812875 125.868965 516.075317 125.868965L516.075317 125.868965zM516.075317 125.868965M872.777345 537.005766c-0.585331 0-1.11745-0.10847-1.675152-0.10847C832.23293 705.17693 683.710268 830.709995 505.63657 830.709995c-182.968172 0-334.899466-132.464941-368.57545-307.709197-32.742728-5.891174-57.662281-34.670637-57.662281-69.474304l0-139.293463c0-39.041178 31.30703-70.698179 69.962421-70.698179 21.805632 0 41.052998 10.29753 53.855582 26.110681 30.93557-81.818447 93.915973-147.798161 173.615153-182.601828 0.192382 0.409322 1.701758 3.351328 3.51608 5.690606 1.25662 1.612731 2.661619 2.948145 3.869121 2.948145 1.24741 0 2.394537-0.453325 3.37691-1.151219-18.449187 13.732769-85.075631 84.336804-99.509365 182.850491-6.332219 43.3626 26.146497 85.925998 63.967894 92.967368 60.725036 11.307533 121.134895 24.189935 181.859931 35.281551 38.600133 7.042393 64.98199 28.217668 81.115436 63.47466 3.777023 8.240685 9.235338 24.905226 11.740392 48.937572 0.667196 3.574409 3.593851 6.316869 7.349385 6.316869 2.50403 0 4.632507-1.278109 6.0416-3.120061l1.677199 1.040702c23.936155-34.748409 71.399143-111.688755 78.213339-192.815447 7.830339-92.753497 3.463891-156.278299-67.534116-221.277686-0.083911-0.079818-0.192382-0.184195-0.291642-0.261966-0.98749-1.065262-1.570775-2.451842-1.570775-3.979638 0-1.998517 1.063215-3.707438 2.604314-4.747117 0.583285-0.23536 1.172709-0.557702 1.759063-0.801249 0.479931-0.106424 0.933255-0.261966 1.413186-0.261966s0.907673 0.155543 1.329275 0.261966c1.013073 0.532119 1.968841 1.151219 2.954285 1.683339 71.801303 39.548738 126.879736 105.610316 152.330384 185.060833 10.304693-15.307637 26.431999-26.322505 45.173852-30.163997C828.162218 118.26989300000002 706.238354 32.71433200000001 555.185057 19.722436000000016c-9.052167 22.458501-31.334659 38.405705-57.504692 38.405705-34.180474 0-61.893652-27.071565-61.893652-60.435441 0-33.364899 27.710109-60.402695 61.893652-60.402695 27.557636 0 50.633191 17.704221 58.648748 42.027186 174.84926 14.2127 315.00844 118.143771 344.272951 279.630698 25.846668 10.807137 43.998073 36.165688 43.998073 65.767889L944.600137 465.658811C944.599114 505.054053 912.440693 537.005766 872.777345 537.005766L872.777345 537.005766zM808.275285 496.518656c-45.604664 123.534548-163.779134 211.779358-302.794257 211.779358-138.437979 0-256.183683-87.49882-302.208926-210.233142-2.290159 2.802836-4.977361 5.200442-7.612375 7.627724 26.056446 149.563364 154.771993 263.278265 309.976844 263.278265 154.458861 0 282.780435-112.598474 309.692365-261.121136C812.666292 504.277364 810.216497 500.54639 808.275285 496.518656L808.275285 496.518656zM808.275285 496.518656M376.841206 87.04370400000005c0 0 0 0-0.008186 0C376.806413 86.97309600000006 376.806413 86.96491000000003 376.841206 87.04370400000005L376.841206 87.04370400000005zM376.841206 87.04370400000005"  horiz-adv-x="1024" />

    
    <glyph glyph-name="check-off" unicode="&#58957;" d="M810.666664 682.666666L810.666664 85.33333600000003 213.333334 85.33333600000003 213.333334 682.666666 810.666664 682.666666 810.666664 682.666666ZM810.666664 768L213.333334 768C166.4 768 128 729.6 128 682.666666L128 85.33333600000003C128 38.39999999999998 166.4 0 213.333334 0L810.666664 0C857.6 0 896 38.39999999999998 896 85.33333600000003L896 682.666666C896 729.6 857.6 768 810.666664 768L810.666664 768 810.666664 768Z"  horiz-adv-x="1024" />

    
    <glyph glyph-name="home" unicode="&#58891;" d="M607.601-29.363000000000056h-290.209c-85.506 0-155.468 69.962-155.468 155.468v229.314h-86.801c-10.365 0-20.731 6.479-24.615 16.842s-1.294 22.026 6.479 28.502l456.037 404.214c10.365 9.068 24.615 9.068 34.981 0l456.037-404.214c7.773-7.773 10.365-18.139 6.479-28.502s-12.955-16.842-24.615-16.842h-86.801v-229.314c0-54.414-27.204-102.352-72.553-132.146-11.662-7.773-28.502-3.888-36.274 7.773-7.773 11.662-3.888 28.502 7.773 36.274 29.798 19.435 47.936 51.826 47.936 88.098v255.227c0 14.253 11.662 25.908 25.908 25.908h45.342l-388.67 343.325-388.67-343.325h45.342c14.253 0 25.908-11.662 25.908-25.908v-255.227c0-57.005 46.64-103.645 103.645-103.645h290.209c14.253 0 25.908-11.662 25.908-25.908s-9.068-25.908-23.323-25.908zM607.601-29.363000000000056c-14.253 0-25.908 11.662-25.908 25.908s11.662 25.908 25.908 25.908c22.026 0 38.866 16.842 38.866 38.866v187.856c0 22.026-16.842 38.866-38.866 38.866h-151.582c-22.026 0-38.866-16.842-38.866-38.866v-120.49c0-14.253-11.662-25.908-25.908-25.908s-25.908 11.662-25.908 25.908v120.49c0 50.528 40.161 90.691 90.691 90.691h151.582c50.528 0 90.691-40.161 90.691-90.691v-187.856c0-49.23-40.161-90.691-90.691-90.691z"  horiz-adv-x="1040" />

    
    <glyph glyph-name="add" unicode="&#58921;" d="M668.705895 397.482004L548.192485 397.482004 548.192485 518.000448c0 18.156907-14.714414 32.873335-32.866287 32.873335-18.15892 0-32.875349-14.716428-32.875349-32.873335l0-120.517437L361.93744 397.483011c-18.149859 0-32.866287-14.714414-32.866287-32.866287s14.716428-32.866287 32.866287-32.866287l120.51341 0 0-120.522472c0-18.151872 14.716428-32.866287 32.875349-32.866287 18.151872 0 32.866287 14.714414 32.866287 32.866287l0 120.522472 120.51341 0c18.160934 0 32.875349 14.714414 32.875349 32.866287S686.866829 397.482004 668.705895 397.482004zM504.3654 879.553767c-278.343477 0-503.986313-225.639815-503.986313-503.979265 0-278.346497 225.642836-503.986313 503.986313-503.986313s503.984299 225.639815 503.984299 503.986313C1008.348692 653.913952 782.708877 879.553767 504.3654 879.553767zM504.3654-62.679236999999944c-242.034698 0-438.242664 196.216021-438.242664 438.253739S262.329695 813.81918 504.3654 813.81918c242.04376 0 438.251726-196.207966 438.251726-438.244678S746.409159-62.679236999999944 504.3654-62.679236999999944z"  horiz-adv-x="1024" />

    
    <glyph glyph-name="male" unicode="&#58977;" d="M954.418 760.601c0.093 9.733-3.424 19.304-9.797 26.662-6.823 7.866-16.619 12.837-26.993 13.695-0.143 0.016-0.289 0.029-0.432 0.044L684.744 817.837c-22.091 1.596-41.315-15.019-42.918-37.12-1.602-22.105 15.019-41.32 37.124-42.922l144.701-10.482L651.691 556.01c-61.707 55.677-143.442 89.573-233.098 89.573-192.249 0-348.093-155.845-348.093-348.09s155.845-348.091 348.093-348.091c192.243 0 348.087 155.846 348.087 348.091 0 73.632-22.859 141.916-61.868 198.156l161.967 161.355-9.13-130.178c-1.553-22.105 15.116-41.282 37.222-42.834 0.955-0.063 1.905-0.099 2.851-0.099 20.881 0 38.499 16.169 39.983 37.32l16.624 236.958C954.384 758.979 954.408 759.794 954.418 760.601 954.423 760.896 954.418 760.4639999999999 954.418 760.601L954.418 760.601zM665.416 193.26099999999997c-13.489-31.883-32.813-60.534-57.436-85.16-24.623-24.623-53.272-43.946-85.159-57.436-32.969-13.94-68.036-21.011-104.233-21.011-36.194 0-71.258 7.07-104.228 21.011-31.888 13.489-60.537 32.813-85.161 57.436-24.627 24.626-43.95 53.277-57.435 85.16-13.945 32.969-21.013 68.042-21.013 104.232 0 36.192 7.068 71.259 21.013 104.229 13.485 31.887 32.808 60.537 57.435 85.164 24.624 24.624 53.273 43.947 85.161 57.431 32.97 13.945 68.034 21.014 104.228 21.014 36.197 0 71.264-7.068 104.233-21.014 31.887-13.484 60.536-32.808 85.159-57.431 24.623-24.627 43.946-53.277 57.436-85.164 13.945-32.971 21.014-68.037 21.014-104.229C686.43 261.303 679.361 226.22900000000004 665.416 193.26099999999997L665.416 193.26099999999997zM665.416 193.26099999999997"  horiz-adv-x="1024" />

    
    <glyph glyph-name="delete" unicode="&#58912;" d="M875.593995 709.877999l-484.791311 0c-13.570063 0-26.584472-5.390777-36.178991-14.986319L79.908958 420.178991c-9.595542-9.595542-14.986319-22.60995-14.986319-36.178991s5.390777-26.584472 14.986319-36.178991l274.713712-274.711665c9.595542-9.595542 22.608927-14.986319 36.178991-14.986319l484.791311 0c46.033429 0 83.48439 37.449937 83.48439 83.483366L959.077362 626.393609C959.078385 672.427038 921.627425 709.877999 875.593995 709.877999zM907.913075 141.60434399999997c0-17.84953-14.471596-32.318056-32.31908-32.318056l-484.791311 0L116.088972 383.99897699999997 390.802684 658.712689l484.791311 0c17.848507 0 32.31908-14.46955 32.31908-32.31908L907.913075 141.60434399999997zM753.945401 535.785985L632.515794 414.357402 511.085164 535.785985c0 0-16.061814 8.224312-30.356378-6.072299-14.294564-14.294564-6.072299-30.356378-6.072299-30.356378l121.429607-121.428583L486.800062 268.642692c0 0-8.222265-16.061814 6.072299-30.356378 14.296611-14.296611 30.357402-6.072299 30.357402-6.072299l109.286032 109.285009 109.286032-109.285009c0 0 16.061814-8.224312 30.357402 6.072299 14.294564 14.294564 6.070252 30.356378 6.070252 30.356378L668.944472 377.92770099999996 790.375102 499.357308c0 0 8.220219 16.061814-6.074346 30.356378C770.007215 544.010297 753.945401 535.785985 753.945401 535.785985z"  horiz-adv-x="1024" />

    
    <glyph glyph-name="image" unicode="&#59206;" d="M365.728 566.848q0-45.728-32-77.728t-77.728-32-77.728 32-32 77.728 32 77.728 77.728 32 77.728-32 32-77.728zM950.848 347.424l0-256-804.576 0 0 109.728 182.848 182.848 91.424-91.424 292.576 292.576zM1005.728 749.7280000000001l-914.272 0q-7.424 0-12.864-5.44t-5.44-12.864l0-694.848q0-7.424 5.44-12.864t12.864-5.44l914.272 0q7.424 0 12.864 5.44t5.44 12.864l0 694.848q0 7.424-5.44 12.864t-12.864 5.44zM1097.152 731.424l0-694.848q0-37.728-26.848-64.576t-64.576-26.848l-914.272 0q-37.728 0-64.576 26.848t-26.848 64.576l0 694.848q0 37.728 26.848 64.576t64.576 26.848l914.272 0q37.728 0 64.576-26.848t26.848-64.576z"  horiz-adv-x="1098" />

    
    <glyph glyph-name="table" unicode="&#59427;" d="M324.576 109.72799999999995l0 109.728q0 8-5.152 13.152t-13.152 5.152l-182.848 0q-8 0-13.152-5.152t-5.152-13.152l0-109.728q0-8 5.152-13.152t13.152-5.152l182.848 0q8 0 13.152 5.152t5.152 13.152zM324.576 329.15200000000004l0 109.728q0 8-5.152 13.152t-13.152 5.152l-182.848 0q-8 0-13.152-5.152t-5.152-13.152l0-109.728q0-8 5.152-13.152t13.152-5.152l182.848 0q8 0 13.152 5.152t5.152 13.152zM617.152 109.72799999999995l0 109.728q0 8-5.152 13.152t-13.152 5.152l-182.848 0q-8 0-13.152-5.152t-5.152-13.152l0-109.728q0-8 5.152-13.152t13.152-5.152l182.848 0q8 0 13.152 5.152t5.152 13.152zM324.576 548.576l0 109.728q0 8-5.152 13.152t-13.152 5.152l-182.848 0q-8 0-13.152-5.152t-5.152-13.152l0-109.728q0-8 5.152-13.152t13.152-5.152l182.848 0q8 0 13.152 5.152t5.152 13.152zM617.152 329.15200000000004l0 109.728q0 8-5.152 13.152t-13.152 5.152l-182.848 0q-8 0-13.152-5.152t-5.152-13.152l0-109.728q0-8 5.152-13.152t13.152-5.152l182.848 0q8 0 13.152 5.152t5.152 13.152zM909.728 109.72799999999995l0 109.728q0 8-5.152 13.152t-13.152 5.152l-182.848 0q-8 0-13.152-5.152t-5.152-13.152l0-109.728q0-8 5.152-13.152t13.152-5.152l182.848 0q8 0 13.152 5.152t5.152 13.152zM617.152 548.576l0 109.728q0 8-5.152 13.152t-13.152 5.152l-182.848 0q-8 0-13.152-5.152t-5.152-13.152l0-109.728q0-8 5.152-13.152t13.152-5.152l182.848 0q8 0 13.152 5.152t5.152 13.152zM909.728 329.15200000000004l0 109.728q0 8-5.152 13.152t-13.152 5.152l-182.848 0q-8 0-13.152-5.152t-5.152-13.152l0-109.728q0-8 5.152-13.152t13.152-5.152l182.848 0q8 0 13.152 5.152t5.152 13.152zM909.728 548.576l0 109.728q0 8-5.152 13.152t-13.152 5.152l-182.848 0q-8 0-13.152-5.152t-5.152-13.152l0-109.728q0-8 5.152-13.152t13.152-5.152l182.848 0q8 0 13.152 5.152t5.152 13.152zM982.848 731.424l0-621.728q0-37.728-26.848-64.576t-64.576-26.848l-768 0q-37.728 0-64.576 26.848t-26.848 64.576l0 621.728q0 37.728 26.848 64.576t64.576 26.848l768 0q37.728 0 64.576-26.848t26.848-64.576z"  horiz-adv-x="1024" />

    
    <glyph glyph-name="wechat" unicode="&#59496;" d="M331.424 632.576q0 23.424-14.272 37.728t-37.728 14.272q-24.576 0-43.424-14.56t-18.848-37.44q0-22.272 18.848-36.864t43.424-14.56q23.424 0 37.728 14.016t14.272 37.44zM756 342.84799999999996q0 16-14.56 28.576t-37.44 12.576q-15.424 0-28.288-12.864t-12.864-28.288q0-16 12.864-28.864t28.288-12.864q22.848 0 37.44 12.576t14.56 29.152zM621.152 632.576q0 23.424-14.016 37.728t-37.44 14.272q-24.576 0-43.424-14.56t-18.848-37.44q0-22.272 18.848-36.864t43.424-14.56q23.424 0 37.44 14.016t14.016 37.44zM984 342.84799999999996q0 16-14.848 28.576t-37.152 12.576q-15.424 0-28.288-12.864t-12.864-28.288q0-16 12.864-28.864t28.288-12.864q22.272 0 37.152 12.576t14.848 29.152zM832 569.7280000000001q-17.728 2.272-40 2.272-96.576 0-177.728-44t-127.712-119.136-46.56-164.288q0-44.576 13.152-86.848-20-1.728-38.848-1.728-14.848 0-28.576 0.864t-31.424 3.712-25.44 4-31.136 6.016-28.576 6.016l-144.576-72.576 41.152 124.576q-165.728 116-165.728 280 0 96.576 55.712 177.728t150.848 127.712 207.712 46.56q100.576 0 190.016-37.728t149.728-104.288 78.016-148.864zM1170.272 249.15200000000004q0-66.848-39.136-127.712t-106.016-110.56l31.424-103.424-113.728 62.272q-85.728-21.152-124.576-21.152-96.576 0-177.728 40.288t-127.712 109.44-46.56 150.848 46.56 150.848 127.712 109.44 177.728 40.288q92 0 173.152-40.288t130.016-109.728 48.864-150.56z"  horiz-adv-x="1184" />

    
    <glyph glyph-name="radio2-on" unicode="&#58890;" d="M880.628662 549.890214c-19.302625 45.636387-46.933939 86.6198-82.126462 121.812323-35.192523 35.1915-76.17389 62.822814-121.810277 82.124416-47.25321 19.986193-97.442286 30.119995-149.171438 30.119995-51.730175 0-101.919251-10.133801-149.171438-30.119995-45.636387-19.302625-86.618776-46.932915-121.8113-82.124416-35.192523-35.192523-62.822814-76.174913-82.125439-121.812323-19.986193-47.254234-30.121018-97.444333-30.121018-149.176554 0-51.731198 10.133801-101.921297 30.121018-149.173484 19.302625-45.636387 46.933939-86.6198 82.125439-121.812323s76.174913-62.823837 121.8113-82.126462c47.25321-19.986193 97.441263-30.121018 149.171438-30.121018 51.730175 0 101.919251 10.133801 149.171438 30.121018 45.635363 19.302625 86.618776 46.933939 121.810277 82.126462s62.823837 76.175937 82.126462 121.812323c19.986193 47.25321 30.121018 97.443309 30.121018 149.173484C910.74968 452.445882 900.615878 502.635981 880.628662 549.890214zM784.031627 144.19944899999996c-68.517513-68.518536-159.614278-106.252952-256.511141-106.252952-96.895841 0-187.993628 37.734416-256.511141 106.252952S164.757414 303.81679599999995 164.757414 400.71366c0 96.898911 37.734416 187.998745 106.251929 256.516258 68.517513 68.51649 159.614278 106.250906 256.511141 106.250906 96.895841 0 187.993628-37.734416 256.511141-106.250906 68.517513-68.517513 106.251929-159.617347 106.251929-256.516258C890.283556 303.81679599999995 852.54914 212.717985 784.031627 144.19944899999996zM527.520485 631.976768c-127.71987 0-231.261061-103.538121-231.261061-231.263108 0-127.721917 103.542214-231.263108 231.261061-231.263108s231.260038 103.541191 231.260038 231.263108C758.780523 528.438647 655.240355 631.976768 527.520485 631.976768z"  horiz-adv-x="1024" />

    
    <glyph glyph-name="radio2-off" unicode="&#58898;" d="M527.520485 17.48037199999999c-51.730175 0-101.919251 10.133801-149.171438 30.121018-45.635363 19.302625-86.618776 46.933939-121.8113 82.126462s-62.822814 76.175937-82.125439 121.812323c-19.986193 47.25321-30.121018 97.443309-30.121018 149.173484 0 51.732222 10.133801 101.922321 30.121018 149.176554 19.302625 45.636387 46.933939 86.6198 82.125439 121.812323 35.192523 35.1915 76.174913 62.822814 121.8113 82.124416 47.25321 19.986193 97.441263 30.119995 149.171438 30.119995 51.730175 0 101.919251-10.133801 149.171438-30.119995 45.636387-19.302625 86.618776-46.932915 121.810277-82.124416 35.192523-35.192523 62.823837-76.174913 82.126462-121.812323 19.986193-47.254234 30.121018-97.444333 30.121018-149.176554 0-51.731198-10.133801-101.921297-30.121018-149.173484-19.302625-45.636387-46.933939-86.6198-82.126462-121.812323s-76.174913-62.823837-121.810277-82.126462C629.439736 27.614174000000048 579.25066 17.48037199999999 527.520485 17.48037199999999zM527.520485 763.480824c-96.896864 0-187.993628-37.734416-256.511141-106.250906-68.517513-68.517513-106.251929-159.617347-106.251929-256.516258 0-96.896864 37.734416-187.995675 106.251929-256.514211s159.615301-106.252952 256.511141-106.252952c96.895841 0 187.993628 37.734416 256.511141 106.252952s106.251929 159.616324 106.251929 256.514211c0 96.898911-37.734416 187.998745-106.251929 256.516258C715.514113 725.746408 624.416326 763.480824 527.520485 763.480824z"  horiz-adv-x="1024" />

    
    <glyph glyph-name="eye" unicode="&#58893;" d="M512 656C178.704 656 12.304 412.128 5.376 401.744c-7.168-10.752-7.168-24.752 0-35.504C12.304 355.87199999999996 178.704 112 512 112s499.696 243.872 506.624 254.256c7.168 10.752 7.168 24.752 0 35.504C1011.696 412.128 845.296 656 512 656zM512 176C263.888 176 115.744 330.84799999999996 72.192 384.064 115.6 437.392 262.976 592 512 592c248.112 0 396.256-154.848 439.808-208.064C908.4 330.60799999999995 761.024 176 512 176zM512 528c-79.408 0-144-64.608-144-144s64.592-144 144-144 144 64.608 144 144S591.408 528 512 528zM512 304c-44.112 0-80 35.888-80 80s35.888 80 80 80 80-35.888 80-80S556.112 304 512 304z"  horiz-adv-x="1024" />

    
    <glyph glyph-name="radio11-on" unicode="&#58963;" d="M512.572028 831.978894c-247.112074 0-447.435519-200.324468-447.435519-447.435519 0-247.112074 200.323445-447.435519 447.435519-447.435519 247.111051 0 447.435519 200.323445 447.435519 447.435519C960.00857 631.6544260000001 759.683079 831.978894 512.572028 831.978894zM801.432948 506.707716L454.691783 159.989063c-8.739035-8.739035-20.186761-13.108552-31.635511-13.108552-11.447726 0-22.896476 4.369517-31.635511 13.108552L212.469066 338.919269c-17.47807 17.45658-17.47807 45.791929 0 63.269999 17.47807 17.47807 45.791929 17.47807 63.269999 0l147.317207-147.295718 315.105654 315.084165c17.47807 17.47807 45.791929 17.47807 63.269999 0C818.909995 552.499645 818.909995 524.185786 801.432948 506.707716z"  horiz-adv-x="1024" />

    
    <glyph glyph-name="edit" unicode="&#58936;" d="M800-64L224-64c-52.928 0-96 43.072-96 96L128 672c0 52.928 43.072 96 96 96l448 0c17.696 0 32-14.336 32-32s-14.304-32-32-32L224 704C206.368 704 192 689.6320000000001 192 672l0-640c0-17.664 14.368-32 32-32l576 0c17.664 0 32 14.336 32 32L832 544c0 17.664 14.304 32 32 32s32-14.336 32-32l0-512C896-20.927999999999997 852.928-64 800-64zM612 448c-8.192 0-16.384 3.136-22.624 9.376-12.512 12.512-12.512 32.736 0 45.248l318.016 318.016c12.512 12.512 32.736 12.512 45.248 0s12.512-32.736 0-45.248l-318.016-318.016C628.384 451.104 620.192 448 612 448zM480 448L288 448c-17.664 0-32 14.336-32 32s14.336 32 32 32l192 0c17.664 0 32-14.336 32-32S497.664 448 480 448zM672 256L288 256c-17.664 0-32 14.304-32 32s14.336 32 32 32l384 0c17.696 0 32-14.304 32-32S689.696 256 672 256z"  horiz-adv-x="1024" />

    
    <glyph glyph-name="email" unicode="&#58892;" d="M921.159262 113.56268399999999L100.165816 113.56268399999999c-20.860097 0-37.20025 17.045211-37.20025 38.804794L62.965565 614.862995c0 21.872147 16.340153 39.004339 37.20025 39.004339l820.992423 0c21.077038 0 38.223556-17.497513 38.223556-39.004339l0-462.496539C959.381795 130.96912299999997 942.235276 113.56268399999999 921.159262 113.56268399999999zM100.165816 628.285702c-6.622838 0-11.617595-5.770424-11.617595-13.421684l0-462.496539c0-7.537673 4.994758-13.222139 11.617595-13.222139l820.992423 0c6.970762 0 12.640901 5.931083 12.640901 13.222139L933.79914 614.862995c0 7.275707-5.788843 13.421684-12.640901 13.421684L100.165816 628.284679zM517.677814 363.970828L92.344686 607.0121899999999 105.072569 629.285472 517.741259 393.479909 934.673044 629.3131020000001 947.302689 606.98456Z"  horiz-adv-x="1024" />

    
    <glyph glyph-name="time" unicode="&#58934;" d="M512.071215 896c-4.654545 0-9.309091 0-9.309091 0C218.834851 891.345455-4.583331 653.963636 0.071215 374.69090900000003 4.72576 95.418182 232.798487-128 512.071215-128c4.654545 0 9.309091 0 9.309091 0 283.927273 4.654545 507.345455 242.036364 502.690909 521.309091C1019.416669 672.581818 791.343942 896 512.071215 896zM847.198487 62.836364c-83.781818-88.436364-200.145455-139.636364-325.818182-144.290909L512.071215-81.45454500000005c-251.345455 0-460.8 204.8-465.454545 456.145455C41.962124 630.6909089999999 246.762124 844.8 502.762124 849.454545c4.654545 0 9.309091 0 9.309091 0 251.345455 0 460.8-204.8 465.454545-456.145455C982.180305 272.29090900000006 935.634851 151.27272700000003 847.198487 62.836364zM782.034851 379.345455l-232.727273 0 0 279.272727c0 13.963636-9.309091 23.272727-23.272727 23.272727s-23.272727-9.309091-23.272727-23.272727l0-302.545455c0-13.963636 9.309091-23.272727 23.272727-23.272727l256 0c13.963636 0 23.272727 9.309091 23.272727 23.272727S795.998487 379.345455 782.034851 379.345455z"  horiz-adv-x="1025" />

    
    <glyph glyph-name="zan" unicode="&#58905;" d="M968.028 322.001c24 27.33 36 64.33 36 111.007 0 13.332-1.5 25.832-4.51 37.502-3.01 11.667-7.18 22.165-12.51 31.485-3.33 5.335-7.5 10.337-12.51 15.01-5.015 4.67-10.18 8.5-15.49 11.487-5.31 2.985-11.145 5.322-17.5 7.007-6.36 1.685-12.86 2.518-19.49 2.495l-134.01 0c72.66 132.667 90.66 231.662 54.01 296.982-11.325 20.672-26.825 36.01-46.49 46.015C775.858 890.998 756.688 896 738.023 896c-3.325 0-6.495-0.5-9.505-1.505-3.01-1.002-5.67-2.505-8-4.51-2.325-2.005-4.16-4.342-5.5-7.007-1.35-2.667-2.35-5.665-3.01-8.992-1.345-13.332-4.68-27.337-10.015-42.015-5.335-14.677-12.175-29.515-20.515-44.51-8.34-14.997-18-29.995-28.99-44.99-10.985-14.997-23.315-29.995-36.99-44.992-13.67-14.997-28.51-29.832-44.51-44.51-79.997-71.997-170.33-124.997-270.999-159.002-5.995 12.67-15.327 23.167-27.997 31.487-12.672 8.317-26.335 12.49-40.992 12.51L76.99 537.9639999999999c-21.332 0-39.497-7.497-54.495-22.495S0 482.306 0 460.974l0-460.976c0-21.335 7.497-39.495 22.495-54.495 14.997-14.995 33.162-22.49 54.495-22.49l154.01 0c10.005 0 19.84 2.16 29.505 6.49 9.662 4.33 17.992 10.17 24.99 17.505 6.997 7.34 12.5 15.67 16.512 24.995 31.337-4.015 59.005-9.175 83.005-15.49 23.997-6.315 41.16-11.82 51.485-16.51 10.325-4.695 23.83-11.36 40.512-20 20.01-11.33 36.51-19.5 49.5-24.51 12.99-5.015 35.33-10.18 67.01-15.49 31.68-5.31 69.51-7.98 113.5-8 18.665 0 36.33 2.335 52.99 7.01 16.66 4.67 31.655 11.335 44.99 20 26 17.34 42 40.34 48 68.99 20.67 8.66 38 27.325 51.995 55.995 14.675 29.995 22.015 59.995 22.015 90.015l0 8c0 2-0.33 4.01-0.99 6.015 4.67 3.325 9 7.155 12.99 11.485 3.99 4.33 7.82 9.165 11.49 14.5 3.67 5.33 6.835 11.335 9.5 18.01 15.34 29.335 23.01 60.33 23.01 92.99 0 21.995-4 40-12 54.015-1.345 1.345-2.02 2.345-2.02 3.01l-0.99 0L968.028 322.001zM230.072-25.988000000000056L77.085-25.988000000000056c-3.327 0-6.665 0.835-10.015 2.5-3.35 1.66-6.187 3.5-8.512 5.5-2.325 2.01-4.16 4.675-5.502 8-1.345 3.33-2.017 6.67-2.017 10.02L51.039 461.006c0 6.677 2.497 12.512 7.487 17.505 4.992 4.99 11.157 7.487 18.497 7.487l152.987 0c7.337 0 13.502-2.497 18.495-7.487 4.99-4.992 7.487-10.827 7.487-17.505l0-460.974c0-13.335-6.337-21.665-19.007-24.99-2.667 0-5.002-0.335-7.007-0.995L230.072-25.988000000000056zM939.038 370.001c-7.335-13.995-13.67-20.99-19.005-20.99-7.335 0-13.505-2.5-18.495-7.49s-7.49-10.995-7.49-18.015c0-7.015 2.5-13.025 7.49-18.015s11.16-7.49 18.495-7.49c2.665 0 4.675-1.33 6.015-4 3.33-6.675 4.99-16.34 4.99-28.99 0-24.66-5.33-48.33-16-71.005-9.34-18.665-17.67-27.995-24.99-27.995-4.67 0-9-1.005-12.99-3.01-3.99-2.01-7.16-5.005-9.5-8.99-2.35-3.99-3.51-8.32-3.49-12.995 0-3.325 0.5-6.325 1.5-8.99 1.005-2.665 2.34-5.005 4-7.01 1.67-2.005 3.83-4.01 6.5-6.015 0.66-9.34-1.175-23.01-5.505-40.99-4.33-17.985-11.165-33.65-20.515-47.01-8-11.325-14.99-16.99-20.99-16.99-4.67 0-9-1-12.99-3.01-3.99-2-7.16-5-9.5-8.99-2.35-3.99-3.51-8.32-3.49-12.99 0-21.33-9.505-37.66-28.51-48.99-19.01-11.33-41.505-16.99-67.49-16.99-40 0-74 2.165-102.01 6.495-28.01 4.33-47.84 8.83-59.49 13.505-11.645 4.67-26.48 12.01-44.507 22.01-18.005 9.35-32.842 16.685-44.51 22.02-11.67 5.33-30.837 11.5-57.502 18.495-26.667 6.995-57.332 12.83-91.997 17.505L307.062 442.064c111.335 36.67 210.667 94.332 298.007 172.987 83.325 75.325 134.32 150.66 152.985 226.007 18.005-5.332 31.34-15.667 40-31.007 4.675-9.342 7.84-20.51 9.505-33.502 1.66-12.992 1.16-30.655-1.505-52.99s-11.165-50.505-25.505-84.51c-14.335-34.002-34.16-72.007-59.485-114.012-2.005-4.01-3.005-8.34-3.005-12.99 0-4.652 1-8.982 3.005-12.992 4.675-8.662 12.01-12.992 22.015-12.992l187 0 2.02-2.015c1.34 0 2.505-0.33 3.49-0.992 0.98-0.66 1.98-1.492 3.005-2.495s1.855-2.005 2.495-3.007c0.64-1.003 1.64-2.165 3.01-3.49 2.665-4.67 4.83-10.505 6.495-17.502 1.665-6.997 2.495-14.825 2.495-23.487 0-23.337-4.67-44.34-14.015-63.005L939.038 370.001z"  horiz-adv-x="1025" />

    
    <glyph glyph-name="cart" unicode="&#58902;" d="M85.971024 793.295873L85.971024 793.295873c-12.929474 0-23.415292-10.491958-23.414269-23.416316 0-12.929474 10.485819-23.415292 23.414269-23.415292l0-0.024559c0.865717-0.045025 1.689479-0.25685 2.554172-0.25685l63.323211 0 69.77925-577.790402c-30.463826-18.47784-51.000558-51.610448-51.000558-89.830935 0-58.168818 47.209208-105.378026 105.383142-105.378026 45.871747 0 84.584444 29.507034 98.986455 70.464865l6.391571 23.205515 257.597893 0 6.391571-23.205515c14.47262-40.957831 53.089126-70.464865 98.986455-70.464865 58.193377 0 105.383142 47.209208 105.383142 105.378026s-47.189765 105.382119-105.383142 105.382119c-45.732577 0-84.304058-29.319769-98.870822-70.042239L375.09084 113.90139899999997c-13.115716 36.390815-45.597501 63.365166-85.126796 68.680219l-3.0208 24.989137 410.445046 0c2.879584-0.23536 8.919137-0.209778 11.848862-0.209778 56.274678 0 103.2035 39.692001 114.443495 92.619444 0.211824 0.538259 0.652869 1.050935 0.819668 1.638313l82.689281 327.403748 24.375154 0c2.366907 0 4.523013-0.236384 6.743588-0.398066l3.025916 1.261737c10.818393 2.065032 19.129686 11.149944 19.129686 22.551622 0 12.929474-10.491958 23.420409-23.415292 23.420409-0.819668 0-1.503237-0.402159-2.295276-0.470721-1.075495 0.118704-2.085498 0.470721-3.186576 0.470721l-724.664517 0L194.112999 781.612787c-0.089028 0.397043-0.397043 0.633427-0.487094 1.004887-0.774643 18.7132-15.951297 10.32516-34.848693 10.32516l-70.254064 0c-0.376577 0-0.679475 0.050142-1.029446 0.050142C86.97591 793.014464 86.507236 793.295873 85.971024 793.295873M744.362138 19.945516999999995L744.362138 19.945516999999995c-32.340569 0-58.540278 26.205848-58.540278 58.545394 0 32.340569 26.199709 58.545394 58.540278 58.545394 32.339546 0 58.546418-26.203802 58.546418-58.545394C802.908556 46.15034200000002 776.701684 19.945516999999995 744.362138 19.945516999999995M217.463824 78.48988799999995L217.463824 78.48988799999995c0 32.340569 26.203802 58.545394 58.545394 58.545394 32.339546 0 58.540278-26.203802 58.540278-58.545394 0-32.339546-26.200732-58.545394-58.540278-58.545394C243.668649 19.945516999999995 217.463824 46.15034200000002 217.463824 78.48988799999995M254.999718 254.337895L254.999718 254.337895l-39.596833 374.683565 642.396839 0-41.706891-187.555653-34.496675-134.652769c-2.009773-23.998577-24.422226-52.685943-48.942689-52.685943L568.731072 254.12709400000006l0 0.211824L254.999718 254.33891800000004M254.999718 254.337895L254.999718 254.337895z"  horiz-adv-x="1024" />

    
    <glyph glyph-name="success" unicode="&#59060;" d="M511.679524-127.15939000000003c-68.658678 0-135.399619 13.564433-198.369591 40.316509-60.752236 25.809077-115.373446 62.712976-162.346233 109.685763-46.971763 46.971763-83.875662 101.592974-109.685763 162.346233-26.751052 62.969971-40.315485 129.710912-40.315485 198.368567s13.564433 135.399619 40.315485 198.369591c25.810101 60.752236 62.714 115.373446 109.685763 162.346233 46.972787 46.971763 101.593997 83.875662 162.346233 109.685763C376.279905 880.71032 443.020846 894.274753 511.679524 894.274753S647.078119 880.71032 710.048091 853.959269c60.752236-25.810101 115.37447-62.714 162.346233-109.685763 46.972787-46.972787 83.876686-101.593997 109.686787-162.346233 26.752076-62.969971 40.316509-129.710912 40.316509-198.369591s-13.564433-135.398595-40.316509-198.368567c-25.810101-60.75326-62.712976-115.37447-109.685763-162.346233-46.971763-46.972787-101.593997-83.876686-162.346233-109.685763C647.079143-113.59495700000002 580.337178-127.15939000000003 511.679524-127.15939000000003zM511.679524 845.128258c-62.018782 0-122.293887-12.247716-179.152287-36.403219-54.923257-23.333323-104.317532-56.709936-146.810821-99.204249s-75.870926-91.888588-99.204249-146.810821c-24.155503-56.8584-36.403219-117.133505-36.403219-179.152287 0-62.017758 12.247716-122.292863 36.403219-179.152287 23.333323-54.923257 56.709936-104.317532 99.204249-146.811845 42.493289-42.493289 91.888588-75.870926 146.810821-99.204249 56.8584-24.155503 117.133505-36.403219 179.152287-36.403219 62.017758 0 122.293887 12.247716 179.153311 36.403219 54.923257 23.333323 104.317532 56.71096 146.810821 99.204249 42.494313 42.494313 75.87195 91.888588 99.205273 146.811845 24.155503 56.8584 36.403219 117.133505 36.403219 179.152287s-12.247716 122.293887-36.404243 179.152287c-23.333323 54.923257-56.71096 104.317532-99.204249 146.810821-42.494313 42.493289-91.888588 75.870926-146.811845 99.204249C633.972387 832.880541 573.697282 845.128258 511.679524 845.128258zM451.780185 206.151119c-6.223175 0-12.452493 2.255619-17.365095 6.794503L253.195578 380.34165800000005c-10.384245 9.592782-11.027245 25.787576-1.434463 36.171821 9.592782 10.386293 25.786552 11.026221 36.171821 1.434463l163.146912-150.703633 289.753404 289.754428c9.997216 9.996192 26.203273 9.996192 36.199466 0 9.996192-9.996192 9.996192-26.203273 0-36.199466L469.883501 213.648007C464.896156 208.660662 458.342266 206.151119 451.780185 206.151119z"  horiz-adv-x="1025" />

    
    <glyph glyph-name="switch-on" unicode="&#58910;" d="M736 672H288C128.944 672 0 543.056 0 384s128.944-288 288-288h448c159.056 0 288 128.944 288 288S895.056 672 736 672z m0-528H288C155.456 144 48 251.45600000000002 48 384s107.456 240 240 240h448c132.544 0 240-107.456 240-240S868.544 144 736 144zM555.664 384a11 11 0 1 1 352 0 11 11 0 1 1-352 0z"  horiz-adv-x="1024" />

    
    <glyph glyph-name="switch-off" unicode="&#58911;" d="M736 672H288C128.944 672 0 543.056 0 384s128.944-288 288-288h448c159.056 0 288 128.944 288 288S895.056 672 736 672z m0-528H288C155.456 144 48 251.45600000000002 48 384s107.456 240 240 240h448c132.544 0 240-107.456 240-240S868.544 144 736 144zM116.336 384a11 11 0 1 1 352 0 11 11 0 1 1-352 0z"  horiz-adv-x="1024" />

    
    <glyph glyph-name="cancel" unicode="&#58904;" d="M609.206 499.344H193.504l201.87 199.152c17.787 17.787 17.787 43.185 0 60.973s-41.555 18.641-59.42 0.778L62.857 493.443c-17.787-17.787-17.787-41.399 0-59.186L336.03 167.14200000000005c17.787-17.787 41.555-17.787 59.42 0.078 17.787 17.787 17.787 41.166 0 58.953L193.502 421.674h415.702c166.219 0 311.155-129.712 311.155-290.029v-41.555c0-23.769 15.069-41.555 38.836-41.555s38.836 17.787 38.836 41.555v41.555c0 207.852-175.073 367.7-388.828 367.7z"  horiz-adv-x="1024" />

    
    <glyph glyph-name="power" unicode="&#58913;" d="M464.621946 771.516848c0 26.264177 21.324678 47.589878 47.582715 47.589878 26.258037 0 47.662533-21.324678 47.662533-47.589878v-299.552424c0-26.264177-21.404496-47.589878-47.662533-47.589878-26.258037 0-47.582715 21.324678-47.582715 47.589878v299.552424zM813.450656 73.54117900000006c-166.205393-166.205393-436.678524-166.205393-602.936105 0.053212-166.205393 166.205393-166.205393 436.678524 0 602.883917 18.191314 18.191314 47.709605 18.191314 65.900919 0s18.191314-47.709605 0-65.900919c-129.868813-129.875976-129.868813-341.207126 0-471.082079 129.868813-129.868813 341.260337-129.922025 471.129151-0.053212 129.875976 129.875976 129.875976 341.319689 0 471.188502-18.191314 18.191314-18.191314 47.708582 0 65.90092 18.198477 18.191314 47.708582 18.191314 65.907059 0 166.250418-166.259628 166.250418-436.732759-0.001024-602.990341z"  horiz-adv-x="1024" />

    
    <glyph glyph-name="user" unicode="&#59004;" d="M917.966-21.331999999999994c0-22.47-17.892-40.7-39.914-40.7-22.058 0-39.913 18.23-39.913 40.7l-0.075 0.49h-1.088C818.03 136.82500000000005 688.798 259.456 530.154 264.634c-3.413-0.151-6.752-0.562-10.24-0.562-3.45 0-6.79 0.41-10.203 0.525-158.606-5.14-287.84-127.807-306.784-285.437h-1.014l0.076-0.49c0-22.47-17.855-40.7-39.913-40.7s-39.915 18.23-39.915 40.7l-0.374 3.789c0 6.751 2.026 12.904 4.915 18.53 21.082 140.714 111.076 258.242 235.432 312.786C288.42 365.168 239.99 451.485 239.99 549.396c0 157.591 125.334 285.361 279.925 285.361 154.628 0 279.96-127.77 279.96-285.361 0-97.873-48.391-184.153-122.104-235.546 124.843-54.732 215.1-172.863 235.809-314.211 2.437-5.29 4.014-10.992 4.014-17.181l0.373-3.79zM719.823 549.3199999999999c0 112.577-89.545 203.81-199.984 203.81-110.402 0-199.945-91.234-199.945-203.81s89.543-203.809 199.945-203.809c110.44 0 199.984 91.232 199.984 203.81z"  horiz-adv-x="1024" />

    
    <glyph glyph-name="refresh" unicode="&#58894;" d="M813.978682 574.7002729999999c-7.833409 8.830109-21.336958 9.661034-30.193672 1.827625-8.846482-7.828292-9.661034-21.347191-1.827625-30.193673 75.80243-85.599563 108.168582-199.25102 88.784092-311.805491-35.040051-203.334012-229.068116-340.245218-432.298773-305.226657-203.340151 35.040051-340.265684 228.963739-305.226656 432.298774 16.971533 98.497315 71.285556 184.493921 152.932088 242.143922 79.750345 56.305377 176.262446 78.908164 272.511557 64.086597l-132.426055-105.601106c-9.232269-7.362688-10.746762-20.820188-3.384074-30.057573 4.219091-5.294586 10.443863-8.052396 16.731056-8.052397 4.678556 0 9.388834 1.524726 13.326517 4.668323l193.45399 154.26341L492.083391 876.511133C484.730936 885.748519 471.258087 887.268128 462.025818 879.895207c-9.232269-7.362688-10.746762-20.820188-3.384073-30.057573L570.731636 709.284481c-109.094674 18.251689-218.838124-6.751774-309.25132-70.594825-90.988294-64.241117-151.511739-160.064532-170.425507-269.821285-18.908652-109.766986 6.051833-220.316801 70.292949-311.304072 64.241117-90.978061 160.069649-151.500483 269.826402-170.415274a417.58056 417.58056 0 0 1 71.019497-6.098905c199.094454 0 375.775432 143.490042 410.699849 346.208023 21.608134 125.423571-14.443967 252.066923-98.914824 347.44213z"  horiz-adv-x="1024" />

    
    <glyph glyph-name="loading" unicode="&#58931;" d="M960 448.992q-11.008 152.992-120 261.504t-260.992 120.512q-16 0.992-27.488-9.504t-11.488-26.496q0-14.016 9.504-24.512t23.488-11.488q55.008-4 107.008-26.016 60.992-26.016 108.992-73.504t74.016-109.504q22.016-51.008 26.016-106.016 0.992-14.016 11.488-23.488t24.512-9.504q15.008 0 26.016 11.008 11.008 12 8.992 27.008z"  horiz-adv-x="1024" />

    
    <glyph glyph-name="up" unicode="&#59188;" d="M860.553846 147.692308H163.446154c-19.692308 0-33.476923 25.6-17.723077 43.323077l340.676923 417.476923c11.815385 15.753846 37.415385 15.753846 49.230769 0l344.615385-417.476923c13.784615-17.723077 1.969231-43.323077-19.692308-43.323077z"  horiz-adv-x="1024" />

    
    <glyph glyph-name="left" unicode="&#58897;" d="M734.2-49c-17.5-17.5-45.8-17.5-63.3 0L300.7 321.20000000000005c-35 35-35 91.7 0 126.6l372.9 373c17.3 17.3 45.3 17.5 62.8 0.5 17.9-17.4 18.1-46.1 0.5-63.8L395.7 416.2c-17.5-17.5-17.5-45.8 0-63.3l338.6-338.6c17.4-17.5 17.4-45.8-0.1-63.3z"  horiz-adv-x="1024" />

    
    <glyph glyph-name="location" unicode="&#58920;" d="M512 288c-105.888 0-192 86.112-192 192s86.112 192 192 192 192-86.112 192-192-86.112-192-192-192z m0 320c-70.592 0-128-57.408-128-128s57.408-128 128-128 128 57.408 128 128-57.408 128-128 128z m0-672c-7.936 0-15.904 2.944-22.08 8.832-12.768 12.224-13.248 32.48-1.056 45.248C575.392 80.79999999999995 800 345.664 800 480c0 158.784-129.184 288-288 288-158.784 0-288-129.216-288-288 0-75.616 72.544-206.08 204.256-367.424 11.2-13.728 9.152-33.888-4.544-45.024-13.696-11.168-33.888-9.152-45.024 4.544C233.568 249.82399999999996 160 387.072 160 480c0 194.08 157.92 352 352 352s352-157.92 352-352c0-187.36-315.424-520.032-328.832-534.08A31.952 31.952 0 0 0 512-64z"  horiz-adv-x="1024" />

    
    <glyph glyph-name="phone" unicode="&#58987;" d="M722.308414 24.25820699999997c-10.24 0-16.207448 3.742897-18.467311 14.194759a22.245517 22.245517 0 0 0 16.984276 26.624c25.63531 5.720276 49.257931 19.138207 70.055724 39.936 16.701793 16.737103 34.392276 39.830069 43.99669 62.216827l0.423724 0.882759a20.338759 20.338759 0 0 1-2.860138 22.280827c-13.206069 8.474483-103.141517 61.545931-154.306207 91.277242a8.686345 8.686345 0 0 0-1.129931 0.670896 10.20469 10.20469 0 0 1-14.37131-3.848827l-0.741517-1.271173a105.366069 105.366069 0 0 0-58.120828-46.609655c-29.131034-9.392552-57.626483-8.15669-84.109241 7.097379-0.600276 0.317793-1.094621 0.706207-1.659586 1.094621-2.118621 1.447724-52.647724 36.087172-82.944 66.277517s-62.464 77.223724-63.947035 79.307035a16.948966 16.948966 0 0 0-1.05931 1.694896c-15.32469 26.482759-21.292138 57.026207-11.899586 86.157242 7.944828 24.717241 25.670621 50.281931 47.810206 63.805793a22.951724 22.951724 0 0 0 1.341794 0.741517 10.098759 10.098759 0 0 1 3.778206 14.265379l-0.635586 1.165242c-29.872552 51.058759-82.308414 133.049379-90.782896 146.255448a20.656552 20.656552 0 0 1-23.304828 2.401103 187.851034 187.851034 0 0 1-58.932965-39.794758C208.331034 632.019862 188.416 594.7321380000001 188.45131 555.9613790000001c0-41.842759 17.902345-93.996138 52.541793-147.102896 32.308966-49.540414 76.658759-104.942345 134.779587-162.851311 93.678345-93.431172 176.975448-152.364138 248.125793-174.433103 11.793655-3.672276 18.643862-12.182069 17.372689-24.011035-1.377103-11.828966-15.465931-18.996966-27.224275-15.36-78.177103 24.258207-167.936 86.545655-266.840276 185.132138-131.10731 130.683586-197.632 244.594759-197.702621 338.520276 0 50.529103 18.855724 95.055448 56.249379 132.413793a233.789793 233.789793 0 0 0 72.350897 49.010759 65.182897 65.182897 0 0 0 74.257655-12.641103c2.824828-2.789517 4.096-4.06069 49.328552-80.754759 21.009655-35.557517 41.842759-71.185655 43.361103-73.728a54.731034 54.731034 0 0 0-20.409379-76.905931 63.558621 63.558621 0 0 1-21.963035-85.097931c4.660966-6.532414 35.416276-49.11669 60.910345-74.504828 25.529379-25.423448 68.219586-56.037517 74.752-60.698482a63.735172 63.735172 0 0 1 85.239173 22.033655 54.978207 54.978207 0 0 0 42.407724 28.354207c12.040828 1.200552 24.293517-1.518345 34.533517-7.874207 2.577655-1.483034 38.276414-22.245517 73.939862-43.113931 76.870621-45.02069 78.141793-46.327172 80.93131-49.11669 19.597241-19.526621 24.717241-49.293241 12.817656-74.222345a232.695172 232.695172 0 0 0-48.975449-72.350896c-26.906483-26.906483-57.908966-44.385103-91.983448-51.941518a30.649379 30.649379 0 0 0-4.943448-0.459034z"  horiz-adv-x="1024" />

    
    <glyph glyph-name="right" unicode="&#58908;" d="M294.6 25l351.5 351.5c1.9 1.9 3.1 4.5 3.1 7.5s-1.2 5.6-3.2 7.6L294.6 743c-13.9 13.9-13.9 36.7 0 50.6 13.9 13.9 36.7 13.9 50.6 0l384.3-384.3c13.9-13.9 13.9-36.7 0-50.6-0.1-0.1-0.1-0.1-0.2-0.1L345.1-25.600000000000023c-13.9-13.9-36.7-13.9-50.6 0-13.8 13.9-13.8 36.7 0.1 50.6zM641.2 373.79999999999995c-0.2 0-0.3-0.1-0.5-0.1 0.2 0 0.3 0 0.5 0.1zM642.9 374.4c-0.1 0-0.1-0.1-0.2-0.1 0.1 0 0.1 0 0.2 0.1zM638.6 373.4h0z"  horiz-adv-x="1024" />

    
    <glyph glyph-name="upload1" unicode="&#59134;" d="M1283.072 465.066667c0 4.266667 0.7168 8.533333 0.7168 12.8C1283.7888 708.949333 1102.2336 896 878.2848 896c-161.553067 0-300.373333-97.416533-365.568-238.250667a205.243733 205.243733 0 0 1-93.866667 23.1424c-103.424 0-189.6448-77.858133-206.097066-179.541333C88.6784 457.9328 0 337.373867 0 195.54986699999995 0 17.066667000000052 140.526933-128 313.685333-128h359.2192v284.433067h-168.925866L785.066667 454.075733l281.088-297.301333h-168.96v-284.433067h386.594133c158.4128 0 286.344533 133.358933 286.344533 296.5504 0 163.191467-128.6144 295.8336-287.061333 296.174934z"  horiz-adv-x="1570" />

    
    <glyph glyph-name="loading4" unicode="&#59644;" d="M512 832c247.2 0 448-200.8 448-448h-64c0 212-172 384-384 384V832z m0-832c-212 0-384 172-384 384H64c0-247.2 200.8-448 448-448v64z"  horiz-adv-x="1024" />

    
    <glyph glyph-name="video" unicode="&#59000;" d="M892.8 768H131.2c-19.2 0-35.2-6.4-48-22.4-12.8-12.8-19.2-32-19.2-54.4V80c0-44.8 28.8-80 67.2-80h761.6c19.2 0 35.2 6.4 48 22.4s19.2 35.2 19.2 54.4V691.2c0 41.6-32 76.8-67.2 76.8zM224 64h-51.2c-25.6 0-44.8 22.4-44.8 51.2V256h96v-192z m0 256h-96V448h96v-128z m0 192h-96V652.8c0 28.8 19.2 51.2 44.8 51.2H224v-192z m512-32v-416H288V704h448v-224z m160-364.8c0-28.8-19.2-51.2-44.8-51.2H800V256h96v-140.8z m0 204.8h-96V448h96v-128z m0 192h-96V704h54.4c22.4 0 41.6-22.4 41.6-51.2V512zM444.8 268.79999999999995l144 73.6 25.6 12.8c32 16 32 41.6 0 57.6l-169.6 86.4c-16 6.4-28.8 0-28.8-16v-192c0-22.4 12.8-28.8 28.8-22.4z"  horiz-adv-x="1024" />

    
    <glyph glyph-name="mobile" unicode="&#58906;" d="M676.2 832H347.8c-41.1 0-74.7-33.6-74.7-74.7v-746.7c0-41.1 33.6-74.7 74.7-74.7h328.5c41.1 0 74.7 33.6 74.7 74.7V757.3c-0.1 41.1-33.7 74.7-74.8 74.7m-209-59.7h89.6c8.2 0 14.9-6.7 14.9-14.9s-6.7-14.9-14.9-14.9h-89.6c-8.2 0-14.9 6.7-14.9 14.9s6.7 14.9 14.9 14.9M512-34.10000000000002c-24.8 0-44.8 20-44.8 44.8 0 24.8 20 44.8 44.8 44.8 24.8 0 44.8-20 44.8-44.8 0-24.8-20-44.8-44.8-44.8m209.1 119.4H303V682.7h418.1v-597.4z"  horiz-adv-x="1024" />

    
    <glyph glyph-name="share" unicode="&#58880;" d="M768 298.66666699999996c-51.328 0-97.28-22.794667-128.586667-58.677334L422.858667 348.266667c2.453333 11.52 3.808 23.488 3.808 35.733333 0 12.245333-1.354667 24.213333-3.808 35.733333l216.554666 108.277334C670.709333 492.117333 716.672 469.333333 768 469.333333c94.250667 0 170.666667 76.416 170.666667 170.666667S862.250667 810.666667 768 810.666667s-170.666667-76.416-170.666667-170.666667c0-12.245333 1.354667-24.213333 3.808-35.733333L384.586667 495.989333C353.290667 531.8826670000001 307.349333 554.666667 256 554.666667c-94.250667 0-170.666667-76.416-170.666667-170.666667s76.416-170.666667 170.666667-170.666667c51.349333 0 97.28 22.794667 128.586667 58.677334L601.141333 163.73333300000002A171.946667 171.946667 0 0 1 597.333333 128c0-94.250667 76.416-170.666667 170.666667-170.666667s170.666667 76.416 170.666667 170.666667-76.416 170.666667-170.666667 170.666667z m0 426.666666a85.333333 85.333333 0 1 0 0-170.666666 85.333333 85.333333 0 0 0 0 170.666666zM256 298.66666699999996a85.333333 85.333333 0 1 0 0 170.666666 85.333333 85.333333 0 0 0 0-170.666666z m512-256a85.333333 85.333333 0 1 0 0 170.666666 85.333333 85.333333 0 0 0 0-170.666666z"  horiz-adv-x="1024" />

    
    <glyph glyph-name="category" unicode="&#58881;" d="M46.545455 761.018182h148.945454v-69.818182H46.545455zM316.509091 761.018182H977.454545v-69.818182H316.509091zM46.545455 416.581818h148.945454v-69.818182H46.545455zM316.509091 416.581818H977.454545v-69.818182H316.509091zM46.545455 76.79999999999995h148.945454v-69.818182H46.545455zM316.509091 76.79999999999995H977.454545v-69.818182H316.509091z"  horiz-adv-x="1024" />

    
    <glyph glyph-name="link" unicode="&#58888;" d="M569.6 25.600000000000023h-38.4c-12.8 0-25.6 12.8-25.6 25.6s12.8 25.6 25.6 25.6h38.4v192c0 19.2 6.4 38.4 19.2 51.2 12.8 12.8 32 19.2 51.2 19.2h275.2c19.2 0 38.4-6.4 57.6-19.2 12.8-12.8 25.6-32 25.6-51.2v-249.6c0-19.2-6.4-38.4-25.6-51.2-12.8-12.8-32-19.2-57.6-19.2H640c-19.2 0-38.4 6.4-51.2 19.2-12.8 12.8-25.6 32-25.6 51.2v6.4h6.4zM102.4 857.6h275.2c19.2 0 38.4-6.4 57.6-19.2 12.8-12.8 19.2-32 19.2-51.2v-243.2c0-32-6.4-44.8-19.2-64-19.2-12.8-38.4-19.2-57.6-19.2H262.4v-25.6c0-12.8-12.8-25.6-25.6-25.6s-25.6 12.8-25.6 25.6v25.6H102.4c-19.2 0-38.4 6.4-57.6 19.2-12.8 12.8-19.2 32-19.2 57.6V787.2c0 19.2 6.4 38.4 25.6 51.2 12.8 12.8 32 19.2 51.2 19.2z m275.2-44.8H102.4c-6.4 0-19.2 0-25.6-6.4-6.4-6.4-6.4-12.8-6.4-19.2v-192h339.2v192c0 6.4-6.4 12.8-6.4 19.2-6.4 0-19.2 6.4-25.6 6.4zM70.4 550.4v-12.8c0-6.4 0-12.8 6.4-19.2 6.4-6.4 12.8-6.4 25.6-6.4h275.2c6.4 0 19.2 0 25.6 6.4 6.4 6.4 6.4 12.8 6.4 19.2v12.8H70.4z m544-473.6h339.2v192c0 6.4 0 12.8-6.4 19.2-6.4 6.4-12.8 6.4-25.6 6.4h-275.2c-6.4 0-19.2 0-19.2-6.4-12.8-6.4-12.8-12.8-12.8-19.2v-192z m339.2-51.2H614.4v-12.8c0-6.4 0-12.8 6.4-19.2 6.4-6.4 12.8-6.4 25.6-6.4h275.2c6.4 0 19.2 6.4 25.6 6.4 6.4 6.4 6.4 12.8 6.4 19.2v12.8zM217.6 275.20000000000005c0 12.8 12.8 25.6 25.6 25.6s25.6-12.8 25.6-25.6v-32c0-12.8-12.8-25.6-25.6-25.6s-25.6 12.8-25.6 25.6v32z m0 96c0 12.8 12.8 25.6 25.6 25.6 12.8-6.4 19.2-12.8 19.2-25.6v-32c0-12.8-12.8-25.6-25.6-25.6s-25.6 12.8-25.6 25.6v32h6.4z m0-185.6c0 12.8 12.8 25.6 25.6 25.6s25.6-12.8 25.6-25.6v-32c-6.4-12.8-12.8-25.6-25.6-25.6s-25.6 12.8-25.6 25.6v32z m160-108.8c12.8 0 25.6-12.8 25.6-25.6s-12.8-25.6-25.6-25.6h-32c-12.8 0-25.6 12.8-25.6 25.6s12.8 25.6 25.6 25.6h32z m89.6 0c12.8 0 25.6-12.8 25.6-25.6s-12.8-25.6-25.6-25.6h-32c-12.8 0-25.6 12.8-25.6 25.6s12.8 25.6 25.6 25.6h32z m-249.6 19.2c0 12.8 12.8 25.6 25.6 25.6s25.6-12.8 25.6-25.6v-19.2h19.2c12.8 0 25.6-12.8 25.6-25.6s-12.8-25.6-25.6-25.6h-44.8c-6.4 0-19.2 6.4-19.2 12.8v57.6h-6.4z"  horiz-adv-x="1024" />

    
    <glyph glyph-name="loading3" unicode="&#58973;" d="M249.836 685.23c5.558 3.827 10.73 7.527 15.812 10.695 4.967 3.314 9.807 6.121 14.208 8.785 2.18 1.362 4.374 2.515 6.425 3.673l5.873 3.281c0.945 0.551 1.789 0.953 2.625 1.377l2.425 1.226 4.381 2.233 1.954 1.004 2.219 1.093 3.918 1.924 7.184 3.527c2.883 1.44 5.996 3.272 8.694 5.22 26.969 19.458 33.057 57.094 13.599 84.063-19.458 26.968-57.094 33.057-84.063 13.599l-6.49-4.682-3.54-2.554-2.071-1.499-2.62-1.947-5.824-4.351a7267.87 7267.87 0 0 1-3.193-2.399c-1.091-0.824-2.25-1.676-3.282-2.533a33346.62 33346.62 0 0 0-6.735-5.441c-2.343-1.915-4.833-3.859-7.308-6.046-4.991-4.313-10.423-8.905-15.952-14.121-5.645-5.071-11.353-10.792-17.394-16.739-5.886-6.125-12.079-12.515-18.185-19.505-12.303-13.875-24.827-29.53-36.839-46.835a494.61 494.61 0 0 1-33.896-56.497 491.342 491.342 0 0 1-27.329-64.159c-1.02-2.77-1.888-5.605-2.789-8.428l-2.688-8.477c-1.692-5.691-3.266-11.429-4.857-17.152l-2.135-8.669c-0.683-2.896-1.479-5.756-2.051-8.682l-1.84-8.729-0.914-4.358-0.785-4.387a479.254 479.254 0 0 1-7.583-69.967c-0.302-5.759-0.239-11.514-0.279-17.214l-0.017-4.267c-0.001-1.42 0.069-2.841 0.101-4.257l0.25-8.464 0.127-4.204 0.264-4.188 0.531-8.317 0.278-4.451 0.399-3.933 0.792-7.821c0.14-1.313 0.244-2.561 0.412-3.918l0.527-4.098 1.056-8.115c0.185-1.337 0.33-2.695 0.549-4.002l0.648-3.91 1.289-7.744c1.825-10.246 3.911-20.188 6.263-29.766a463.195 463.195 0 0 1 16.342-52.81l2.255-5.904 1.108-2.899 1.186-2.836 4.611-10.976c3.247-7.033 6.19-13.723 9.353-19.831 6.048-12.328 12.043-22.661 17.007-31.096 5.121-8.359 9.212-14.84 12.197-19.141l4.472-6.638-3.293 7.292c-2.209 4.713-5.148 11.776-8.748 20.761-3.443 9.059-7.545 20.055-11.346 32.919-2.041 6.376-3.771 13.301-5.726 20.516l-2.612 11.204-0.667 2.878-0.583 2.935-1.183 5.957c-3.105 16.055-5.568 33.549-6.889 52.052-0.668 9.251-1.027 18.753-1.1 28.437l0.03 7.3 0.014 3.67c0.002 1.227 0.084 2.416 0.122 3.629l0.284 7.263 0.139 3.644c0.053 1.229 0.166 2.577 0.247 3.863a35704.717 35704.717 0 0 0 0.798 11.787l0.017 0.247c0.013-0.588 0.018-0.028 0.027-0.098l0.05 0.472 0.101 0.945 0.2 1.891 0.8 7.581 0.4 3.801 0.535 3.801 1.069 7.62c0.187 1.271 0.335 2.545 0.555 3.815l0.67 3.811c0.909 5.082 1.708 10.185 2.859 15.253a424.734 424.734 0 0 0 17.057 60.03l1.316 3.663 1.437 3.623 2.859 7.225c0.907 2.417 2.03 4.761 3.033 7.135l3.079 7.082c2.208 4.653 4.37 9.295 6.624 13.867l3.508 6.783c1.167 2.252 2.294 4.513 3.565 6.702a414.503 414.503 0 0 0 31.89 49.502 407.116 407.116 0 0 0 35.476 41.25 406.598 406.598 0 0 0 35.793 32.288c5.751 4.687 11.515 8.857 16.918 12.861zM1023.966 385.514l-0.001 0.005-0.875 7.954-1.051 9.554-0.687 6.125-1.153 8.152c-0.828 5.729-1.741 12.089-2.813 18.907l-4.259 20.887c-0.691 3.726-1.738 7.517-2.729 11.425l-3.102 12.024c-0.558 2.048-1.019 4.142-1.677 6.221l-1.958 6.314-4.07 13.021-1.049 3.333-1.211 3.324c-0.814 2.223-1.638 4.467-2.469 6.732-1.673 4.522-3.34 9.131-5.115 13.781l-5.938 13.981-3.046 7.123c-1.037 2.384-2.247 4.72-3.375 7.102l-6.997 14.388c-0.569 1.22-1.222 2.408-1.877 3.598l-1.958 3.583-3.95 7.211-3.995 7.265c-1.354 2.422-2.881 4.773-4.324 7.175l-8.875 14.427c-12.567 18.998-26.533 37.793-42.018 55.643-15.662 17.71-32.638 34.534-50.581 50.045a527.617 527.617 0 0 1-56.726 41.602c-19.622 12.201-39.702 22.647-59.484 31.64l-14.925 6.188c-2.47 0.995-4.881 2.072-7.356 2.979l-7.402 2.651-7.306 2.609-3.615 1.289c-1.198 0.434-2.394 0.863-3.618 1.21l-14.37 4.353c-2.366 0.691-4.68 1.466-7.035 2.069l-7.02 1.754-13.669 3.402c-4.524 0.941-8.985 1.788-13.341 2.655l-6.47 1.271-3.184 0.621-3.186 0.465-12.373 1.797-5.96 0.862c-1.957 0.298-3.928 0.403-5.85 0.61l-11.239 1.057c-3.638 0.329-7.151 0.735-10.598 0.81l-19.18 0.823-16.258-0.11-6.935-0.057c-2.177-0.091-4.219-0.237-6.115-0.34l-9.619-0.566-7.982-0.472 7.959-0.875 9.529-1.05c1.872-0.215 3.884-0.411 6.023-0.683l6.797-1.101 15.801-2.578 18.393-3.951c3.283-0.628 6.614-1.603 10.051-2.514l10.571-2.838c1.801-0.509 3.644-0.92 5.469-1.526l5.542-1.793 11.432-3.697 2.927-0.946 2.914-1.104 5.902-2.242c3.965-1.517 8.007-3.017 12.084-4.613l12.243-5.366 6.241-2.733c2.088-0.929 4.128-2.029 6.212-3.044l12.59-6.277c1.068-0.506 2.106-1.094 3.145-1.685l3.131-1.761 6.302-3.542 6.353-3.568c2.118-1.209 4.165-2.586 6.263-3.878l12.601-7.922c16.565-11.247 32.949-23.681 48.48-37.44a473.639 473.639 0 0 0 43.435-44.87 467.917 467.917 0 0 0 35.892-50.115c10.476-17.304 19.389-34.971 27.062-52.322 1.761-4.404 3.506-8.772 5.234-13.098 0.843-2.166 1.771-4.273 2.532-6.444l2.224-6.49 2.201-6.396 1.093-3.162c0.368-1.047 0.734-2.092 1.019-3.166l3.633-12.572c0.578-2.068 1.242-4.086 1.738-6.146l1.441-6.137 2.829-11.931 2.152-11.645 1.045-5.64 0.514-2.772 0.362-2.779 1.423-10.784 0.697-5.188c0.245-1.704 0.3-3.423 0.458-5.098l0.794-9.786c0.249-3.167 0.584-6.22 0.595-9.223l0.516-16.686-0.346-13.152-0.109-5.579-0.343-6.014-0.567-9.595-0.472-7.988c-0.169-3.219-0.107-6.829 0.256-10.138 3.638-33.056 33.383-56.904 66.438-53.267 33.056 3.637 56.905 33.382 53.268 66.438zM885.176 133.54899999999998l-4.868-5.897c-1.711-2.052-3.44-4.238-5.4-6.399-3.858-4.365-7.946-9.128-12.608-13.957-4.517-4.944-9.632-9.919-14.922-15.205-5.467-5.131-11.147-10.547-17.374-15.864-12.349-10.726-26.262-21.624-41.613-32.046a434.435 434.435 0 0 0-50.026-29.303 431.157 431.157 0 0 0-56.59-23.39c-2.436-0.874-4.935-1.6-7.419-2.361l-7.455-2.279c-5.006-1.425-10.053-2.742-15.078-4.091-2.536-0.593-5.075-1.187-7.617-1.78-2.545-0.566-5.051-1.25-7.622-1.714l-7.663-1.523-3.822-0.763-3.851-0.64a419.278 419.278 0 0 0-61.304-5.938c-5.039-0.219-10.081-0.088-15.068-0.072l-3.733 0.022c-1.238 0.012-2.392 0.1-3.587 0.145l-7.067 0.313-3.505 0.146-3.997 0.27-7.961 0.537-1.981 0.133-0.989 0.067-0.494 0.033c0.221 0.008-0.844 0.005 0.433 0.022l-0.226 0.025-3.593 0.396-7.127 0.78a406.62 406.62 0 0 0-53.494 10.013 402.48 402.48 0 0 0-45.808 14.792l-5.111 2.022-2.511 0.99-2.452 1.066-9.494 4.124c-6.074 2.917-11.861 5.522-17.131 8.352-10.648 5.379-19.552 10.718-26.826 15.11l-1.338 0.807a1085.391 1085.391 0 0 1-3.457 2.276l-4.116 2.687c-0.638 0.414-1.252 0.813-1.842 1.194l-2.021 1.354-3.621 2.439-6.637 4.472c-2.685 1.782-5.825 3.567-8.857 4.938-30.307 13.689-65.973 0.218-79.662-30.089-13.689-30.308-0.218-65.974 30.089-79.663l7.293-3.294 3.979-1.797 2.369-1.063 2.994-1.302c2.073-0.896 4.3-1.857 6.676-2.885l3.672-1.574 1.917-0.819 1.9-0.745c10.22-4.014 22.646-8.772 37.189-13.242 7.215-2.375 15.042-4.443 23.216-6.727l12.687-3.1 3.261-0.787 3.325-0.701 6.75-1.415c18.195-3.715 38.044-6.719 59.054-8.439a494.284 494.284 0 0 1 65.863-0.997l8.535 0.519 4.285 0.266 0.268 0.017c1.44 0.02 0.541 0.02 0.927 0.03l0.492 0.051 0.986 0.1 1.977 0.201 7.938 0.807 3.991 0.406 4.502 0.554 9.015 1.133c1.492 0.2 3.034 0.365 4.486 0.598l4.344 0.709c5.795 0.965 11.61 1.832 17.399 3.066a485.178 485.178 0 0 1 68.692 18.701l4.2 1.463 4.157 1.588 8.292 3.176c2.771 1.016 5.468 2.251 8.194 3.37l8.134 3.434c5.351 2.451 10.685 4.869 15.941 7.39l7.805 3.918c2.591 1.307 5.188 2.576 7.712 3.991a474.344 474.344 0 0 1 57.071 35.83 467.174 467.174 0 0 1 47.72 40.068 466.596 466.596 0 0 1 37.51 40.586c5.455 6.542 10.335 13.082 14.998 19.24 4.483 6.313 8.789 12.218 12.512 18 3.868 5.667 7.179 11.177 10.297 16.204 1.589 2.492 2.957 4.989 4.318 7.332 1.349 2.348 2.635 4.586 3.854 6.711 4.686 8.611 8.271 15.384 10.509 20.116l3.527 7.185-4.682-6.489c-2.985-4.266-7.65-10.33-13.635-17.935z"  horiz-adv-x="1024" />

    
    <glyph glyph-name="twitter" unicode="&#58965;" d="M1022.037333 701.056a426.666667 426.666667 0 0 0-120.533333-33.066667 211.541333 211.541333 0 0 1 92.288 116.181334c-40.576-23.68-85.546667-40.917333-133.418667-50.517334a209.92 209.92 0 0 1-357.717333-191.232C328.149333 550.656 173.482667 634.4533329999999 69.973333 761.130667a205.738667 205.738667 0 0 1-28.416-105.6c0-72.96 37.12-137.088 93.354667-174.762667a209.237333 209.237333 0 0 0-95.061333 26.282667v-2.602667a210.048 210.048 0 0 1 168.362666-205.952 213.162667 213.162667 0 0 0-94.378666-3.626667 210.645333 210.645333 0 0 1 196.437333-145.792 421.034667 421.034667 0 0 0-260.352-89.813333c-16.64 0-33.237333 0.981333-49.92 2.858667a597.12 597.12 0 0 1 322.432-94.250667c386.304 0 597.290667 319.829333 597.290667 596.736 0 8.917333 0 17.92-0.64 26.88a423.936 423.936 0 0 1 104.96 108.714667l-2.005334 0.853333z"  horiz-adv-x="1024" />

    
    <glyph glyph-name="voice" unicode="&#58903;" d="M512 256.5c-101.8 0-184.5 82.8-184.5 184.5V647.2C327.5 749 410.2 831.8 512 831.8S696.5 749 696.5 647.2V441c0-101.8-82.8-184.5-184.5-184.5z m0 521c-71.8 0-130.3-58.4-130.3-130.3V441c0-71.8 58.4-130.3 130.3-130.3 71.8 0 130.3 58.4 130.3 130.3V647.2c0 71.9-58.5 130.3-130.3 130.3zM516.3 137c-79.1 0-144.4 26.4-194.1 78.5C210.7 332.4 219 536.8 219.4 545.4l54.2-2.5c-0.1-1.9-7.5-190.1 87.9-289.9 39.1-40.9 91.1-61.6 154.7-61.6 63.5 0 114.9 20.6 152.9 61.4 93.1 100 80.9 287.6 80.8 289.5l54.1 3.8c0.6-8.7 13.8-213.3-95.2-330.3-48.6-52.3-113.4-78.8-192.5-78.8zM484.9 164.20000000000005h54.3v-228h-54.3z"  horiz-adv-x="1024" />

    
    <glyph glyph-name="close1" unicode="&#58968;" d="M509.866667 864C245.333333 864 32 648.533333 32 384s213.333333-480 477.866667-480S987.733333 119.46666700000003 987.733333 384 774.4 864 509.866667 864z m0-896C281.6-32 96 153.60000000000002 96 384S281.6 800 509.866667 800 923.733333 614.4 923.733333 384s-185.6-416-413.866666-416zM693.333333 565.333333c-12.8 12.8-32 12.8-44.8 0L512 428.8l-136.533333 136.533333c-12.8 12.8-32 12.8-44.8 0-12.8-12.8-12.8-32 0-44.8l136.533333-136.533333-136.533333-136.533333c-12.8-12.8-12.8-32 0-44.8 6.4-6.4 14.933333-8.533333 23.466666-8.533334s17.066667 2.133333 23.466667 8.533334l136.533333 136.533333 136.533334-136.533333c6.4-6.4 14.933333-8.533333 23.466666-8.533334s17.066667 2.133333 23.466667 8.533334c12.8 12.8 12.8 32 0 44.8L556.8 384l136.533333 136.533333c12.8 12.8 12.8 32 0 44.8z"  horiz-adv-x="1024" />

    
    <glyph glyph-name="baidu" unicode="&#58974;" d="M184.682058 357.241229c111.176877 23.873478 96.029086 156.736593 92.70169 185.775677-5.444828 44.768588-58.101436 123.020542-129.605526 116.831122-89.979276-8.074168-103.125977-138.051991-103.125977-138.051991-12.169424-60.079258 29.132158-188.451554 140.029813-164.554808z m118.064352-231.102709c-3.25759-9.330667-10.51736-33.227413-4.234867-54.029449 12.402109-46.676604 52.912561-48.770769 52.912562-48.770769h58.217778V165.64842799999997h-62.336302c-28.01527-8.35339-41.534266-30.155972-44.559171-39.509908z m88.280676 453.898564c61.405563 0 111.037266 70.666424 111.037266 158.039629 0 87.280131-49.631703 157.923287-111.037266 157.923287-61.312489 0-111.060534-70.643156-111.060534-157.923287 0-87.373205 49.771314-158.039629 111.060534-158.039629z m264.469733-10.447555c82.067988-10.656971 134.840938 76.92565 145.33503 143.310671 10.703508 66.291947-42.25559 143.287402-100.357026 156.527177-58.217779 13.356117-130.908562-79.904017-137.540084-140.704599-7.911289-74.319578 10.633703-148.59262 92.56208-159.133249z m201.086348-390.212688s-126.976186 98.239593-201.109617 204.413743c-100.473368 156.550445-243.202327 92.841302-290.949282 13.216506-47.537539-79.601527-121.624432-129.954554-132.141792-143.287403-10.68024-13.123432-153.38593-90.165424-121.694237-230.870023 31.668424-140.611525 142.938375-137.935648 142.938374-137.935648s81.998182-8.074168 177.119797 13.216506c95.168151 21.104526 177.096528-5.25868 177.096528-5.258681s222.283948-74.435921 283.107798 68.851482c60.754045 143.333939-34.36757 217.653518-34.367569 217.653518z m-380.323578-213.255772h-144.520632c-62.406108 12.448646-87.256862 55.029995-90.39811 62.289765-3.071442 7.376113-20.802036 41.604072-11.424832 99.845119 26.968188 87.256862 103.870569 93.516088 103.870569 93.516088h76.92565v94.563171l65.524087-1.000546v-349.213597z m269.146701 1.000545h-166.299946c-64.453736 16.613707-67.455372 62.406108-67.455371 62.406108v183.890929l67.455371 1.093619v-165.276131c4.118524-17.63752 26.014179-20.825304 26.01418-20.825305h68.525722v185.007817h71.760044v-246.297037z m235.40738 490.988548c0 31.761498-26.386475 127.395019-124.230503 127.395019-98.006908 0-111.107071-90.258498-111.107072-154.060716 0-60.893656 5.142338-145.893474 126.883112-143.194329 121.787311 2.699146 108.454463 137.935648 108.454463 169.860026z m0 0"  horiz-adv-x="1024" />

    
    <glyph glyph-name="like1" unicode="&#58896;" d="M512-117.75999999999999C235.52-117.75999999999999 10.24 107.51999999999998 10.24 384S235.52 885.76 512 885.76s501.76-225.28 501.76-501.76-225.28-501.76-501.76-501.76z m0 954.368C262.144 836.608 59.392 633.856 59.392 384c0-249.856 202.752-452.608 452.608-452.608 249.856 0 452.608 202.752 452.608 452.608C964.608 633.856 761.856 836.608 512 836.608zM654.336 650.24c-55.296 0-109.568-24.576-145.408-65.536-35.84 40.96-83.968 65.536-139.264 65.536-103.424 0-187.392-81.92-187.392-183.296 0-164.864 153.6-267.264 254.976-335.872 25.6-17.408 41.984-27.648 58.368-40.96l13.312-13.312 13.312 13.312c16.384 13.312 38.912 23.552 64.512 40.96C688.128 199.67999999999995 841.728 302.08000000000004 841.728 466.944 840.704 568.3199999999999 756.736 650.24 654.336 650.24z m0 0"  horiz-adv-x="1024" />

    
    <glyph glyph-name="like" unicode="&#58907;" d="M513.28 24.32000000000005c-31.36 0-62.72 12.16-86.4 35.84l-231.04 230.4c-92.8 92.8-92.8 243.84 0 336.64 44.8 44.8 104.96 69.76 168.32 69.76 55.04 0 106.88-18.56 149.12-52.48 43.52 35.2 96.64 53.12 153.6 52.48 65.28-1.28 125.44-28.16 170.24-76.16 86.4-92.8 81.92-242.56-9.6-334.08l-227.2-227.2c-23.68-23.68-55.04-35.2-87.04-35.2zM364.16 633.6c-46.72 0-90.24-17.92-122.88-51.2-32.64-32.64-51.2-76.8-51.2-122.88s17.92-90.24 51.2-123.52l231.04-231.04c23.04-23.04 60.16-23.04 83.2 0L782.08 332.79999999999995c67.2 67.2 71.04 177.28 7.68 245.12-32.64 35.2-76.8 55.04-124.8 55.68-48 0.64-92.8-17.28-126.08-51.2l-3.2-3.2c-5.76-5.76-14.08-9.6-22.4-9.6-8.32 0-16.64 3.2-22.4 9.6l-3.2 3.2c-32.64 32.64-76.8 51.2-123.52 51.2z"  horiz-adv-x="1024" />

    
    <glyph glyph-name="star" unicode="&#59163;" d="M512 810.666667a42.666667 42.666667 0 0 0 35.114667-18.432l107.605333-155.946667A42.666667 42.666667 0 0 0 584.533333 587.818667L512 692.906667 404.736 537.429333a42.666667 42.666667 0 0 0-23.125333-16.725333L200.064 467.626667l115.285333-148.736a42.666667 42.666667 0 0 0 8.917334-27.306667l-5.205334-187.946667 178.730667 63.146667a42.666667 42.666667 0 0 0 28.416 0l178.773333-63.146667-5.248 187.946667a42.666667 42.666667 0 0 0 8.96 27.306667l115.2 148.736-93.44 27.392a42.666667 42.666667 0 1 0 23.936 81.92l153.6-45.013334a42.666667 42.666667 0 0 0 21.76-67.072L785.493333 278.613333l6.485334-234.752a42.666667 42.666667 0 0 0-56.874667-41.386666L512 81.19466699999998l-223.146667-78.805334a42.666667 42.666667 0 0 0-56.832 41.386667l6.485334 234.794667-144.213334 186.197333a42.666667 42.666667 0 0 0 21.76 67.072L343.04 598.3573329999999l133.802667 193.877334A42.666667 42.666667 0 0 0 512 810.666667z"  horiz-adv-x="1024" />

    
    <glyph glyph-name="alipay" unicode="&#59146;" d="M860.164096 896C950.276096 896 1024 822.121472 1024 731.830272V200.33536000000004s-32.766976 4.105216-180.219904 53.352448c-40.964096 14.36672-96.258048 34.890752-157.696 57.46176 36.862976 63.61088 65.529856 137.489408 86.011904 215.468032H569.344V598.4460799999999h247.809024V639.488h-247.808V760.559616H468.992c-18.429952 0-18.429952-18.465792-18.429952-18.465792v-104.659968h-249.856v-41.04192h249.856v-69.771264H243.712v-41.039872h401.410048c-14.338048-51.305472-34.813952-98.501632-57.341952-141.596672C458.754048 387.080192 319.485952 421.960704 231.424 399.39072c-55.299072-14.3616-92.163072-38.987776-112.642048-63.614976C22.526976 218.80831999999998 92.157952 40.273919999999976 294.912 40.273919999999976c120.832 0 237.565952 67.718144 327.677952 178.5344C757.76 153.13919999999996 1024 42.32191999999998 1024 42.32191999999998v-6.15424c0-90.2912-73.725952-164.16768-163.835904-164.16768H163.84C73.728-128 0-54.123519999999985 0 36.16768000000002V731.829248C0 822.121472 73.728 896 163.84 896h696.324096zM249.853952 339.87993600000004C344.067072 350.13939200000004 432.128 313.20064 536.578048 261.89721599999996c-75.776-94.39232-167.936-153.9072-260.097024-153.9072-159.746048 0-206.850048 125.17376-126.976 194.952192 26.620928 22.573056 73.728 34.881536 100.348928 36.937728z"  horiz-adv-x="1024" />

    
    <glyph glyph-name="upload" unicode="&#59607;" d="M1025.724758 584.107702A401.369796 401.369796 0 0 1 298.08016 713.58183a310.737906 310.737906 0 0 1 25.894826-621.475813 51.789651 51.789651 0 0 1 0 103.579302 207.158604 207.158604 0 0 0 0 414.317209h16.31374l5.178965 1.553689 4.40212 1.812638 4.661069 2.589483 3.884224 2.589482a25.894826 25.894826 0 0 1 4.143172 3.107379 41.172773 41.172773 0 0 0 3.366327 3.366328 20.456912 20.456912 0 0 1 3.107379 3.884223 22.787446 22.787446 0 0 1 3.107379 4.402121l1.294742 1.812638a298.049442 298.049442 0 0 0 557.515593-110.570905v-1.55369a6.214758 6.214758 0 0 1 0-2.071586c0-2.589483 0-5.178965 1.812638-7.768448v-1.553689a51.789651 51.789651 0 0 1 3.625276-7.768448 51.789651 51.789651 0 0 1 5.696861-7.509499 51.789651 51.789651 0 0 1 38.324342-17.349533h8.027396a133.876248 133.876248 0 0 0 21.751654 1.553689 142.42154 142.42154 0 0 0 0-284.843081H971.345624a51.789651 51.789651 0 0 1 0-103.579302h38.842239a245.741894 245.741894 0 0 1 15.536895 492.001685zM682.877268 404.397613a35.734859 35.734859 0 0 1-12.170568 8.027396 41.949617 41.949617 0 0 1-13.983206 2.589482 37.806445 37.806445 0 0 1-14.242154-2.84843 38.842238 38.842238 0 0 1-13.206361-9.063189l-153.556315-153.556316a38.842238 38.842238 0 0 1 27.448515-66.290753 39.619083 39.619083 0 0 1 25.635877 12.429516l87.52451 87.783459V-89.15776200000005a38.842238 38.842238 0 0 1 77.684477 0V283.20983L781.795501 195.68531900000005a38.842238 38.842238 0 1 1 54.897031 55.155979z"  horiz-adv-x="1265" />

    
    <glyph glyph-name="calendar" unicode="&#59074;" d="M904 366.384c72.304-48.488 120-130.968 120-224.384 0-148.88-121.12-270-270-270-93.416 0-175.896 47.696-224.384 120H30A30 30 0 0 0 0 22v724C0 795.624 40.376 836 90 836h60V866a30 30 0 0 0 60 0V836h120V866a30 30 0 0 0 60 0V836h124V866a30 30 0 0 0 60 0V836h120V866a30 30 0 0 0 60 0V836h60c49.624 0 90-40.376 90-90v-379.616zM60 746V652h784V746a30.032 30.032 0 0 1-30 30h-60v-30a30 30 0 0 0-60 0V776h-120v-30a30 30 0 0 0-60 0V776h-124v-30a30 30 0 0 0-60 0V776h-120v-30a30 30 0 0 0-60 0V776h-60a30.032 30.032 0 0 1-30-30zM210 532a30 30 0 0 0 0-60h-60a30 30 0 0 0 0 60h60z m180 0a30 30 0 0 0 0-60h-60a30 30 0 0 0 0 60h60z m184 0a30 30 0 0 0 0-60H512a30 30 0 0 0 0 60h62z m180 0a30 30 0 0 0 0-60h-60a30 30 0 0 0 0 60h60z m-544-120a30 30 0 0 0 0-60h-60a30 30 0 0 0 0 60h60z m180 0a30 30 0 0 0 0-60h-60a30 30 0 0 0 0 60h60z m184 0a30 30 0 0 0 0-60H512a30 30 0 0 0 0 60h62z m-364-120a30 30 0 0 0 0-60h-60a30 30 0 0 0 0 60h60z m180 0a30 30 0 0 0 0-60h-60a30 30 0 0 0 0 60h60z m-180-120a30 30 0 0 0 0-60h-60a30 30 0 0 0 0 60h60z m180 0a30 30 0 0 0 0-60h-60a30 30 0 0 0 0 60h60z m109.44-120a268.76 268.76 0 0 0-15.44 90c0 148.88 121.12 270 270 270 31.544 0 61.84-5.456 90-15.44V592h-784v-540h439.44z m374.56 120a30 30 0 0 0 0-60h-120a30 30 0 0 0-30 30v120a30 30 0 0 0 60 0V172h90z m-120-240c115.792 0 210 94.208 210 210S869.792 352 754 352 544 257.79200000000003 544 142s94.208-210 210-210z"  horiz-adv-x="1024" />

    
    <glyph glyph-name="password" unicode="&#58895;" d="M779.822 528.0129999999999h-10.317V623.45C770.365 779.0699999999999 657.733 896 508.99 896 362.828 896 251.056 779.0699999999999 251.056 623.45v-95.437h-7.738c-78.24 0-141.004-66.203-141.004-143.583v-367.987c0-80.82 63.624-143.583 141.004-143.583h536.504c78.24 0 141.004 66.203 141.004 143.583V384.43c-1.72 79.96-65.343 143.583-141.004 143.583zM294.905 625.1700000000001c0 134.126 90.277 228.702 214.086 228.702 126.388 0 216.665-97.156 216.665-228.702v-95.436h-433.33v95.436h2.58z m582.932-608.726c0-55.885-43.849-102.314-97.155-102.314H243.318c-53.306 0-97.155 46.429-97.155 102.314V384.43c0 55.886 43.849 102.314 97.155 102.314h537.364c53.306 0 97.155-46.428 97.155-102.314v-367.987zM507.271 328.544c-34.391 0-61.044-29.232-61.044-63.624 0-24.074 12.037-43.849 31.812-55.886v-104.893c0-17.196 14.616-31.812 31.812-31.812s31.811 14.616 31.811 31.812V209.034c19.775 12.037 31.812 31.812 31.812 55.886-6.018 33.532-32.671 63.624-66.203 63.624z"  horiz-adv-x="1024" />

    
    <glyph glyph-name="radio1-on" unicode="&#58919;" d="M506.892 814.151c-241.603 0-439.276-197.674-439.276-439.276 0-241.598 197.674-439.271 439.276-439.271 241.598 0 439.269 197.674 439.269 439.271 0 241.603-197.674 439.276-439.269 439.276z m0-834.618c-219.637 0-395.348 175.709-395.348 395.342 0 219.637 175.709 395.348 395.348 395.348 219.633 0 395.342-175.709 395.342-395.348-0.001-219.633-175.711-395.342-395.342-395.342z m0 0zM287.253 374.876c0-28.751 5.714-57.488 16.719-84.049 11.002-26.562 27.28-50.929 47.611-71.255 20.331-20.331 44.69-36.609 71.255-47.612 26.559-11.006 55.301-16.718 84.053-16.718 28.751 0 57.488 5.714 84.049 16.718 26.562 11.003 50.929 27.282 71.255 47.612 20.331 20.327 36.609 44.69 47.612 71.255 11.006 26.56 16.718 55.299 16.718 84.049 0 28.752-5.714 57.494-16.718 84.053-11.003 26.563-27.282 50.925-47.612 71.255-20.327 20.331-44.69 36.609-71.255 47.611-26.56 11.007-55.299 16.719-84.049 16.719-28.752 0-57.494-5.714-84.053-16.719-26.563-11.002-50.925-27.28-71.255-47.611-20.331-20.331-36.609-44.69-47.611-71.255-11.007-26.559-16.719-55.301-16.719-84.053z m0 0z"  horiz-adv-x="1024" />

    
    <glyph glyph-name="network-error" unicode="&#59510;" d="M471.04 76.79999999999995c-58.026667 0-102.4 44.373333-102.4 102.4s44.373333 102.4 102.4 102.4 102.4-44.373333 102.4-102.4-44.373333-102.4-102.4-102.4z m0 170.666667c-37.546667 0-68.266667-30.72-68.266667-68.266667s30.72-68.266667 68.266667-68.266667 68.266667 30.72 68.266667 68.266667-30.72 68.266667-68.266667 68.266667zM651.946667 343.03999999999996c-3.413333 0-10.24 0-13.653334 3.413333-44.373333 44.373333-105.813333 71.68-167.253333 71.68-64.853333 0-122.88-23.893333-167.253333-71.68-6.826667-6.826667-17.066667-6.826667-23.893334 0-6.826667 6.826667-6.826667 17.066667 0 23.893334 51.2 51.2 119.466667 78.506667 194.56 78.506666s139.946667-27.306667 194.56-78.506666c6.826667-6.826667 6.826667-17.066667 0-23.893334-10.24 0-13.653333-3.413333-17.066666-3.413333zM795.306667 455.68c-3.413333 0-10.24 0-13.653334 3.413333-81.92 85.333333-194.56 129.706667-314.026666 129.706667-119.466667 0-228.693333-47.786667-314.026667-129.706667-3.413333-6.826667-17.066667-6.826667-20.48 0s-6.826667 17.066667 0 23.893334C221.866667 571.733333 341.333333 622.933333 467.626667 622.933333c126.293333 0 249.173333-51.2 337.92-139.946666 6.826667-6.826667 6.826667-17.066667 0-23.893334 0-3.413333-6.826667-3.413333-10.24-3.413333zM914.773333 575.146667c-3.413333 0-10.24 0-13.653333 3.413333-238.933333 238.933333-628.053333 238.933333-870.4 0-6.826667-6.826667-17.066667-6.826667-23.893333 0s-6.826667 17.066667 0 23.893333c252.586667 252.586667 665.6 252.586667 918.186666 0 6.826667-6.826667 6.826667-17.066667 0-23.893333 0-3.413333-3.413333-3.413333-10.24-3.413333zM795.306667 110.93333299999995c-10.24 0-17.066667 6.826667-17.066667 17.066667v170.666667c0 10.24 6.826667 17.066667 17.066667 17.066666s17.066667-6.826667 17.066666-17.066666v-170.666667c0-10.24-6.826667-17.066667-17.066666-17.066667zM795.306667-25.600000000000023c-122.88 0-221.866667 98.986667-221.866667 221.866667s98.986667 221.866667 221.866667 221.866666 221.866667-98.986667 221.866666-221.866666-98.986667-221.866667-221.866666-221.866667z m0 409.6c-102.4 0-187.733333-85.333333-187.733334-187.733333s85.333333-187.733333 187.733334-187.733334 187.733333 85.333333 187.733333 187.733334-81.92 187.733333-187.733333 187.733333zM798.72 42.66666699999996c-10.24 0-17.066667 6.826667-17.066667 17.066666s6.826667 17.066667 17.066667 17.066667 17.066667-6.826667 17.066667-17.066667-10.24-17.066667-17.066667-17.066666z"  horiz-adv-x="1024" />

    
    <glyph glyph-name="female" unicode="&#59442;" d="M605.090909 197.81818199999998c-160.418909 0-290.909091 130.490182-290.909091 290.909091S444.672 779.636364 605.090909 779.636364s290.909091-130.490182 290.909091-290.909091S765.509818 197.81818199999998 605.090909 197.81818199999998m0 651.636363c-198.912 0-360.727273-161.815273-360.727273-360.727272 0-86.900364 30.906182-166.725818 82.292364-229.073455L197.818182 130.81600000000003l-45.149091 45.149091a34.955636 34.955636 0 0 1-49.361455 0 34.955636 34.955636 0 0 1 0-49.384727L148.456727 81.45454500000005l-91.694545-91.671272a34.955636 34.955636 0 0 1 24.669091-59.601455c8.96 0 17.896727 3.397818 24.715636 10.216727l91.671273 91.694546 45.125818-45.149091c6.818909-6.818909 15.755636-10.216727 24.669091-10.216727a34.955636 34.955636 0 0 1 24.692364 59.601454L247.156364 81.45454500000005l128.861091 128.837819A359.074909 359.074909 0 0 1 605.090909 128c198.912 0 360.727273 161.815273 360.727273 360.727273S804.002909 849.454545 605.090909 849.454545"  horiz-adv-x="1024" />

    
    <glyph glyph-name="eye-close" unicode="&#58899;" d="M941.677 504.29c9.338 14.006 6.225 32.681-6.225 43.575-14.006 10.894-32.681 7.781-43.575-6.225-1.557-1.556-174.3-205.426-379.728-205.426-199.2 0-379.727 205.426-381.283 206.982-10.895 12.45-31.125 14.006-43.576 3.113-12.45-10.894-14.006-31.125-3.113-43.576 3.113-4.668 40.463-46.687 99.6-93.375l-79.37-82.482c-12.45-12.45-10.893-32.681 1.557-43.575 3.113-6.225 10.894-9.338 18.676-9.338 7.78 0 15.562 3.113 21.787 9.338l85.594 88.706c40.463-28.013 88.707-54.47 141.62-73.144l-32.682-110.495c-4.668-17.118 4.67-34.237 21.788-38.906h9.337c14.006 0 26.457 9.338 29.569 23.344l32.681 110.495c24.9-4.669 51.357-7.782 77.813-7.782s52.913 3.113 77.814 7.782l32.68-108.939c3.114-14.006 17.12-23.343 29.57-23.343 3.113 0 6.225 0 7.782 1.556 17.118 4.67 26.456 21.787 21.788 38.906L649.099 300.41999999999996c52.914 18.676 101.157 45.132 141.62 73.144l84.038-87.15c6.225-6.225 14.006-9.338 21.787-9.338 7.781 0 15.563 3.113 21.787 9.337 12.45 12.451 12.45 31.125 1.557 43.576l-79.37 82.481c63.808 46.689 101.16 91.82 101.16 91.82z"  horiz-adv-x="1024" />

    
    <glyph glyph-name="more" unicode="&#59152;" d="M288 439.136A63.264 63.264 0 0 1 256 448a64 64 0 1 1 0-128c11.712 0 22.56 3.392 32 8.896 19.04 11.072 32 31.488 32 55.104 0 23.648-12.96 44.064-32 55.136M544 439.136A63.264 63.264 0 0 1 512 448c-11.712 0-22.56-3.36-32-8.864-19.04-11.072-32-31.488-32-55.136 0-23.616 12.96-44.032 32-55.104 9.44-5.504 20.288-8.896 32-8.896s22.56 3.392 32 8.896c19.04 11.072 32 31.488 32 55.104 0 23.648-12.96 44.064-32 55.136M768 448c-11.712 0-22.56-3.392-32-8.864-19.04-11.104-32-31.52-32-55.136 0-23.616 12.96-44.032 32-55.136 9.44-5.472 20.288-8.864 32-8.864a64 64 0 1 1 0 128"  horiz-adv-x="1024" />

    
    <glyph glyph-name="facebook" unicode="&#59118;" d="M932.571429 841.142857H91.428571c-20.228571 0-36.571429-16.342857-36.571428-36.571428v-841.142858c0-20.228571 16.342857-36.571429 36.571428-36.571428h841.142858c20.228571 0 36.571429 16.342857 36.571428 36.571428V804.571429c0 20.228571-16.342857 36.571429-36.571428 36.571428z m-105.6-266.857143h-73.028572c-57.257143 0-68.342857-27.2-68.342857-67.2v-88.114285h136.685714l-17.828571-137.942858h-118.857143V-73.14285700000005H543.085714V280.91428599999995H423.885714V418.971429h119.2v101.714285c0 118.057143 72.114286 182.4 177.485715 182.4 50.514286 0 93.828571-3.771429 106.514285-5.485714v-123.314286z"  horiz-adv-x="1024" />

    
    <glyph glyph-name="message" unicode="&#59199;" d="M457.149337 384a54.857143 54.857143 0 1 1 109.714286 0 54.857143 54.857143 0 1 1-109.714286 0z m228.571429 0a54.857143 54.857143 0 1 1 109.714285 0 54.857143 54.857143 0 1 1-109.714285 0z m-457.142857 0a54.857143 54.857143 0 1 1 109.714285 0 54.857143 54.857143 0 1 1-109.714285 0z m755.657142 198.4c-25.828571 61.371429-62.857143 116.457143-110.057142 163.771429a507.828571 507.828571 0 0 1-163.771429 110.057142C647.549337 882.628571 580.80648 896 512.00648 896h-2.285714c-69.257143-0.342857-136.342857-14.057143-199.428572-41.028571a508.971429 508.971429 0 0 1-162.285714-110.285715c-46.742857-47.2-83.428571-102.057143-108.8-163.2-26.285714-63.314286-39.542857-130.628571-39.2-199.885714A513.6 513.6 0 0 1 54.863623 153.14285700000005v-173.714286a52.571429 52.571429 0 0 1 52.571428-52.571428h173.828572A513.6 513.6 0 0 1 509.720766-128h2.4c68.457143 0 134.857143 13.257143 197.371428 39.2a507.977143 507.977143 0 0 1 163.2 108.8c47.2 46.742857 84.342857 101.371429 110.285715 162.285714 26.971429 63.085714 40.685714 130.171429 41.028571 199.428572 0.342857 69.6-13.142857 137.142857-39.771429 200.685714z m-172.685714-500.571429C731.435051 2.51428599999997 625.149337-41.14285700000005 512.00648-41.14285700000005h-1.942857c-68.914286 0.342857-137.371429 17.485714-197.828572 49.714286l-9.6 5.142857H141.720766V174.62857099999997l-5.142857 9.6C104.349337 244.68571399999996 87.20648 313.14285700000005 86.863623 382.057143c-0.457143 113.942857 43.085714 220.914286 122.971428 301.485714 79.771429 80.571429 186.4 125.142857 300.342858 125.6h1.942857c57.142857 0 112.571429-11.085714 164.8-33.028571 50.971429-21.371429 96.685714-52.114286 136-91.428572 39.2-39.2 70.057143-85.028571 91.428571-136 22.171429-52.8 33.257143-108.8 33.028572-166.628571-0.685714-113.828571-45.371429-220.457143-125.828572-300.228572z"  horiz-adv-x="1024" />

    
    <glyph glyph-name="loading2" unicode="&#58944;" d="M96 384c0 19.33 15.67 35 35 35s35-15.67 35-35c0-191.09 154.91-346 346-346s346 154.91 346 346-154.91 346-346 346c-19.33 0-35 15.67-35 35s15.67 35 35 35c229.75 0 416-186.25 416-416S741.75-32 512-32 96 154.25 96 384z"  horiz-adv-x="1024" />

    
    <glyph glyph-name="loading1" unicode="&#58900;" d="M512 725.333333v-85.333333a256 256 0 1 0-223.573333-131.2L213.930667 550.4A341.333333 341.333333 0 1 1 512 725.333333z"  horiz-adv-x="1024" />

    
    <glyph glyph-name="radio-off" unicode="&#59232;" d="M512 744c96.2 0 186.6-37.4 254.6-105.4S872 480.2 872 384s-37.4-186.6-105.4-254.6S608.2 24 512 24c-96.2 0-186.6 37.4-254.6 105.4S152 287.79999999999995 152 384s37.4 186.6 105.4 254.6S415.8 744 512 744m0 56C282.2 800 96 613.8 96 384s186.2-416 416-416 416 186.2 416 416S741.8 800 512 800z"  horiz-adv-x="1024" />

    
    <glyph glyph-name="down" unicode="&#59120;" d="M163.446154 620.307692h697.107692c19.692308 0 33.476923-25.6 17.723077-43.323077L537.6 159.50769200000002c-11.815385-15.753846-37.415385-15.753846-49.230769 0L143.753846 576.9846150000001c-13.784615 17.723077-1.969231 43.323077 19.692308 43.323077z"  horiz-adv-x="1024" />

    
    </font>
</defs>
</svg>
