<?xml version="1.0" encoding="utf-8"?>
<!-- Generator: Adobe Illustrator 23.0.0, SVG Export Plug-In . SVG Version: 6.00 Build 0)  -->
<svg version="1.1" id="图层_1" xmlns="http://www.w3.org/2000/svg" xmlns:xlink="http://www.w3.org/1999/xlink" x="0px" y="0px"
	 viewBox="0 0 1300 740" style="enable-background:new 0 0 1300 740;" xml:space="preserve">
<style type="text/css">
	.st0{fill:#1977CC;}
	.st1{fill:#A2DFFF;}
	.st2{fill-rule:evenodd;clip-rule:evenodd;fill:#C5EDF9;}
	.st3{fill:#6EBDFF;}
	.st4{fill:#FFFFFF;}
	.st5{fill:#E0F4FC;}
	.st6{fill:#126FB5;}
	.st7{fill:#47A3E2;}
	.st8{fill:#C5EDF9;}
</style>
<g>
	<path class="st0" d="M1149.8,711.6H112.1c-0.9,0-1.6,0.7-1.6,1.6s0.7,1.6,1.6,1.6h1037.7c0.9,0,1.6-0.7,1.6-1.6
		S1150.7,711.6,1149.8,711.6z"/>
</g>
<g>
	<g>
		<g>
			<path class="st1" d="M898.6,186.7c-8.9-7.8-20.3-11.8-32.2-11c-11.8,0.7-22.7,6-30.5,14.9c-16.2,18.4-14.5,46.5,3.9,62.7
				c8.4,7.4,18.9,11.1,29.4,11.1c12.3,0,24.6-5.1,33.3-15c7.8-8.9,11.8-20.3,11-32.2C912.8,205.4,907.5,194.6,898.6,186.7z
				 M900.2,247.4c-8.2,9.2-19.5,14-31,14c-9.7,0-19.5-3.4-27.3-10.3c-17.1-15.1-18.7-41.2-3.6-58.3c7.3-8.3,17.4-13.2,28.4-13.9
				c0.9-0.1,1.8-0.1,2.6-0.1c10.1,0,19.7,3.6,27.3,10.3c8.3,7.3,13.2,17.4,13.9,28.4C911.1,228.5,907.5,239.1,900.2,247.4z"/>
			<path class="st1" d="M1004.1,180.3l-30.9-0.1c-2.7-6.9-6-13.6-10-19.9l20-22.3c0.5-0.6,0.5-1.4,0.1-2c-6-8.1-12.8-15.5-20.3-22.2
				c-7.6-6.7-15.9-12.6-24.7-17.5c-0.6-0.3-1.4-0.2-1.9,0.3l-21.9,21.7c-6.8-3-13.9-5.4-21.2-7l-1.6-29.9c0-0.7-0.6-1.3-1.3-1.5
				c-19.9-3-40.6-1.7-59.9,3.8c-0.7,0.2-1.1,0.8-1.1,1.5l-0.1,30.9c-7,2.7-13.6,6-19.9,10l-22.3-20c-0.6-0.5-1.4-0.5-2-0.1
				c-8.1,6-15.5,12.8-22.2,20.3c-6.7,7.6-12.6,15.9-17.5,24.7c-0.3,0.6-0.2,1.4,0.3,1.9l21.7,21.9c-3,6.8-5.4,13.9-7,21.2l-29.9,1.6
				c-0.7,0-1.3,0.6-1.5,1.3c-3,19.8-1.7,40.5,3.8,59.9c0.2,0.7,0.8,1.1,1.5,1.1l30.9,0.1c2.7,6.9,6,13.6,10,19.9l-20,22.3
				c-0.5,0.6-0.5,1.4-0.1,2c5.9,8.1,12.8,15.5,20.3,22.2c7.6,6.7,15.9,12.6,24.7,17.5c0.6,0.3,1.4,0.2,1.9-0.3l21.9-21.7
				c6.8,3,13.9,5.4,21.1,7l1.6,29.9c0,0.7,0.6,1.3,1.3,1.5c7,1,14,1.6,21.1,1.6c13.1,0,26.2-1.8,38.8-5.3c0.7-0.2,1.1-0.8,1.1-1.5
				l0.1-30.9c6.9-2.7,13.6-6,19.9-10l22.3,20c0.6,0.5,1.4,0.5,2,0.1c8.1-6,15.5-12.8,22.2-20.3c6.7-7.6,12.6-15.9,17.5-24.7
				c0.3-0.6,0.2-1.4-0.3-1.9L971,265.4c3-6.8,5.4-13.9,7-21.2l29.9-1.6c0.7,0,1.3-0.6,1.5-1.3c3-19.8,1.7-40.5-3.8-59.9
				C1005.4,180.7,1004.8,180.3,1004.1,180.3z M1006.5,239.5l-29.8,1.6c-0.7,0-1.3,0.5-1.4,1.2c-1.6,7.8-4.2,15.4-7.5,22.7
				c-0.3,0.6-0.1,1.3,0.3,1.7l21.6,21.9c-4.7,8.2-10.2,16-16.5,23.1c-6.2,7-13.2,13.5-20.7,19.1l-22.3-20c-0.5-0.5-1.3-0.5-1.9-0.1
				c-6.7,4.3-13.8,8-21.3,10.7c-0.6,0.2-1,0.8-1,1.5l-0.1,30.8c-18.1,5-37.5,6.2-56.2,3.6l-1.6-29.9c0-0.7-0.5-1.3-1.2-1.4
				c-7.8-1.6-15.4-4.1-22.7-7.5c-0.6-0.3-1.3-0.1-1.8,0.3l-21.9,21.7c-8.2-4.7-16-10.2-23.1-16.5c-7.1-6.2-13.5-13.2-19.1-20.7
				l19.9-22.3c0.5-0.5,0.5-1.3,0.1-1.9c-4.4-6.7-8-13.8-10.7-21.3c-0.2-0.6-0.8-1-1.5-1l-30.8-0.1c-5-18.2-6.2-37.5-3.6-56.1
				l29.9-1.6c0.7,0,1.3-0.5,1.4-1.2c1.6-7.8,4.1-15.4,7.5-22.7c0.3-0.6,0.1-1.3-0.3-1.7l-21.6-21.9c4.7-8.2,10.3-16,16.5-23.1
				c6.2-7,13.2-13.5,20.7-19.1l22.3,19.9c0.5,0.5,1.3,0.5,1.9,0.1c6.7-4.3,13.8-8,21.3-10.7c0.6-0.2,1-0.8,1-1.5l0.1-30.8
				c18.1-5,37.5-6.2,56.2-3.6l1.6,29.8c0,0.7,0.5,1.3,1.2,1.4c7.8,1.6,15.4,4.1,22.7,7.5c0.6,0.3,1.3,0.1,1.7-0.3l21.9-21.6
				c8.2,4.7,16,10.2,23.1,16.5c7,6.2,13.5,13.2,19.1,20.7L960.1,159c-0.5,0.5-0.5,1.3-0.1,1.9c4.4,6.7,8,13.8,10.7,21.3
				c0.2,0.6,0.8,1,1.5,1l30.8,0.1C1007.9,201.5,1009.1,220.9,1006.5,239.5z"/>
		</g>
	</g>
	<g>
		<g>
			<path class="st2" d="M716.8,271.6c-0.6-1.8-1.3-3.5-2.2-5.2l8.4-10.7c-3.1-4.4-6.9-8.1-11.3-11.1l-10.5,8.6
				c-1.6-0.9-3.4-1.6-5.2-2.1l-1.6-13.5c-2.6-0.5-5.2-0.7-7.9-0.7c-2.7,0-5.3,0.3-7.9,0.8l-1.3,13.5c-1.8,0.6-3.5,1.3-5.2,2.2
				l-10.7-8.4c-4.4,3.1-8.1,6.9-11.1,11.3l8.6,10.5c-0.9,1.6-1.6,3.4-2.1,5.2l-13.5,1.6c-0.4,2.6-0.7,5.2-0.7,7.9
				c0,2.7,0.3,5.3,0.8,7.9l13.5,1.3c0.6,1.8,1.3,3.5,2.2,5.2l-8.4,10.7c3.1,4.4,6.9,8.1,11.3,11.1l10.5-8.6c1.7,0.9,3.4,1.6,5.2,2.1
				l1.6,13.6c2.6,0.4,5.2,0.7,7.9,0.7c2.7,0,5.3-0.3,7.9-0.8l1.3-13.5c1.8-0.6,3.5-1.3,5.2-2.2l10.7,8.4c4.4-3.1,8.1-6.9,11.1-11.3
				l-8.6-10.5c0.9-1.7,1.6-3.4,2.1-5.2l13.5-1.6c0.5-2.6,0.7-5.2,0.7-7.9c0-2.7-0.3-5.3-0.8-7.9L716.8,271.6z M686.9,299.2
				c-9.9,0.1-18-7.9-18.1-17.9c-0.1-9.9,7.9-18,17.9-18.1c9.9-0.1,18,7.9,18.1,17.9C704.8,291,696.8,299.1,686.9,299.2z"/>
			<path class="st0" d="M686.8,261.6c0,0-0.1,0-0.1,0h0c-5.2,0-10.1,2.1-13.8,5.8c-3.7,3.7-5.7,8.6-5.6,13.9
				c0.1,10.7,8.8,19.4,19.5,19.4c0,0,0.1,0,0.1,0c5.2,0,10.1-2.1,13.8-5.8c3.7-3.7,5.7-8.6,5.6-13.9c0-5.2-2.1-10.1-5.8-13.8
				C696.8,263.6,691.9,261.6,686.8,261.6z M686.6,263.2L686.6,263.2L686.6,263.2z M698.5,292.7c-3.1,3.1-7.2,4.9-11.6,4.9
				c0,0-0.1,0-0.1,0c-9,0-16.4-7.3-16.4-16.3c0-4.4,1.6-8.5,4.7-11.6c3.1-3.1,7.2-4.9,11.6-4.9c0,0,0,0,0,0c0,0,0.1,0,0.1,0
				c4.3,0,8.4,1.7,11.5,4.7c3.1,3.1,4.9,7.2,4.9,11.6C703.2,285.4,701.5,289.6,698.5,292.7z"/>
			<path class="st0" d="M730.4,271.4l-12.5-1.2c-0.4-1.2-0.9-2.4-1.5-3.5l7.8-9.9c0.4-0.5,0.4-1.3,0-1.9c-3.2-4.5-7.1-8.4-11.7-11.5
				c-0.6-0.4-1.3-0.4-1.9,0.1l-9.7,8c-1.2-0.6-2.3-1-3.5-1.4l-1.5-12.6c-0.1-0.7-0.6-1.2-1.3-1.4c-2.7-0.5-5.5-0.7-8.2-0.7
				c-2.8,0-5.5,0.3-8.2,0.8c-0.7,0.1-1.2,0.7-1.3,1.4l-1.2,12.5c-1.2,0.4-2.4,0.9-3.5,1.5l-9.9-7.8c-0.5-0.4-1.3-0.4-1.9,0
				c-4.5,3.2-8.4,7.1-11.5,11.7c-0.4,0.6-0.4,1.3,0.1,1.9l8,9.7c-0.6,1.2-1,2.3-1.4,3.5L643,272c-0.7,0.1-1.2,0.6-1.4,1.3
				c-0.5,2.7-0.7,5.5-0.7,8.2c0,2.8,0.3,5.5,0.8,8.2c0.1,0.7,0.7,1.2,1.4,1.3l12.5,1.2c0.4,1.2,0.9,2.4,1.5,3.5l-7.8,9.9
				c-0.4,0.5-0.4,1.3,0,1.9c3.2,4.5,7.1,8.4,11.7,11.5c0.6,0.4,1.3,0.4,1.9-0.1l9.7-8c1.2,0.6,2.3,1,3.5,1.4l1.5,12.6
				c0.1,0.7,0.6,1.2,1.3,1.4c2.6,0.5,5.3,0.7,7.9,0.7c0.1,0,0.2,0,0.3,0c2.8,0,5.5-0.3,8.2-0.8c0.7-0.1,1.2-0.7,1.3-1.4l1.2-12.5
				c1.2-0.4,2.4-0.9,3.5-1.5l9.9,7.8c0.5,0.4,1.3,0.4,1.9,0c4.5-3.2,8.4-7.1,11.5-11.7c0.4-0.6,0.4-1.3-0.1-1.9l-8-9.7
				c0.6-1.2,1-2.3,1.5-3.5l12.6-1.5c0.7-0.1,1.2-0.6,1.4-1.3c0.5-2.7,0.7-5.4,0.7-8.2c0-2.8-0.3-5.5-0.8-8.2
				C731.7,272,731.1,271.5,730.4,271.4z M729,287.4l-12.4,1.5c-0.6,0.1-1.1,0.5-1.3,1.1c-0.5,1.7-1.2,3.3-2,4.9
				c-0.3,0.6-0.2,1.2,0.2,1.7l7.9,9.6c-2.6,3.5-5.6,6.7-9.1,9.3l-9.8-7.7c-0.5-0.4-1.2-0.4-1.7-0.2c-1.6,0.8-3.2,1.5-4.9,2.1
				c-0.6,0.2-1,0.7-1.1,1.3l-1.2,12.4c-2.1,0.3-4.3,0.5-6.5,0.5c-2.2,0-4.4-0.1-6.5-0.5l-1.5-12.4c-0.1-0.6-0.5-1.1-1.1-1.3
				c-1.7-0.5-3.3-1.2-4.9-2c-0.6-0.3-1.2-0.2-1.7,0.2l-9.6,7.9c-3.5-2.6-6.6-5.6-9.3-9.1l7.7-9.8c0.4-0.5,0.4-1.2,0.2-1.7
				c-0.9-1.6-1.5-3.3-2.1-4.9c-0.2-0.6-0.7-1-1.3-1.1l-12.3-1.2c-0.3-2.1-0.5-4.3-0.5-6.5c0-2.2,0.1-4.4,0.5-6.5l12.4-1.5
				c0.6-0.1,1.1-0.5,1.3-1.1c0.5-1.7,1.2-3.3,2-4.9c0.3-0.6,0.2-1.2-0.2-1.7l-7.9-9.6c2.6-3.5,5.6-6.6,9.1-9.2l9.8,7.7
				c0.5,0.4,1.2,0.4,1.7,0.2c1.6-0.8,3.2-1.5,4.9-2.1c0.6-0.2,1-0.7,1.1-1.3L680,239c2.1-0.3,4.3-0.5,6.5-0.5c2.2,0,4.4,0.1,6.5,0.5
				l1.5,12.4c0.1,0.6,0.5,1.1,1.1,1.3c1.7,0.5,3.3,1.2,4.9,2c0.6,0.3,1.2,0.2,1.7-0.2l9.6-7.9c3.5,2.6,6.7,5.6,9.3,9.1l-7.7,9.8
				c-0.4,0.5-0.4,1.2-0.2,1.7c0.8,1.6,1.5,3.2,2.1,4.9c0.2,0.6,0.7,1,1.3,1.1l12.3,1.2c0.3,2.1,0.5,4.3,0.5,6.5
				C729.5,283.1,729.3,285.3,729,287.4z"/>
		</g>
	</g>
	<g>
		<g>
			<path class="st3" d="M682.2,122.1c-8.1-2.5-16.6-1.6-24,2.3c-7.4,4-12.9,10.6-15.4,18.6c-5.1,16.6,4.3,34.3,20.9,39.4
				c3.1,0.9,6.2,1.4,9.2,1.4c13.5,0,26-8.8,30.2-22.3C708.3,144.8,698.9,127.2,682.2,122.1z M700.2,160.6
				c-3.7,12.2-15,20.1-27.2,20.1c-2.7,0-5.5-0.4-8.3-1.2c-15-4.6-23.4-20.5-18.9-35.5c2.2-7.3,7.1-13.2,13.8-16.8
				c4.2-2.2,8.7-3.3,13.3-3.3c2.8,0,5.6,0.4,8.3,1.3c0,0,0,0,0,0C696.3,129.7,704.8,145.6,700.2,160.6z"/>
			<path class="st3" d="M746.9,159.4l-19.5-8.3c-0.1-2.7-0.3-5.3-0.8-8l17.5-12c0.6-0.4,0.8-1.1,0.6-1.8c-2.8-8.7-7-16.7-12.7-23.8
				c-0.4-0.5-1.2-0.7-1.8-0.5l-19.6,7.9c-2-1.9-4-3.6-6.2-5.1l3.9-20.9c0.1-0.7-0.2-1.4-0.8-1.7c-4-2.1-8.2-3.8-12.6-5.1
				c-4.3-1.3-8.7-2.3-13.2-2.8c-0.7-0.1-1.4,0.3-1.6,0.9l-8.3,19.5c-2.7,0.1-5.3,0.3-8,0.8l-12-17.5c-0.4-0.6-1.1-0.8-1.8-0.6
				c-8.7,2.8-16.7,7-23.8,12.7c-0.5,0.4-0.7,1.2-0.5,1.8l7.9,19.6c-1.9,1.9-3.6,4-5.1,6.2l-20.9-3.9c-0.7-0.1-1.4,0.2-1.7,0.8
				c-2.1,4-3.8,8.2-5.1,12.6c-1.3,4.3-2.3,8.8-2.8,13.2c-0.1,0.7,0.3,1.3,0.9,1.6l19.5,8.3c0.1,2.7,0.3,5.3,0.8,8l-17.5,12
				c-0.6,0.4-0.8,1.1-0.6,1.8c2.8,8.7,7,16.7,12.7,23.8c0.4,0.5,1.2,0.7,1.8,0.5l19.6-7.9c1.9,1.9,4,3.6,6.2,5.1l-3.9,20.9
				c-0.1,0.7,0.2,1.4,0.8,1.7c4,2.1,8.2,3.8,12.6,5.1c4.3,1.3,8.8,2.3,13.2,2.8c0.1,0,0.1,0,0.2,0c0.6,0,1.2-0.4,1.4-1l8.3-19.5
				c2.7-0.1,5.3-0.3,8-0.8l12,17.5c0.4,0.6,1.1,0.8,1.8,0.6c8.7-2.8,16.7-7,23.8-12.7c0.5-0.4,0.7-1.2,0.5-1.8l-7.9-19.6
				c1.9-1.9,3.6-4,5.1-6.2l20.9,3.9c0.7,0.1,1.4-0.2,1.7-0.8c2.1-4,3.8-8.2,5.1-12.6c1.3-4.3,2.3-8.8,2.8-13.2
				C748,160.4,747.6,159.7,746.9,159.4z M742.1,173.4c-1.2,3.8-2.6,7.5-4.4,11l-20.7-3.9c-0.6-0.1-1.2,0.1-1.6,0.7
				c-1.8,2.6-3.8,5.1-6.1,7.3c-0.4,0.4-0.6,1.1-0.3,1.7l7.9,19.5c-6.3,4.8-13.3,8.5-20.8,11.1l-11.9-17.4c-0.4-0.5-1-0.8-1.6-0.7
				c-3.1,0.6-6.3,0.9-9.5,0.9c-0.6,0-1.2,0.4-1.4,1l-8.2,19.3c-3.9-0.5-7.8-1.4-11.5-2.5c-3.8-1.2-7.5-2.6-11-4.4l3.9-20.7
				c0.1-0.6-0.1-1.2-0.7-1.6c-2.6-1.8-5.1-3.8-7.3-6.1c-0.4-0.4-1.1-0.6-1.7-0.3l-19.5,7.9c-4.8-6.3-8.5-13.3-11.1-20.8l17.4-11.9
				c0.5-0.4,0.8-1,0.7-1.6c-0.6-3.1-0.9-6.3-0.9-9.4c0-0.6-0.4-1.2-1-1.4l-19.3-8.2c0.5-3.9,1.4-7.7,2.5-11.5
				c1.2-3.8,2.6-7.5,4.4-11l20.7,3.9c0.6,0.1,1.2-0.1,1.6-0.7c1.8-2.6,3.8-5,6.1-7.3c0.4-0.4,0.6-1.1,0.3-1.7l-7.9-19.5
				c6.3-4.8,13.3-8.5,20.8-11.1l11.9,17.4c0.4,0.5,1,0.8,1.6,0.7c3.1-0.6,6.3-0.9,9.4-0.9c0.6,0,1.2-0.4,1.4-1l8.2-19.3
				c3.9,0.5,7.8,1.4,11.5,2.5c3.8,1.2,7.5,2.6,11,4.4l-3.9,20.7c-0.1,0.6,0.1,1.2,0.7,1.6c2.6,1.7,5,3.8,7.3,6.1
				c0.4,0.4,1.1,0.6,1.7,0.3l19.5-7.9c4.8,6.3,8.5,13.3,11.1,20.8l-17.4,11.9c-0.5,0.4-0.8,1-0.7,1.6c0.6,3.1,0.9,6.3,0.9,9.5
				c0,0.6,0.4,1.2,1,1.4l19.3,8.2C744.1,165.7,743.3,169.6,742.1,173.4z"/>
		</g>
	</g>
	<g>
		<g>
			<path class="st1" d="M1235.1,182.9c-0.2-0.7-0.8-1.1-1.5-1.1l-18,0.6c-1.7-3.8-3.7-7.5-6.1-10.9l11.1-13.4c0.5-0.6,0.5-1.4,0-2
				c-7.5-9.4-17.2-17.3-27.9-22.7c-0.6-0.3-1.4-0.2-1.9,0.3l-12.3,13.1c-3.9-1.5-7.9-2.7-12-3.5l-1.6-17.3c-0.1-0.7-0.6-1.3-1.4-1.4
				c-6-0.7-12.1-0.7-18.1-0.1c-6,0.6-12,1.9-17.8,3.7c-0.7,0.2-1.1,0.8-1.1,1.5l0.6,18c-3.8,1.7-7.5,3.7-10.9,6.1l-13.4-11.1
				c-0.6-0.5-1.4-0.5-2,0c-9.4,7.5-17.3,17.2-22.7,27.9c-0.3,0.6-0.2,1.4,0.3,1.9l13.1,12.3c-1.5,3.9-2.7,7.9-3.5,12l-17.3,1.6
				c-0.7,0.1-1.3,0.6-1.4,1.4c-0.7,6-0.7,12.1-0.1,18.1c0.6,6,1.9,12,3.7,17.8c0.2,0.7,0.8,1.1,1.5,1.1l18-0.6
				c1.7,3.8,3.7,7.5,6.1,10.9l-11.1,13.4c-0.5,0.6-0.5,1.4,0,2c7.5,9.4,17.2,17.3,27.9,22.7c0.6,0.3,1.4,0.2,1.9-0.3l12.3-13.1
				c3.9,1.5,7.9,2.7,12,3.5l1.6,17.3c0.1,0.7,0.6,1.3,1.4,1.4c3.1,0.3,6.2,0.5,9.4,0.5c2.9,0,5.8-0.1,8.7-0.4c6-0.6,12-1.9,17.8-3.7
				c0.7-0.2,1.1-0.8,1.1-1.5l-0.6-18c3.8-1.7,7.5-3.7,10.9-6.1l13.4,11.1c0.6,0.5,1.4,0.5,2,0c9.4-7.5,17.3-17.2,22.7-27.9
				c0.3-0.6,0.2-1.4-0.3-1.9l-13.1-12.3c1.5-3.9,2.7-7.9,3.5-12l17.3-1.6c0.7-0.1,1.3-0.6,1.4-1.4c0.7-6,0.7-12.1,0.1-18.1
				C1238.3,194.6,1237,188.6,1235.1,182.9z M1235.8,217.1l-17.2,1.6c-0.7,0.1-1.3,0.6-1.4,1.3c-0.8,4.6-2.1,9.2-3.9,13.5
				c-0.2,0.6-0.1,1.3,0.4,1.7l13.1,12.2c-5,9.5-12,18.2-20.4,25.1l-13.3-11c-0.5-0.5-1.3-0.5-1.9-0.1c-3.8,2.7-8,5-12.3,6.8
				c-0.6,0.3-1,0.8-1,1.5l0.6,17.8c-5.2,1.6-10.6,2.7-16,3.3c-5.4,0.5-10.8,0.6-16.1,0.1l-1.6-17.2c-0.1-0.7-0.6-1.3-1.3-1.4
				c-4.6-0.8-9.2-2.1-13.5-3.9c-0.6-0.2-1.3-0.1-1.7,0.4l-12.2,13.1c-9.6-5-18.2-12-25.1-20.4l11-13.3c0.5-0.5,0.5-1.3,0.1-1.9
				c-2.7-3.8-5-8-6.8-12.3c-0.3-0.6-0.9-1-1.5-1l-17.8,0.6c-1.6-5.2-2.7-10.6-3.3-16c-0.5-5.4-0.6-10.8-0.1-16.1l17.2-1.6
				c0.7-0.1,1.3-0.6,1.4-1.3c0.8-4.6,2.1-9.2,3.9-13.5c0.2-0.6,0.1-1.3-0.4-1.7l-13-12.2c5-9.5,12-18.2,20.4-25.1l13.3,11
				c0.5,0.5,1.3,0.5,1.9,0.1c3.8-2.7,8-5,12.3-6.8c0.6-0.3,1-0.8,1-1.5l-0.6-17.8c5.2-1.6,10.6-2.7,16-3.3
				c5.4-0.5,10.8-0.6,16.1-0.1l1.6,17.2c0.1,0.7,0.6,1.3,1.3,1.4c4.6,0.8,9.2,2.1,13.5,3.9c0.6,0.2,1.3,0.1,1.7-0.4l12.2-13
				c9.5,5,18.2,12,25.1,20.4l-11,13.3c-0.5,0.5-0.5,1.3-0.1,1.9c2.7,3.8,5,8,6.8,12.3c0.3,0.6,0.8,1,1.5,1l17.8-0.6
				c1.6,5.2,2.7,10.6,3.3,16C1236.3,206.3,1236.4,211.7,1235.8,217.1z"/>
			<path class="st1" d="M1151.5,182.3c-14.9,1.5-25.7,14.8-24.2,29.7c1.4,13.9,13.2,24.4,26.9,24.4c0.9,0,1.8,0,2.8-0.1
				c14.9-1.5,25.7-14.8,24.2-29.7C1179.7,191.7,1166.3,180.8,1151.5,182.3z M1156.7,233.1c-0.8,0.1-1.6,0.1-2.5,0.1
				c-12.1,0-22.6-9.2-23.8-21.5c-1.3-13.2,8.3-24.9,21.4-26.3l-0.2-1.6l0.2,1.6c13.2-1.3,24.9,8.3,26.3,21.4
				C1179.4,220,1169.8,231.8,1156.7,233.1z"/>
		</g>
	</g>
	<g>
		<path class="st3" d="M1129.7,311l-7.1-0.4c-0.2-0.5-0.4-0.9-0.7-1.4l4.2-5.8c0.4-0.6,0.4-1.3,0-1.9c-1-1.3-2.2-2.6-3.4-3.7
			c-1.2-1.1-2.6-2.2-4-3c-0.6-0.4-1.3-0.3-1.9,0.2l-5.3,4.7c-0.5-0.2-1-0.4-1.5-0.5l-1.1-7.1c-0.1-0.7-0.7-1.2-1.3-1.3
			c-3.3-0.4-6.7-0.3-10,0.5c-0.7,0.2-1.2,0.7-1.2,1.4l-0.4,7.1c-0.5,0.2-0.9,0.4-1.4,0.7l-5.8-4.2c-0.6-0.4-1.3-0.4-1.9,0
			c-1.3,1-2.6,2.2-3.7,3.4c-1.1,1.2-2.2,2.6-3,4c-0.4,0.6-0.3,1.3,0.2,1.9l4.7,5.3c-0.2,0.5-0.4,1-0.5,1.5l-7.1,1.1
			c-0.7,0.1-1.2,0.7-1.3,1.3c-0.4,3.3-0.3,6.7,0.5,10c0.2,0.7,0.7,1.2,1.4,1.2l7.1,0.4c0.2,0.5,0.4,0.9,0.7,1.4l-4.2,5.8
			c-0.4,0.6-0.4,1.3,0,1.9c1,1.3,2.2,2.6,3.4,3.7c1.2,1.1,2.6,2.1,4,3c0.6,0.4,1.3,0.3,1.9-0.2l5.3-4.7c0.5,0.2,1,0.4,1.5,0.5
			l1.1,7.1c0.1,0.7,0.7,1.2,1.3,1.3c1.2,0.2,2.5,0.2,3.7,0.2c2.1,0,4.2-0.2,6.3-0.7c0.7-0.2,1.2-0.7,1.2-1.4l0.4-7.1
			c0.5-0.2,0.9-0.4,1.4-0.7l5.8,4.2c0.6,0.4,1.3,0.4,1.9,0c1.3-1,2.6-2.2,3.7-3.4c1.1-1.2,2.1-2.6,3-4c0.4-0.6,0.3-1.3-0.2-1.9
			l-4.7-5.3c0.2-0.5,0.4-1,0.5-1.5l7.1-1.1c0.7-0.1,1.2-0.7,1.3-1.3c0.4-3.3,0.3-6.7-0.5-10C1130.9,311.6,1130.4,311.1,1129.7,311z
			 M1128.6,320.7l-6.9,1.1c-0.6,0.1-1.1,0.5-1.3,1.1c-0.3,1-0.6,2-1,2.9c-0.3,0.6-0.2,1.2,0.2,1.7l4.6,5.2c-0.6,0.9-1.3,1.8-2.1,2.6
			c-0.7,0.8-1.5,1.6-2.4,2.3l-5.6-4.1c-0.5-0.4-1.2-0.4-1.7-0.1c-0.9,0.5-1.8,0.9-2.8,1.3c-0.6,0.2-1,0.8-1,1.4l-0.4,6.9
			c-2.2,0.4-4.4,0.5-6.6,0.3l-1.1-6.9c-0.1-0.6-0.5-1.1-1.1-1.3c-1-0.3-2-0.6-2.9-1c-0.6-0.3-1.2-0.2-1.7,0.2l-5.2,4.6
			c-0.9-0.6-1.8-1.3-2.6-2.1c-0.8-0.7-1.6-1.6-2.3-2.4l4.1-5.6c0.4-0.5,0.4-1.2,0.1-1.7c-0.5-0.9-0.9-1.8-1.3-2.8
			c-0.2-0.6-0.8-1-1.4-1l-6.9-0.4c-0.4-2.2-0.5-4.4-0.3-6.6l6.9-1.1c0.6-0.1,1.1-0.5,1.3-1.1c0.3-1,0.6-2,1-2.9
			c0.3-0.6,0.2-1.2-0.2-1.7l-4.6-5.2c0.6-0.9,1.3-1.8,2.1-2.6c0.7-0.8,1.6-1.6,2.4-2.3l5.6,4.1c0.5,0.4,1.2,0.4,1.7,0.1
			c0.9-0.5,1.8-0.9,2.8-1.3c0.6-0.2,1-0.8,1-1.4l0.4-6.9c2.2-0.4,4.4-0.5,6.6-0.3l1.1,6.9c0.1,0.6,0.5,1.1,1.1,1.3
			c1,0.3,2,0.6,2.9,1c0.6,0.3,1.2,0.2,1.7-0.2l5.2-4.6c0.9,0.6,1.8,1.3,2.6,2.1c0.8,0.8,1.6,1.6,2.3,2.4l-4.1,5.6
			c-0.4,0.5-0.4,1.2-0.1,1.7c0.5,0.9,0.9,1.8,1.3,2.8c0.2,0.6,0.8,1,1.4,1l6.9,0.4C1128.7,316.3,1128.8,318.5,1128.6,320.7z"/>
		<path class="st3" d="M1112.1,309.4c-2.4-2.2-5.6-3.3-8.8-3.2c-3.3,0.2-6.3,1.6-8.5,4c-2.2,2.4-3.3,5.6-3.2,8.8
			c0.2,3.3,1.6,6.3,4,8.5c2.4,2.1,5.3,3.2,8.3,3.2c3.3,0,6.7-1.3,9.1-4c2.2-2.4,3.3-5.6,3.2-8.8
			C1116,314.7,1114.6,311.6,1112.1,309.4z M1095.9,311.3L1095.9,311.3L1095.9,311.3z M1110.6,324.7c-3.4,3.7-9.2,4-12.9,0.6
			c-1.8-1.6-2.9-3.9-3-6.3c-0.1-2.4,0.7-4.8,2.4-6.6c0,0,0,0,0,0c1.6-1.8,3.9-2.9,6.3-3c0.1,0,0.3,0,0.4,0c2.3,0,4.5,0.8,6.2,2.4
			c1.8,1.6,2.9,3.9,3,6.3C1113.1,320.5,1112.3,322.9,1110.6,324.7z"/>
	</g>
	<g>
		<g>
			<g>
				<path class="st2" d="M1071.6,270.7l11-7.4c-0.8-2.5-1.8-4.9-3-7.3c-1.2-2.4-2.7-4.6-4.3-6.6l-12.3,4.8c-1.4-1.4-2.9-2.7-4.5-3.8
					l2.5-13c-4.7-2.5-9.8-4.1-15-4.7l-5.3,12.1c-1.9,0-3.9,0.1-5.8,0.5l-7.4-11c-2.5,0.8-4.9,1.8-7.3,3c-2.4,1.2-4.6,2.7-6.6,4.3
					l4.8,12.3c-1.4,1.4-2.7,2.9-3.8,4.5l-13-2.5c-2.5,4.7-4.1,9.8-4.7,15l12.1,5.3c0,1.9,0.1,3.9,0.5,5.8l-11,7.4
					c0.8,2.5,1.8,4.9,3,7.3c1.2,2.4,2.7,4.6,4.3,6.6l12.3-4.8c1.4,1.4,2.9,2.7,4.5,3.8l-2.5,13c4.7,2.5,9.8,4.1,15,4.7l5.3-12.1
					c1.9,0,3.9-0.1,5.8-0.5l7.4,11c2.5-0.8,4.9-1.8,7.3-3c2.4-1.2,4.6-2.7,6.6-4.2l-4.8-12.3c1.4-1.4,2.7-2.9,3.8-4.5l13,2.5
					c2.5-4.7,4.1-9.8,4.7-15l-12.1-5.3C1072.1,274.6,1071.9,272.6,1071.6,270.7z M1048.8,292.1c-8.8,4.6-19.5,1.2-24.1-7.6
					c-4.6-8.7-1.2-19.5,7.6-24.1c8.7-4.6,19.5-1.2,24.1,7.6C1061,276.8,1057.6,287.6,1048.8,292.1z"/>
				<path class="st0" d="M1031.6,259.1c-4.6,2.4-8,6.4-9.6,11.4c-1.6,5-1.1,10.2,1.3,14.8c3.5,6.6,10.2,10.4,17.3,10.4
					c3,0,6.1-0.7,8.9-2.2c9.5-5,13.2-16.7,8.2-26.2C1052.8,257.8,1041.1,254.1,1031.6,259.1z M1032.3,260.4L1032.3,260.4
					L1032.3,260.4z M1048.1,290.7c-8,4.2-17.8,1-22-6.9c-2-3.9-2.4-8.3-1.1-12.4c1.3-4.2,4.2-7.5,8-9.6h0c2.4-1.3,5-1.8,7.5-1.8
					c5.9,0,11.6,3.2,14.5,8.8C1059.2,276.7,1056.1,286.6,1048.1,290.7z"/>
				<path class="st0" d="M1084.8,280.3l-11.2-4.9c0-1.4-0.1-2.7-0.3-4l10.2-6.9c0.6-0.4,0.8-1.1,0.6-1.8c-0.8-2.6-1.9-5.1-3.1-7.6
					c-1.3-2.4-2.7-4.7-4.4-6.9c-0.4-0.5-1.2-0.8-1.8-0.5l-11.4,4.5c-1-0.9-2-1.8-3.1-2.6l2.3-12c0.1-0.7-0.2-1.4-0.8-1.7
					c-4.9-2.6-10.1-4.2-15.5-4.9c-0.7-0.1-1.4,0.3-1.6,0.9l-4.9,11.2c-1.4,0-2.7,0.1-4,0.3l-6.9-10.2c-0.4-0.6-1.1-0.8-1.8-0.6
					c-2.6,0.8-5.2,1.9-7.6,3.1c-2.4,1.3-4.7,2.7-6.9,4.4c-0.5,0.4-0.8,1.2-0.5,1.8l4.5,11.4c-0.9,1-1.8,2-2.6,3.1l-12-2.3
					c-0.7-0.1-1.4,0.2-1.7,0.8c-2.6,4.9-4.2,10.1-4.9,15.5c-0.1,0.7,0.3,1.4,0.9,1.6l11.2,4.9c0,1.4,0.1,2.7,0.3,4l-10.2,6.8
					c-0.6,0.4-0.8,1.1-0.6,1.8c0.8,2.6,1.9,5.2,3.1,7.6c1.3,2.4,2.7,4.7,4.4,6.9c0.4,0.5,1.2,0.8,1.8,0.5l11.4-4.5
					c1,0.9,2,1.8,3.1,2.6l-2.3,12c-0.1,0.7,0.2,1.4,0.8,1.7c4.9,2.6,10.1,4.2,15.5,4.9c0.1,0,0.1,0,0.2,0c0.6,0,1.2-0.4,1.4-0.9
					l4.9-11.2c1.4,0,2.7-0.1,4-0.3l6.9,10.2c0.4,0.6,1.1,0.8,1.8,0.6c2.6-0.8,5.2-1.9,7.6-3.1c2.4-1.3,4.7-2.7,6.9-4.4
					c0.5-0.4,0.8-1.2,0.5-1.8l-4.5-11.4c0.9-1,1.8-2,2.6-3.1l12,2.3c0.7,0.1,1.4-0.2,1.7-0.8c2.6-4.9,4.2-10.1,4.9-15.6
					C1085.8,281.3,1085.5,280.6,1084.8,280.3z M1078.6,295l-11.9-2.3c-0.6-0.1-1.2,0.1-1.6,0.6c-1.1,1.5-2.3,3-3.6,4.2
					c-0.4,0.4-0.6,1.1-0.4,1.7l4.4,11.2c-1.7,1.3-3.6,2.4-5.5,3.4c-1.9,1-3.9,1.9-6,2.6l-6.8-10c-0.3-0.5-1-0.8-1.6-0.7
					c-1.8,0.3-3.7,0.5-5.5,0.5c0,0,0,0,0,0c-0.6,0-1.2,0.4-1.4,0.9l-4.8,11c-4.3-0.7-8.4-2-12.3-3.9l2.3-11.9
					c0.1-0.6-0.1-1.2-0.6-1.6c-1.5-1.1-2.9-2.3-4.2-3.6c-0.4-0.4-1.1-0.6-1.7-0.4l-11.2,4.4c-1.3-1.7-2.4-3.6-3.4-5.5
					c-1-1.9-1.9-3.9-2.6-6l10-6.7c0.5-0.3,0.8-1,0.7-1.6c-0.3-1.8-0.5-3.7-0.5-5.5c0-0.6-0.4-1.2-0.9-1.4l-11-4.8
					c0.7-4.3,2-8.4,3.9-12.3l11.9,2.3c0.6,0.1,1.2-0.1,1.6-0.6c1.1-1.5,2.3-2.9,3.6-4.2c0.4-0.4,0.6-1.1,0.4-1.7l-4.4-11.2
					c1.7-1.3,3.6-2.4,5.5-3.4c1.9-1,3.9-1.9,6-2.5l6.8,10c0.3,0.5,1,0.8,1.6,0.7c1.8-0.3,3.6-0.5,5.5-0.5c0,0,0,0,0,0
					c0.6,0,1.2-0.4,1.4-0.9l4.8-11c4.3,0.7,8.4,2,12.3,3.9l-2.3,11.9c-0.1,0.6,0.1,1.2,0.6,1.6c1.5,1.1,2.9,2.3,4.2,3.6
					c0.4,0.4,1.1,0.6,1.7,0.4l11.2-4.4c1.3,1.7,2.4,3.6,3.4,5.5c1,1.9,1.9,3.9,2.6,6l-10,6.8c-0.5,0.3-0.8,1-0.7,1.6
					c0.3,1.8,0.5,3.7,0.5,5.5c0,0.6,0.4,1.2,0.9,1.4l11,4.8C1081.8,287,1080.5,291.2,1078.6,295z"/>
			</g>
		</g>
	</g>
	<g>
		<g>
			<path class="st4" d="M1094.2,104.8l-14.1-5.3c-0.1-1.8-0.4-3.6-0.7-5.4l12.1-9.1c0.5-0.4,0.7-1,0.5-1.6c-1.1-3.1-2.5-6.1-4.2-8.9
				c-1.7-2.8-3.6-5.5-5.7-8c-0.4-0.5-1.1-0.6-1.7-0.4l-13.8,6.2c-1.4-1.2-2.8-2.3-4.3-3.3l2.2-15c0.1-0.6-0.2-1.2-0.8-1.5
				c-6-2.8-12.4-4.5-18.9-5c-0.6-0.1-1.2,0.3-1.5,0.9l-5.3,14.1c-1.8,0.1-3.6,0.4-5.4,0.7l-9.1-12.1c-0.4-0.5-1-0.7-1.6-0.5
				c-3.1,1.1-6.1,2.5-8.9,4.2c-2.8,1.6-5.5,3.5-8,5.7c-0.5,0.4-0.6,1.1-0.4,1.7l6.2,13.8c-1.2,1.4-2.3,2.8-3.3,4.3l-15-2.2
				c-0.6-0.1-1.2,0.2-1.5,0.8c-2.8,6-4.5,12.4-5,18.9c0,0.6,0.3,1.2,0.9,1.5l14.1,5.3c0.1,1.8,0.4,3.6,0.7,5.4l-12.1,9
				c-0.5,0.4-0.7,1-0.5,1.6c1.1,3.1,2.5,6.1,4.2,8.9c1.7,2.8,3.6,5.5,5.7,8c0.4,0.5,1.1,0.6,1.7,0.4l13.8-6.2
				c1.4,1.2,2.8,2.3,4.3,3.3l-2.2,15c-0.1,0.6,0.2,1.2,0.8,1.5c6,2.8,12.4,4.5,18.9,5c0,0,0.1,0,0.1,0c0.6,0,1.1-0.4,1.3-0.9
				l5.3-14.1c1.8-0.1,3.6-0.4,5.4-0.7l9,12.1c0.4,0.5,1,0.7,1.6,0.5c3.1-1.1,6.1-2.5,8.9-4.2c2.8-1.6,5.5-3.6,8-5.7
				c0.5-0.4,0.6-1.1,0.4-1.7l-6.2-13.8c1.2-1.4,2.3-2.8,3.3-4.3l15,2.2c0.6,0.1,1.2-0.2,1.5-0.8c2.8-6,4.5-12.4,5-18.9
				C1095.2,105.6,1094.8,105,1094.2,104.8z M1088,123l-14.8-2.2c-0.6-0.1-1.1,0.2-1.4,0.7c-1.2,1.9-2.6,3.8-4.1,5.4
				c-0.4,0.4-0.5,1-0.3,1.6l6.1,13.6c-2.1,1.7-4.4,3.3-6.8,4.7c-2.4,1.4-4.9,2.6-7.4,3.6l-9-12c-0.3-0.5-0.9-0.7-1.5-0.5
				c-2.2,0.5-4.5,0.8-6.7,0.9c-0.6,0-1.1,0.4-1.3,0.9l-5.3,14c-5.5-0.5-10.8-2-15.9-4.2l2.2-14.8c0.1-0.6-0.2-1.1-0.7-1.4
				c-1.9-1.2-3.7-2.6-5.4-4.1c-0.4-0.4-1-0.5-1.6-0.3l-13.6,6.1c-1.7-2.1-3.3-4.4-4.7-6.8c-1.4-2.4-2.6-4.9-3.6-7.5l12-9
				c0.5-0.3,0.7-0.9,0.5-1.5c-0.5-2.2-0.8-4.5-0.9-6.7c0-0.6-0.4-1.1-0.9-1.3l-14-5.3c0.5-5.5,2-10.8,4.2-15.9l14.8,2.2
				c0.6,0.1,1.1-0.2,1.4-0.7c1.2-1.9,2.6-3.7,4.1-5.4c0.4-0.4,0.5-1,0.3-1.6l-6.1-13.6c2.1-1.7,4.4-3.3,6.8-4.7
				c2.4-1.4,4.9-2.6,7.4-3.6l9,12c0.3,0.5,0.9,0.7,1.5,0.5c2.2-0.5,4.4-0.8,6.7-0.9c0.6,0,1.1-0.4,1.3-0.9l5.3-14
				c5.5,0.5,10.8,2,15.9,4.2l-2.2,14.8c-0.1,0.6,0.2,1.1,0.7,1.4c1.9,1.2,3.7,2.6,5.4,4.1c0.4,0.4,1,0.5,1.6,0.3l13.6-6.1
				c1.7,2.1,3.3,4.4,4.7,6.8c1.4,2.4,2.6,4.9,3.6,7.5l-12,9c-0.5,0.3-0.7,0.9-0.5,1.5c0.5,2.2,0.8,4.5,0.9,6.7
				c0,0.6,0.4,1.1,0.9,1.3l14,5.3C1091.6,112.6,1090.2,117.9,1088,123z"/>
			<path class="st4" d="M1029,82.1c-5.3,3.1-9.1,8.1-10.7,14.1c-1.6,6-0.7,12.2,2.4,17.5c4.3,7.3,12,11.4,20,11.4
				c3.9,0,7.9-1,11.6-3.1c11-6.4,14.7-20.6,8.3-31.6C1054.1,79.4,1040,75.7,1029,82.1z M1029.7,83.3L1029.7,83.3L1029.7,83.3z
				 M1050.8,119.4c-9.6,5.6-22,2.3-27.6-7.3c-2.7-4.7-3.5-10.1-2.1-15.3c1.4-5.2,4.7-9.6,9.4-12.3c3.2-1.9,6.7-2.7,10.1-2.7
				c7,0,13.7,3.6,17.5,10C1063.7,101.4,1060.4,113.8,1050.8,119.4z"/>
		</g>
	</g>
	<path class="st1" d="M1154.2,170.4c-21.5,0-38.9,17.5-38.9,38.9s17.5,38.9,38.9,38.9s38.9-17.5,38.9-38.9
		S1175.7,170.4,1154.2,170.4z M1154.2,245.1c-19.7,0-35.8-16.1-35.8-35.8s16.1-35.8,35.8-35.8s35.8,16.1,35.8,35.8
		S1174,245.1,1154.2,245.1z"/>
	<path class="st3" d="M673,105.9c-25.5,0-46.3,20.8-46.3,46.3c0,25.5,20.8,46.3,46.3,46.3s46.3-20.8,46.3-46.3
		C719.3,126.7,698.6,105.9,673,105.9z M673,195.4c-23.8,0-43.2-19.4-43.2-43.2s19.4-43.2,43.2-43.2s43.2,19.4,43.2,43.2
		S696.8,195.4,673,195.4z"/>
	<path class="st1" d="M869.2,152.3c-18.1,0-35.1,7-47.9,19.8c-12.8,12.8-19.9,29.8-19.9,47.9c0,18.1,7,35.1,19.9,47.9
		c12.8,12.8,29.8,19.9,47.9,19.9s35.1-7,47.9-19.9c12.8-12.8,19.9-29.8,19.9-47.9c0-18.1-7-35.1-19.9-47.9
		C904.3,159.3,887.3,152.3,869.2,152.3z M914.9,265.8c-12.2,12.2-28.4,18.9-45.7,18.9c-17.3,0-33.5-6.7-45.7-18.9
		c-12.2-12.2-18.9-28.4-18.9-45.7c0-17.3,6.7-33.5,18.9-45.7c12.2-12.2,28.4-18.9,45.7-18.9c17.3,0,33.5,6.7,45.7,18.9
		c12.2,12.2,18.9,28.4,18.9,45.7C933.9,237.3,927.1,253.6,914.9,265.8z"/>
	<path class="st1" d="M869.2,146c-19.8,0-38.4,7.7-52.3,21.7c-14,14-21.7,32.6-21.7,52.3c0,19.8,7.7,38.4,21.7,52.3
		c14,14,32.6,21.7,52.3,21.7s38.4-7.7,52.3-21.7s21.7-32.6,21.7-52.3c0-19.8-7.7-38.4-21.7-52.3C907.6,153.7,889,146,869.2,146z
		 M919.3,270.2c-13.4,13.4-31.2,20.8-50.1,20.8c-18.9,0-36.7-7.4-50.1-20.8S798.3,239,798.3,220c0-18.9,7.4-36.7,20.8-50.1
		s31.2-20.8,50.1-20.8c18.9,0,36.7,7.4,50.1,20.8c13.4,13.4,20.8,31.2,20.8,50.1C940.1,239,932.7,256.8,919.3,270.2z"/>
</g>
<g>
	<g>
		<g>
			<g>
				<polygon class="st5" points="666.5,586.3 633.9,586.3 570.3,586.3 523.1,699.3 633.9,699.3 666.5,699.3 777.3,699.3 730,586.3 
									"/>
				<path class="st6" d="M732.9,585.1c-0.5-1.2-1.6-1.9-2.9-1.9h-63.5h-32.6h-63.5c-1.2,0-2.4,0.7-2.9,1.9l-47.3,113
					c-0.4,1-0.3,2,0.3,2.9c0.6,0.9,1.5,1.4,2.6,1.4h110.8h32.6h110.8c1,0,2-0.5,2.6-1.4c0.6-0.9,0.7-2,0.3-2.9L732.9,585.1z
					 M666.5,699.3h-32.6H523.1l47.3-113h63.5h32.6H730l47.3,113H666.5z"/>
			</g>
		</g>
		<polygon class="st1" points="666.5,586.3 633.9,586.3 570.3,586.3 548.9,637.7 751.5,637.7 730,586.3 		"/>
		<g>
			<path class="st5" d="M780.7,668.9h-261c-7.5,0-13.5,7.3-13.5,16.4v27.8h288.1v-27.8C794.2,676.2,788.2,668.9,780.7,668.9z"/>
			<path class="st6" d="M780.7,667.3h-261c-8.3,0-15.1,8-15.1,17.9v27.8c0,0.9,0.7,1.5,1.5,1.5h288.1c0.9,0,1.5-0.7,1.5-1.5v-27.8
				C795.8,675.4,789,667.3,780.7,667.3z M792.7,711.6h-285v-26.3c0-8.2,5.4-14.9,12-14.9h261c6.6,0,12,6.7,12,14.9V711.6z"/>
		</g>
		<g>
			<path class="st4" d="M926.1,184.6H374.3c-11.2,0-20.3,9.1-20.3,20.3v40.6v300.3v40.6c0,11.2,9.1,20.3,20.3,20.3h551.9
				c11.2,0,20.3-9.1,20.3-20.3v-40.6V245.5v-40.6C946.4,193.7,937.3,184.6,926.1,184.6z"/>
			<path class="st0" d="M926.1,181.5H374.3c-12.9,0-23.4,10.5-23.4,23.4v40.6v300.3v40.6c0,12.9,10.5,23.4,23.4,23.4h551.9
				c12.9,0,23.4-10.5,23.4-23.4v-40.6V245.5v-40.6C949.5,192,939,181.5,926.1,181.5z M946.4,245.5v300.3v40.6
				c0,11.2-9.1,20.3-20.3,20.3H374.3c-11.2,0-20.3-9.1-20.3-20.3v-40.6V245.5v-40.6c0-11.2,9.1-20.3,20.3-20.3h551.9
				c11.2,0,20.3,9.1,20.3,20.3V245.5z"/>
		</g>
		<g>
			<path class="st5" d="M925,192.3H375.3c-6.9,0-12.4,5.6-12.4,12.4v46v289.8v46c0,6.9,5.6,12.4,12.4,12.4H925
				c6.9,0,12.4-5.6,12.4-12.4v-46V250.7v-46C937.5,197.8,931.9,192.3,925,192.3z"/>
			<path class="st6" d="M925,189.2H375.3c-8.6,0-15.5,7-15.5,15.5v46v289.8v46c0,8.6,7,15.5,15.5,15.5H925c8.6,0,15.5-7,15.5-15.5
				v-46V250.7v-46C940.6,196.1,933.6,189.2,925,189.2z M937.5,250.7v289.8v46c0,6.9-5.6,12.4-12.4,12.4H375.3
				c-6.9,0-12.4-5.6-12.4-12.4v-46V250.7v-46c0-6.9,5.6-12.4,12.4-12.4H925c6.9,0,12.4,5.6,12.4,12.4V250.7z"/>
		</g>
		<g>
			<rect x="389.2" y="216.1" class="st4" width="521.9" height="342.7"/>
			<path class="st0" d="M911.1,214.6H389.2c-0.9,0-1.6,0.7-1.6,1.6v342.7c0,0.9,0.7,1.6,1.6,1.6h521.9c0.9,0,1.6-0.7,1.6-1.6V216.1
				C912.7,215.3,912,214.6,911.1,214.6z M909.6,557.3H390.8V217.7h518.8V557.3z"/>
		</g>
		<g>
			<rect x="389.2" y="216.1" class="st1" width="521.9" height="45.9"/>
			<path class="st0" d="M911.1,214.6H389.2c-0.9,0-1.6,0.7-1.6,1.6V262c0,0.9,0.7,1.6,1.6,1.6h521.9c0.9,0,1.6-0.7,1.6-1.6v-45.9
				C912.7,215.3,912,214.6,911.1,214.6z M909.6,260.4H390.8v-42.8h518.8V260.4z"/>
		</g>
		<g>
			<path class="st1" d="M667.1,571.1h-33.8c-3.3,0-5.9,2.6-5.9,5.9c0,3.3,2.6,5.9,5.9,5.9h33.8c3.3,0,5.9-2.6,5.9-5.9
				C673,573.8,670.3,571.1,667.1,571.1z"/>
			<path class="st6" d="M667.1,568h-33.8c-5,0-9,4-9,9c0,5,4,9,9,9h33.8c5,0,9-4,9-9C676.1,572.1,672,568,667.1,568z M667.1,582.9
				h-33.8c-3.3,0-5.9-2.6-5.9-5.9c0-3.3,2.6-5.9,5.9-5.9h33.8c3.3,0,5.9,2.6,5.9,5.9C673,580.3,670.3,582.9,667.1,582.9z"/>
		</g>
	</g>
</g>
<g>
	<g>
		<g>
			<path class="st1" d="M771.5,230.7h-79.8c-5.8,0-10.9,3.9-12.3,9.6l-2.3,9h109l-2.3-9C782.4,234.7,777.3,230.7,771.5,230.7z"/>
			<path class="st4" d="M785.2,239.9c-1.6-6.3-7.2-10.6-13.7-10.6h-79.8c-6.5,0-12.1,4.4-13.7,10.6l-2.3,9c-0.1,0.4,0,0.9,0.3,1.2
				c0.3,0.3,0.7,0.6,1.1,0.6h109c0.4,0,0.9-0.2,1.1-0.6c0.3-0.3,0.4-0.8,0.3-1.2L785.2,239.9z M678.9,247.8l1.8-7.2
				c1.3-5,5.8-8.5,10.9-8.5h79.8c5.2,0,9.6,3.5,10.9,8.5l1.8,7.2H678.9z"/>
		</g>
		<g>
			<path class="st1" d="M667.6,230.7h-79.8c-5.8,0-10.9,3.9-12.3,9.6l-2.3,9h109l-2.3-9C678.5,234.7,673.4,230.7,667.6,230.7z"/>
			<path class="st4" d="M681.3,239.9c-1.6-6.3-7.2-10.6-13.7-10.6h-79.8c-6.5,0-12.1,4.4-13.7,10.6l-2.3,9c-0.1,0.4,0,0.9,0.3,1.2
				c0.3,0.3,0.7,0.6,1.1,0.6h109c0.4,0,0.9-0.2,1.1-0.6c0.3-0.3,0.4-0.8,0.3-1.2L681.3,239.9z M575.1,247.8l1.8-7.2
				c1.3-5,5.8-8.5,10.9-8.5h79.8c5.2,0,9.6,3.5,10.9,8.5l1.8,7.2H575.1z"/>
		</g>
		<g>
			<path class="st1" d="M563.8,230.7H484c-5.8,0-10.9,3.9-12.3,9.6l-2.3,9h109l-2.3-9C574.7,234.7,569.6,230.7,563.8,230.7z"/>
			<path class="st4" d="M577.5,239.9c-1.6-6.3-7.2-10.6-13.7-10.6H484c-6.5,0-12.1,4.4-13.7,10.6l-2.3,9c-0.1,0.4,0,0.9,0.3,1.2
				c0.3,0.3,0.7,0.6,1.1,0.6h109c0.4,0,0.9-0.2,1.1-0.6c0.3-0.3,0.4-0.8,0.3-1.2L577.5,239.9z M471.2,247.8l1.8-7.2
				c1.3-5,5.8-8.5,10.9-8.5h79.8c5.2,0,9.6,3.5,10.9,8.5l1.8,7.2H471.2z"/>
		</g>
	</g>
	<g>
		<rect x="389.2" y="249.3" class="st1" width="521.9" height="26.2"/>
		<path class="st0" d="M911.1,247.7H389.2c-0.9,0-1.6,0.7-1.6,1.6v26.2c0,0.9,0.7,1.6,1.6,1.6h521.9c0.9,0,1.6-0.7,1.6-1.6v-26.2
			C912.7,248.4,912,247.7,911.1,247.7z M909.6,273.9H390.8v-23.1h518.8V273.9z"/>
	</g>
	<g>
		<g>
			<path class="st1" d="M424.5,230.6c-2.2,0-4,1.8-4,4c0,2.2,1.8,4,4,4s4-1.8,4-4C428.6,232.4,426.7,230.6,424.5,230.6z"/>
			<path class="st4" d="M424.5,227.7c-3.8,0-6.9,3.1-6.9,6.9c0,3.8,3.1,6.9,6.9,6.9c3.8,0,6.9-3.1,6.9-6.9
				C431.4,230.8,428.3,227.7,424.5,227.7z M424.5,238.7c-2.2,0-4-1.8-4-4c0-2.2,1.8-4,4-4c2.2,0,4,1.8,4,4
				C428.6,236.9,426.7,238.7,424.5,238.7z"/>
		</g>
		<g>
			<path class="st1" d="M445,230.6c-2.2,0-4,1.8-4,4c0,2.2,1.8,4,4,4c2.2,0,4-1.8,4-4C449,232.4,447.2,230.6,445,230.6z"/>
			<path class="st4" d="M445,227.7c-3.8,0-6.9,3.1-6.9,6.9c0,3.8,3.1,6.9,6.9,6.9c3.8,0,6.9-3.1,6.9-6.9
				C451.9,230.8,448.8,227.7,445,227.7z M445,238.7c-2.2,0-4-1.8-4-4c0-2.2,1.8-4,4-4c2.2,0,4,1.8,4,4
				C449,236.9,447.2,238.7,445,238.7z"/>
		</g>
		<g>
			<path class="st1" d="M404.1,230.6c-2.2,0-4,1.8-4,4c0,2.2,1.8,4,4,4c2.2,0,4-1.8,4-4C408.1,232.4,406.3,230.6,404.1,230.6z"/>
			<path class="st4" d="M404.1,227.7c-3.8,0-6.9,3.1-6.9,6.9c0,3.8,3.1,6.9,6.9,6.9c3.8,0,6.9-3.1,6.9-6.9
				C411,230.8,407.9,227.7,404.1,227.7z M404.1,238.7c-2.2,0-4-1.8-4-4c0-2.2,1.8-4,4-4c2.2,0,4,1.8,4,4
				C408.1,236.9,406.3,238.7,404.1,238.7z"/>
		</g>
	</g>
	<g>
		<path class="st4" d="M426,255.9c-4.1,0-7.4,3.3-7.4,7.4c0,4.1,3.3,7.4,7.4,7.4s7.4-3.3,7.4-7.4C433.4,259.3,430.1,255.9,426,255.9
			z M426,267.9c-2.5,0-4.5-2-4.5-4.5c0-2.5,2-4.5,4.5-4.5s4.5,2,4.5,4.5C430.5,265.8,428.5,267.9,426,267.9z"/>
		<path class="st4" d="M403.1,255.9c-4.1,0-7.4,3.3-7.4,7.4c0,4.1,3.3,7.4,7.4,7.4c4.1,0,7.4-3.3,7.4-7.4
			C410.5,259.3,407.1,255.9,403.1,255.9z M403.1,267.9c-2.5,0-4.5-2-4.5-4.5c0-2.5,2-4.5,4.5-4.5c2.5,0,4.5,2,4.5,4.5
			C407.6,265.8,405.6,267.9,403.1,267.9z"/>
	</g>
	<g>
		<path class="st1" d="M887.6,258.8H447.1c-2.5,0-4.5,2-4.5,4.5c0,2.5,2,4.5,4.5,4.5h440.4c2.5,0,4.5-2,4.5-4.5
			C892.1,260.8,890.1,258.8,887.6,258.8z"/>
		<path class="st4" d="M887.6,255.9H447.1c-4.1,0-7.4,3.3-7.4,7.4c0,4.1,3.3,7.4,7.4,7.4h440.4c4.1,0,7.4-3.3,7.4-7.4
			C895,259.3,891.7,255.9,887.6,255.9z M887.6,267.9H447.1c-2.5,0-4.5-2-4.5-4.5c0-2.5,2-4.5,4.5-4.5h440.4c2.5,0,4.5,2,4.5,4.5
			C892.1,265.8,890.1,267.9,887.6,267.9z"/>
	</g>
</g>
<g>
	<g>
		<g>
			<rect x="814.4" y="541.5" class="st1" width="64.2" height="54.9"/>
			<path class="st6" d="M878.5,539.9h-64.2c-0.9,0-1.5,0.7-1.5,1.5v54.9c0,0.9,0.7,1.5,1.5,1.5h64.2c0.9,0,1.5-0.7,1.5-1.5v-54.9
				C880.1,540.6,879.4,539.9,878.5,539.9z M877,594.8h-61.1V543H877V594.8z"/>
		</g>
		<g>
			<rect x="878.5" y="541.5" class="st3" width="65.1" height="54.9"/>
			<path class="st6" d="M943.6,539.9h-65.1c-0.9,0-1.5,0.7-1.5,1.5v54.9c0,0.9,0.7,1.5,1.5,1.5h65.1c0.9,0,1.5-0.7,1.5-1.5v-54.9
				C945.2,540.6,944.5,539.9,943.6,539.9z M942.1,594.8h-62V543h62V594.8z"/>
		</g>
	</g>
	<g>
		<g>
			<rect x="780.2" y="596.4" class="st3" width="64.3" height="116.8"/>
			<path class="st0" d="M844.5,594.8h-64.3c-0.9,0-1.6,0.7-1.6,1.6v116.8c0,0.9,0.7,1.6,1.6,1.6h64.3c0.9,0,1.6-0.7,1.6-1.6V596.4
				C846.1,595.5,845.4,594.8,844.5,594.8z M843,711.5h-61.2V597.9H843V711.5z"/>
		</g>
		<g>
			<rect x="844.5" y="596.4" class="st7" width="112.2" height="116.8"/>
			<path class="st0" d="M956.8,594.8H844.5c-0.9,0-1.6,0.7-1.6,1.6v116.8c0,0.9,0.7,1.6,1.6,1.6h112.2c0.9,0,1.6-0.7,1.6-1.6V596.4
				C958.3,595.5,957.6,594.8,956.8,594.8z M955.2,711.5H846.1V597.9h109.1V711.5z"/>
		</g>
	</g>
</g>
<g>
	<g>
		<g>
			<rect x="367.8" y="646" class="st5" width="36.1" height="33.9"/>
			<path class="st6" d="M403.9,644.4h-36.1c-0.9,0-1.5,0.7-1.5,1.5v33.9c0,0.9,0.7,1.5,1.5,1.5h36.1c0.9,0,1.5-0.7,1.5-1.5V646
				C405.5,645.1,404.8,644.4,403.9,644.4z M402.4,678.3h-33v-30.8h33V678.3z"/>
		</g>
		<g>
			<rect x="331.1" y="646" class="st3" width="36.7" height="33.9"/>
			<path class="st6" d="M367.8,644.4h-36.7c-0.9,0-1.5,0.7-1.5,1.5v33.9c0,0.9,0.7,1.5,1.5,1.5h36.7c0.9,0,1.5-0.7,1.5-1.5V646
				C369.3,645.1,368.6,644.4,367.8,644.4z M366.2,678.3h-33.6v-30.8h33.6V678.3z"/>
		</g>
	</g>
	<g>
		<g>
			<rect x="386.9" y="679.9" class="st3" width="36.2" height="33.3"/>
			<path class="st6" d="M423.1,678.3h-36.2c-0.9,0-1.5,0.7-1.5,1.5v33.3c0,0.9,0.7,1.5,1.5,1.5h36.2c0.9,0,1.5-0.7,1.5-1.5v-33.3
				C424.7,679,424,678.3,423.1,678.3z M421.6,711.7h-33.1v-30.3h33.1V711.7z"/>
		</g>
		<g>
			<rect x="323.7" y="679.9" class="st1" width="63.2" height="33.3"/>
			<path class="st6" d="M386.9,678.3h-63.2c-0.9,0-1.5,0.7-1.5,1.5v33.3c0,0.9,0.7,1.5,1.5,1.5h63.2c0.9,0,1.5-0.7,1.5-1.5v-33.3
				C388.5,679,387.8,678.3,386.9,678.3z M385.4,711.7h-60.1v-30.3h60.1V711.7z"/>
		</g>
	</g>
</g>
<g>
	<g>
		<g>
			<rect x="975.3" y="451.5" class="st3" width="26.5" height="34.9"/>
			<path class="st0" d="M1001.8,449.9h-26.5c-0.9,0-1.6,0.7-1.6,1.6v34.9c0,0.9,0.7,1.6,1.6,1.6h26.5c0.9,0,1.6-0.7,1.6-1.6v-34.9
				C1003.4,450.6,1002.7,449.9,1001.8,449.9z M1000.3,484.8h-23.4v-31.8h23.4V484.8z"/>
		</g>
		<g>
			<rect x="1001.8" y="451.5" class="st1" width="26.5" height="34.9"/>
			<path class="st0" d="M1028.4,449.9h-26.5c-0.9,0-1.6,0.7-1.6,1.6v34.9c0,0.9,0.7,1.6,1.6,1.6h26.5c0.9,0,1.6-0.7,1.6-1.6v-34.9
				C1029.9,450.6,1029.2,449.9,1028.4,449.9z M1026.8,484.8h-23.4v-31.8h23.4V484.8z"/>
		</g>
	</g>
	<g>
		<g>
			<g>
				<g>
					<polygon class="st1" points="1001.2,496.6 1054.5,713.2 1064,713.2 1010.7,496.6 					"/>
					<path class="st0" d="M1012.2,496.2c-0.2-0.7-0.8-1.2-1.5-1.2h-9.5c-0.5,0-0.9,0.2-1.2,0.6c-0.3,0.4-0.4,0.9-0.3,1.3l53.3,216.6
						c0.2,0.7,0.8,1.2,1.5,1.2h9.5c0.5,0,0.9-0.2,1.2-0.6c0.3-0.4,0.4-0.9,0.3-1.3L1012.2,496.2z M1055.7,711.6l-52.6-213.5h6.3
						l52.6,213.5H1055.7z"/>
				</g>
				<g>
					<path class="st0" d="M1051.3,495h-43.2c-0.9,0-1.6,0.7-1.6,1.6c0,0.9,0.7,1.6,1.6,1.6h43.2c0.9,0,1.6-0.7,1.6-1.6
						C1052.8,495.7,1052.1,495,1051.3,495z"/>
					<path class="st0" d="M1058,522.1h-43.2c-0.9,0-1.6,0.7-1.6,1.6c0,0.9,0.7,1.6,1.6,1.6h43.2c0.9,0,1.6-0.7,1.6-1.6
						C1059.6,522.8,1058.9,522.1,1058,522.1z"/>
					<path class="st0" d="M1085,630.4h-43.2c-0.9,0-1.6,0.7-1.6,1.6c0,0.9,0.7,1.6,1.6,1.6h43.2c0.9,0,1.6-0.7,1.6-1.6
						C1086.6,631.1,1085.9,630.4,1085,630.4z"/>
					<path class="st0" d="M1064.8,549.2h-43.2c-0.9,0-1.6,0.7-1.6,1.6c0,0.9,0.7,1.6,1.6,1.6h43.2c0.9,0,1.6-0.7,1.6-1.6
						C1066.3,549.9,1065.6,549.2,1064.8,549.2z"/>
					<path class="st0" d="M1091.8,657.5h-43.2c-0.9,0-1.6,0.7-1.6,1.6s0.7,1.6,1.6,1.6h43.2c0.9,0,1.6-0.7,1.6-1.6
						S1092.6,657.5,1091.8,657.5z"/>
					<path class="st0" d="M1071.5,576.3h-43.2c-0.9,0-1.6,0.7-1.6,1.6s0.7,1.6,1.6,1.6h43.2c0.9,0,1.6-0.7,1.6-1.6
						S1072.4,576.3,1071.5,576.3z"/>
					<path class="st0" d="M1078.3,603.3h-43.2c-0.9,0-1.6,0.7-1.6,1.6s0.7,1.6,1.6,1.6h43.2c0.9,0,1.6-0.7,1.6-1.6
						S1079.1,603.3,1078.3,603.3z"/>
					<path class="st0" d="M1105.3,711.6h-43.2c-0.9,0-1.6,0.7-1.6,1.6s0.7,1.6,1.6,1.6h43.2c0.9,0,1.6-0.7,1.6-1.6
						S1106.1,711.6,1105.3,711.6z"/>
					<path class="st0" d="M1098.5,684.6h-43.2c-0.9,0-1.6,0.7-1.6,1.6s0.7,1.6,1.6,1.6h43.2c0.9,0,1.6-0.7,1.6-1.6
						S1099.4,684.6,1098.5,684.6z"/>
				</g>
				<g>
					<polygon class="st1" points="1047.1,496.6 1100.5,713.2 1110,713.2 1056.6,496.6 					"/>
					<path class="st0" d="M1058.1,496.2c-0.2-0.7-0.8-1.2-1.5-1.2h-9.5c-0.5,0-0.9,0.2-1.2,0.6c-0.3,0.4-0.4,0.9-0.3,1.3l53.3,216.6
						c0.2,0.7,0.8,1.2,1.5,1.2h9.5c0.5,0,0.9-0.2,1.2-0.6c0.3-0.4,0.4-0.9,0.3-1.3L1058.1,496.2z M1101.7,711.6l-52.6-213.5h6.3
						l52.6,213.5H1101.7z"/>
				</g>
			</g>
			<g>
				<g>
					<polygon class="st1" points="920.9,713.2 930.3,713.2 983.7,496.6 974.2,496.6 					"/>
					<path class="st0" d="M983.7,495h-9.5c-0.7,0-1.3,0.5-1.5,1.2l-53.3,216.6c-0.1,0.5,0,1,0.3,1.3c0.3,0.4,0.7,0.6,1.2,0.6h9.5
						c0.7,0,1.3-0.5,1.5-1.2L985.2,497c0.1-0.5,0-1-0.3-1.3C984.6,495.3,984.2,495,983.7,495z M929.1,711.6h-6.3l52.6-213.5h6.3
						L929.1,711.6z"/>
				</g>
				<g>
					<path class="st0" d="M1022.7,495h-43.2c-0.9,0-1.6,0.7-1.6,1.6c0,0.9,0.7,1.6,1.6,1.6h43.2c0.9,0,1.6-0.7,1.6-1.6
						C1024.3,495.7,1023.6,495,1022.7,495z"/>
					<path class="st0" d="M1016,522.1h-43.2c-0.9,0-1.6,0.7-1.6,1.6c0,0.9,0.7,1.6,1.6,1.6h43.2c0.9,0,1.6-0.7,1.6-1.6
						C1017.6,522.8,1016.9,522.1,1016,522.1z"/>
					<path class="st0" d="M989,630.4h-43.2c-0.9,0-1.6,0.7-1.6,1.6c0,0.9,0.7,1.6,1.6,1.6H989c0.9,0,1.6-0.7,1.6-1.6
						C990.6,631.1,989.9,630.4,989,630.4z"/>
					<path class="st0" d="M1009.2,549.2H966c-0.9,0-1.6,0.7-1.6,1.6c0,0.9,0.7,1.6,1.6,1.6h43.2c0.9,0,1.6-0.7,1.6-1.6
						C1010.8,549.9,1010.1,549.2,1009.2,549.2z"/>
					<path class="st0" d="M982.2,657.5H939c-0.9,0-1.6,0.7-1.6,1.6s0.7,1.6,1.6,1.6h43.2c0.9,0,1.6-0.7,1.6-1.6
						S983.1,657.5,982.2,657.5z"/>
					<path class="st0" d="M1002.5,576.3h-43.2c-0.9,0-1.6,0.7-1.6,1.6s0.7,1.6,1.6,1.6h43.2c0.9,0,1.6-0.7,1.6-1.6
						S1003.4,576.3,1002.5,576.3z"/>
					<path class="st0" d="M995.7,603.3h-43.2c-0.9,0-1.6,0.7-1.6,1.6s0.7,1.6,1.6,1.6h43.2c0.9,0,1.6-0.7,1.6-1.6
						S996.6,603.3,995.7,603.3z"/>
					<path class="st0" d="M968.7,711.6h-43.2c-0.9,0-1.6,0.7-1.6,1.6s0.7,1.6,1.6,1.6h43.2c0.9,0,1.6-0.7,1.6-1.6
						S969.6,711.6,968.7,711.6z"/>
					<path class="st0" d="M975.5,684.6h-43.2c-0.9,0-1.6,0.7-1.6,1.6s0.7,1.6,1.6,1.6h43.2c0.9,0,1.6-0.7,1.6-1.6
						S976.4,684.6,975.5,684.6z"/>
				</g>
				<g>
					<polygon class="st5" points="966.8,713.2 976.3,713.2 1029.6,496.6 1020.1,496.6 					"/>
					<path class="st0" d="M1029.6,495h-9.5c-0.7,0-1.3,0.5-1.5,1.2l-53.3,216.6c-0.1,0.5,0,1,0.3,1.3c0.3,0.4,0.7,0.6,1.2,0.6h9.5
						c0.7,0,1.3-0.5,1.5-1.2l53.3-216.6c0.1-0.5,0-1-0.3-1.3C1030.6,495.3,1030.1,495,1029.6,495z M975.1,711.6h-6.3l52.6-213.5h6.3
						L975.1,711.6z"/>
				</g>
			</g>
		</g>
		<g>
			<rect x="965.6" y="486.4" class="st5" width="99.6" height="10.2"/>
			<path class="st0" d="M1065.2,484.8h-99.6c-0.9,0-1.6,0.7-1.6,1.6v10.2c0,0.9,0.7,1.6,1.6,1.6h99.6c0.9,0,1.6-0.7,1.6-1.6v-10.2
				C1066.8,485.5,1066.1,484.8,1065.2,484.8z M1063.7,495h-96.5v-7.1h96.5V495z"/>
		</g>
	</g>
</g>
<g>
	<g>
		<g>
			<rect x="423.4" y="246.5" class="st4" width="134.3" height="34.7"/>
			<path class="st0" d="M557.7,245H423.4c-0.9,0-1.6,0.7-1.6,1.6v34.7c0,0.9,0.7,1.6,1.6,1.6h134.3c0.9,0,1.6-0.7,1.6-1.6v-34.7
				C559.3,245.7,558.6,245,557.7,245z M556.2,279.7H425v-31.6h131.2V279.7z"/>
		</g>
	</g>
	<g>
		<g>
			<path class="st0" d="M490.6,158.7c-0.9,0-1.6,0.7-1.6,1.6v60.2c0,0.9,0.7,1.6,1.6,1.6s1.6-0.7,1.6-1.6v-60.2
				C492.1,159.4,491.4,158.7,490.6,158.7z"/>
			<g>
				<line class="st8" x1="423.4" y1="246.5" x2="490.6" y2="225.4"/>
				<path class="st6" d="M490.1,223.9L423,245.1c-0.8,0.3-1.3,1.1-1,1.9c0.2,0.7,0.8,1.1,1.5,1.1c0.2,0,0.3,0,0.5-0.1l67.2-21.2
					c0.8-0.3,1.3-1.1,1-1.9C491.8,224.1,490.9,223.6,490.1,223.9z"/>
			</g>
			<g>
				<line class="st8" x1="557.7" y1="246.5" x2="490.6" y2="225.4"/>
				<path class="st6" d="M558.2,245.1L491,223.9c-0.8-0.3-1.7,0.2-1.9,1c-0.3,0.8,0.2,1.7,1,1.9l67.2,21.2c0.2,0,0.3,0.1,0.5,0.1
					c0.7,0,1.3-0.4,1.5-1.1C559.5,246.2,559,245.3,558.2,245.1z"/>
			</g>
			<g>
				<path class="st8" d="M490.6,213.4L490.6,213.4c-4.1,0-7.5,3.4-7.5,7.5v8.8c0,4.1,3.4,7.5,7.5,7.5l0,0c4.1,0,7.5-3.4,7.5-7.5V221
					C498.1,216.8,494.7,213.4,490.6,213.4z"/>
				<path class="st6" d="M490.6,211.9c-5,0-9.1,4.1-9.1,9.1v8.8c0,5,4.1,9.1,9.1,9.1c5,0,9.1-4.1,9.1-9.1V221
					C499.6,216,495.6,211.9,490.6,211.9z M496.5,229.8c0,3.3-2.7,6-6,6s-6-2.7-6-6V221c0-3.3,2.7-6,6-6s6,2.7,6,6V229.8z"/>
			</g>
		</g>
		<g>
			<path class="st0" d="M119.9,138.5c-0.9,0-1.6,0.7-1.6,1.6v305.6c0,0.9,0.7,1.6,1.6,1.6c0.9,0,1.6-0.7,1.6-1.6V140
				C121.5,139.2,120.8,138.5,119.9,138.5z"/>
			<g>
				<rect x="224.6" y="140" class="st8" width="104.7" height="104.7"/>
				<path class="st6" d="M329.4,138.5H224.6c-0.9,0-1.5,0.7-1.5,1.5v104.7c0,0.9,0.7,1.5,1.5,1.5h104.7c0.9,0,1.5-0.7,1.5-1.5V140
					C330.9,139.2,330.2,138.5,329.4,138.5z M327.8,243.2H226.2V141.6h101.6V243.2z"/>
			</g>
			<g>
				<rect x="284" y="160.2" class="st1" width="45.4" height="84.6"/>
				<path class="st0" d="M329.4,158.6H284c-0.9,0-1.6,0.7-1.6,1.6v84.6c0,0.9,0.7,1.6,1.6,1.6h45.4c0.9,0,1.6-0.7,1.6-1.6v-84.6
					C330.9,159.3,330.2,158.6,329.4,158.6z M327.8,243.2h-42.2v-81.4h42.2V243.2z"/>
			</g>
			<g>
				<rect x="329.4" y="140" class="st8" width="209.5" height="20.2"/>
				<path class="st6" d="M538.8,138.5H329.4c-0.9,0-1.5,0.7-1.5,1.5v20.2c0,0.9,0.7,1.5,1.5,1.5h209.5c0.9,0,1.5-0.7,1.5-1.5V140
					C540.4,139.2,539.7,138.5,538.8,138.5z M537.3,158.7H330.9v-17.1h206.4V158.7z"/>
			</g>
			<g>
				<rect x="67.5" y="140" class="st8" width="104.7" height="20.2"/>
				<path class="st6" d="M172.3,138.5H67.5c-0.9,0-1.5,0.7-1.5,1.5v20.2c0,0.9,0.7,1.5,1.5,1.5h104.7c0.9,0,1.5-0.7,1.5-1.5V140
					C173.8,139.2,173.1,138.5,172.3,138.5z M170.7,158.7H69.1v-17.1h101.6V158.7z"/>
			</g>
			<g>
				<g>
					<path class="st0" d="M224.6,400.3h-52.4c-0.9,0-1.6,0.7-1.6,1.6v52.4c0,0.9,0.7,1.6,1.6,1.6h52.4c0.9,0,1.6-0.7,1.6-1.6v-52.4
						C226.2,401,225.5,400.3,224.6,400.3z M223.1,452.7h-49.2v-49.2h49.2V452.7z"/>
					<path class="st0" d="M173.4,400.8c-0.6-0.6-1.6-0.6-2.2,0c-0.6,0.6-0.6,1.6,0,2.2l52.4,52.4c0.3,0.3,0.7,0.5,1.1,0.5
						s0.8-0.2,1.1-0.5c0.6-0.6,0.6-1.6,0-2.2L173.4,400.8z"/>
				</g>
				<g>
					<path class="st0" d="M224.6,452.7h-52.4c-0.9,0-1.6,0.7-1.6,1.6v52.4c0,0.9,0.7,1.6,1.6,1.6h52.4c0.9,0,1.6-0.7,1.6-1.6v-52.4
						C226.2,453.4,225.5,452.7,224.6,452.7z M223.1,505h-49.2v-49.2h49.2V505z"/>
					<path class="st0" d="M173.4,453.1c-0.6-0.6-1.6-0.6-2.2,0c-0.6,0.6-0.6,1.6,0,2.2l52.4,52.4c0.3,0.3,0.7,0.5,1.1,0.5
						s0.8-0.2,1.1-0.5c0.6-0.6,0.6-1.6,0-2.2L173.4,453.1z"/>
				</g>
				<g>
					<g>
						<path class="st0" d="M224.6,295.6h-52.4c-0.9,0-1.6,0.7-1.6,1.6v52.4c0,0.9,0.7,1.6,1.6,1.6h52.4c0.9,0,1.6-0.7,1.6-1.6v-52.4
							C226.2,296.3,225.5,295.6,224.6,295.6z M223.1,347.9h-49.2v-49.2h49.2V347.9z"/>
						<path class="st0" d="M173.4,296c-0.6-0.6-1.6-0.6-2.2,0c-0.6,0.6-0.6,1.6,0,2.2l52.4,52.4c0.3,0.3,0.7,0.5,1.1,0.5
							s0.8-0.2,1.1-0.5c0.6-0.6,0.6-1.6,0-2.2L173.4,296z"/>
					</g>
					<g>
						<path class="st0" d="M224.6,347.9h-52.4c-0.9,0-1.6,0.7-1.6,1.6v52.4c0,0.9,0.7,1.6,1.6,1.6h52.4c0.9,0,1.6-0.7,1.6-1.6v-52.4
							C226.2,348.6,225.5,347.9,224.6,347.9z M223.1,400.3h-49.2v-49.2h49.2V400.3z"/>
						<path class="st0" d="M173.4,348.4c-0.6-0.6-1.6-0.6-2.2,0c-0.6,0.6-0.6,1.6,0,2.2l52.4,52.4c0.3,0.3,0.7,0.5,1.1,0.5
							s0.8-0.2,1.1-0.5c0.6-0.6,0.6-1.6,0-2.2L173.4,348.4z"/>
					</g>
				</g>
				<g>
					<g>
						<path class="st0" d="M224.6,609.8h-52.4c-0.9,0-1.6,0.7-1.6,1.6v52.4c0,0.9,0.7,1.6,1.6,1.6h52.4c0.9,0,1.6-0.7,1.6-1.6v-52.4
							C226.2,610.5,225.5,609.8,224.6,609.8z M223.1,662.1h-49.2v-49.2h49.2V662.1z"/>
						<path class="st0" d="M173.4,610.2c-0.6-0.6-1.6-0.6-2.2,0c-0.6,0.6-0.6,1.6,0,2.2l52.4,52.4c0.3,0.3,0.7,0.5,1.1,0.5
							s0.8-0.2,1.1-0.5c0.6-0.6,0.6-1.6,0-2.2L173.4,610.2z"/>
					</g>
					<g>
						<g>
							<path class="st0" d="M224.6,505h-52.4c-0.9,0-1.6,0.7-1.6,1.6V559c0,0.9,0.7,1.6,1.6,1.6h52.4c0.9,0,1.6-0.7,1.6-1.6v-52.4
								C226.2,505.7,225.5,505,224.6,505z M223.1,557.4h-49.2v-49.2h49.2V557.4z"/>
							<path class="st0" d="M173.4,505.5c-0.6-0.6-1.6-0.6-2.2,0c-0.6,0.6-0.6,1.6,0,2.2l52.4,52.4c0.3,0.3,0.7,0.5,1.1,0.5
								s0.8-0.2,1.1-0.5c0.6-0.6,0.6-1.6,0-2.2L173.4,505.5z"/>
						</g>
						<g>
							<path class="st0" d="M224.6,557.4h-52.4c-0.9,0-1.6,0.7-1.6,1.6v52.4c0,0.9,0.7,1.6,1.6,1.6h52.4c0.9,0,1.6-0.7,1.6-1.6V559
								C226.2,558.1,225.5,557.4,224.6,557.4z M223.1,609.8h-49.2v-49.2h49.2V609.8z"/>
							<path class="st0" d="M173.4,557.9c-0.6-0.6-1.6-0.6-2.2,0c-0.6,0.6-0.6,1.6,0,2.2l52.4,52.4c0.3,0.3,0.7,0.5,1.1,0.5
								s0.8-0.2,1.1-0.5c0.6-0.6,0.6-1.6,0-2.2L173.4,557.9z"/>
						</g>
					</g>
				</g>
				<g>
					<g>
						<path class="st0" d="M224.6,190.8h-52.4c-0.9,0-1.6,0.7-1.6,1.6v52.4c0,0.9,0.7,1.6,1.6,1.6h52.4c0.9,0,1.6-0.7,1.6-1.6v-52.4
							C226.2,191.5,225.5,190.8,224.6,190.8z M223.1,243.2h-49.2V194h49.2V243.2z"/>
						<path class="st0" d="M173.4,191.3c-0.6-0.6-1.6-0.6-2.2,0c-0.6,0.6-0.6,1.6,0,2.2l52.4,52.4c0.3,0.3,0.7,0.5,1.1,0.5
							s0.8-0.2,1.1-0.5c0.6-0.6,0.6-1.6,0-2.2L173.4,191.3z"/>
					</g>
					<g>
						<path class="st0" d="M224.6,243.2h-52.4c-0.9,0-1.6,0.7-1.6,1.6v52.4c0,0.9,0.7,1.6,1.6,1.6h52.4c0.9,0,1.6-0.7,1.6-1.6v-52.4
							C226.2,243.9,225.5,243.2,224.6,243.2z M223.1,295.6h-49.2v-49.2h49.2V295.6z"/>
						<path class="st0" d="M173.4,243.7c-0.6-0.6-1.6-0.6-2.2,0c-0.6,0.6-0.6,1.6,0,2.2l52.4,52.4c0.3,0.3,0.7,0.5,1.1,0.5
							s0.8-0.2,1.1-0.5c0.6-0.6,0.6-1.6,0-2.2L173.4,243.7z"/>
					</g>
					<g>
						<g>
							<path class="st0" d="M224.6,138.5h-52.4c-0.9,0-1.6,0.7-1.6,1.6v52.4c0,0.9,0.7,1.6,1.6,1.6h52.4c0.9,0,1.6-0.7,1.6-1.6V140
								C226.2,139.2,225.5,138.5,224.6,138.5z M223.1,190.8h-49.2v-49.2h49.2V190.8z"/>
							<path class="st0" d="M173.4,138.9c-0.6-0.6-1.6-0.6-2.2,0c-0.6,0.6-0.6,1.6,0,2.2l52.4,52.4c0.3,0.3,0.7,0.5,1.1,0.5
								s0.8-0.2,1.1-0.5c0.6-0.6,0.6-1.6,0-2.2L173.4,138.9z"/>
						</g>
					</g>
				</g>
				<g>
					<rect x="143.7" y="663.7" class="st8" width="109.5" height="16.8"/>
					<path class="st6" d="M253.2,662.1H143.7c-0.9,0-1.5,0.7-1.5,1.5v16.8c0,0.9,0.7,1.5,1.5,1.5h109.5c0.9,0,1.5-0.7,1.5-1.5v-16.8
						C254.8,662.8,254.1,662.1,253.2,662.1z M251.7,678.9H145.2v-13.7h106.4V678.9z"/>
				</g>
				<g>
					<rect x="131.6" y="680.5" class="st1" width="133.8" height="32.6"/>
					<path class="st0" d="M265.3,678.9H131.6c-0.9,0-1.6,0.7-1.6,1.6v32.6c0,0.9,0.7,1.6,1.6,1.6h133.8c0.9,0,1.6-0.7,1.6-1.6v-32.6
						C266.9,679.6,266.2,678.9,265.3,678.9z M263.8,711.5H133.1V682h130.7V711.5z"/>
				</g>
			</g>
			<g>
				<path class="st0" d="M277,86.1h-52.4c-0.9,0-1.6,0.7-1.6,1.6V140c0,0.9,0.7,1.6,1.6,1.6H277c0.9,0,1.6-0.7,1.6-1.6V87.7
					C278.6,86.8,277.9,86.1,277,86.1z M275.4,138.5h-49.2V89.2h49.2V138.5z"/>
				<path class="st0" d="M225.7,86.5c-0.6-0.6-1.6-0.6-2.2,0c-0.6,0.6-0.6,1.6,0,2.2l52.4,52.4c0.3,0.3,0.7,0.5,1.1,0.5
					c0.4,0,0.8-0.2,1.1-0.5c0.6-0.6,0.6-1.6,0-2.2L225.7,86.5z"/>
			</g>
			<g>
				<path class="st0" d="M329.4,86.1H277c-0.9,0-1.6,0.7-1.6,1.6V140c0,0.9,0.7,1.6,1.6,1.6h52.4c0.9,0,1.6-0.7,1.6-1.6V87.7
					C330.9,86.8,330.2,86.1,329.4,86.1z M327.8,138.5h-49.2V89.2h49.2V138.5z"/>
				<path class="st0" d="M278.1,86.5c-0.6-0.6-1.6-0.6-2.2,0c-0.6,0.6-0.6,1.6,0,2.2l52.4,52.4c0.3,0.3,0.7,0.5,1.1,0.5
					c0.4,0,0.8-0.2,1.1-0.5c0.6-0.6,0.6-1.6,0-2.2L278.1,86.5z"/>
			</g>
			<g>
				<path class="st0" d="M172.3,86.1h-52.4c-0.9,0-1.6,0.7-1.6,1.6V140c0,0.9,0.7,1.6,1.6,1.6h52.4c0.9,0,1.6-0.7,1.6-1.6V87.7
					C173.8,86.8,173.1,86.1,172.3,86.1z M170.7,138.5h-49.2V89.2h49.2V138.5z"/>
				<path class="st0" d="M121,86.5c-0.6-0.6-1.6-0.6-2.2,0c-0.6,0.6-0.6,1.6,0,2.2l52.4,52.4c0.3,0.3,0.7,0.5,1.1,0.5
					c0.4,0,0.8-0.2,1.1-0.5c0.6-0.6,0.6-1.6,0-2.2L121,86.5z"/>
			</g>
			<g>
				<path class="st0" d="M173.7,19.1c-0.3-0.7-1-1.1-1.8-0.9c-0.7,0.2-1.2,0.8-1.2,1.5V140c0,0.9,0.7,1.6,1.6,1.6h52.4
					c0.5,0,1-0.3,1.3-0.7c0.3-0.4,0.3-1,0.1-1.5L173.7,19.1z M173.8,138.5V27.2l48.4,111.3H173.8z"/>
			</g>
			<g>
				<path class="st0" d="M120.5,86.2c-0.6-0.2-1.3-0.1-1.7,0.3l-52.4,52.4c-0.4,0.4-0.6,1.1-0.3,1.7c0.2,0.6,0.8,1,1.4,1h52.4
					c0.9,0,1.6-0.7,1.6-1.6V87.7C121.5,87,121.1,86.5,120.5,86.2z M118.3,138.5h-47l47-47V138.5z"/>
			</g>
			<g>
				<g>
					<path class="st0" d="M486.5,86.1h-52.4c-0.9,0-1.6,0.7-1.6,1.6V140c0,0.9,0.7,1.6,1.6,1.6h52.4c0.9,0,1.6-0.7,1.6-1.6V87.7
						C488,86.8,487.3,86.1,486.5,86.1z M484.9,138.5h-49.2V89.2h49.2V138.5z"/>
					<path class="st0" d="M435.2,86.5c-0.6-0.6-1.6-0.6-2.2,0c-0.6,0.6-0.6,1.6,0,2.2l52.4,52.4c0.3,0.3,0.7,0.5,1.1,0.5
						s0.8-0.2,1.1-0.5c0.6-0.6,0.6-1.6,0-2.2L435.2,86.5z"/>
				</g>
				<g>
					<path class="st0" d="M381.7,86.1h-52.4c-0.9,0-1.6,0.7-1.6,1.6V140c0,0.9,0.7,1.6,1.6,1.6h52.4c0.9,0,1.6-0.7,1.6-1.6V87.7
						C383.3,86.8,382.6,86.1,381.7,86.1z M380.2,138.5h-49.2V89.2h49.2V138.5z"/>
					<path class="st0" d="M330.5,86.5c-0.6-0.6-1.6-0.6-2.2,0c-0.6,0.6-0.6,1.6,0,2.2l52.4,52.4c0.3,0.3,0.7,0.5,1.1,0.5
						s0.8-0.2,1.1-0.5c0.6-0.6,0.6-1.6,0-2.2L330.5,86.5z"/>
				</g>
				<g>
					<path class="st0" d="M434.1,86.1h-52.4c-0.9,0-1.6,0.7-1.6,1.6V140c0,0.9,0.7,1.6,1.6,1.6h52.4c0.9,0,1.6-0.7,1.6-1.6V87.7
						C435.7,86.8,435,86.1,434.1,86.1z M432.5,138.5h-49.2V89.2h49.2V138.5z"/>
					<path class="st0" d="M382.8,86.5c-0.6-0.6-1.6-0.6-2.2,0c-0.6,0.6-0.6,1.6,0,2.2l52.4,52.4c0.3,0.3,0.7,0.5,1.1,0.5
						s0.8-0.2,1.1-0.5c0.6-0.6,0.6-1.6,0-2.2L382.8,86.5z"/>
				</g>
			</g>
			<g>
				<g>
					<path class="st0" d="M487.6,86.5c-0.4-0.4-1.1-0.6-1.7-0.3c-0.6,0.2-1,0.8-1,1.4V140c0,0.9,0.7,1.6,1.6,1.6h52.4
						c0.6,0,1.2-0.4,1.4-1c0.2-0.6,0.1-1.3-0.3-1.7L487.6,86.5z M488,138.5v-47l47,47H488z"/>
				</g>
			</g>
			<path class="st0" d="M486.8,86.1l-314.2-68c-0.6-0.1-1.2,0.1-1.6,0.6l-52.4,68c-0.5,0.7-0.4,1.7,0.3,2.2c0.7,0.5,1.7,0.4,2.2-0.3
				l51.8-67.2l313.2,67.8c0.1,0,0.2,0,0.3,0c0.7,0,1.4-0.5,1.5-1.2C488.2,87.1,487.6,86.3,486.8,86.1z"/>
			<g>
				<circle class="st8" cx="119.9" cy="455.1" r="9.4"/>
				<path class="st6" d="M119.9,444.1c-6.1,0-11,4.9-11,11s4.9,11,11,11c6.1,0,11-4.9,11-11S126,444.1,119.9,444.1z M119.9,463
					c-4.3,0-7.9-3.5-7.9-7.9s3.5-7.9,7.9-7.9c4.3,0,7.9,3.5,7.9,7.9S124.3,463,119.9,463z"/>
			</g>
		</g>
	</g>
</g>
</svg>
