<?xml version="1.0" encoding="utf-8"?>
<!-- Generator: Adobe Illustrator 23.0.1, SVG Export Plug-In . SVG Version: 6.00 Build 0)  -->
<svg version="1.1" id="图层_1" xmlns="http://www.w3.org/2000/svg" xmlns:xlink="http://www.w3.org/1999/xlink" x="0px" y="0px"
	 viewBox="0 0 1300 740" style="enable-background:new 0 0 1300 740;" xml:space="preserve">
<style type="text/css">
	.st0{fill:#78ACF5;}
	.st1{fill:none;stroke:#BAD7FF;stroke-width:3;stroke-miterlimit:10;}
	.st2{fill:#BAD7FF;}
	.st3{fill:#78ACF5;stroke:#78ACF5;stroke-width:3;stroke-miterlimit:10;}
	.st4{fill:#0069FF;stroke:#0069FF;stroke-width:3;stroke-miterlimit:10;}
	.st5{fill:#0069FF;}
	.st6{fill:#BAD7FF;stroke:#0069FF;stroke-width:3;stroke-miterlimit:10;}
	.st7{fill:#EBF4FF;stroke:#0069FF;stroke-width:3;stroke-miterlimit:10;}
	.st8{fill:#78ACF5;stroke:#0069FF;stroke-width:3;stroke-miterlimit:10;}
	.st9{fill:#EBF4FF;}
	.st10{fill:#EBF4FF;stroke:#0069FF;stroke-width:3;stroke-linejoin:round;stroke-miterlimit:10;}
	.st11{fill:#78ACF5;stroke:#0069FF;stroke-width:2;stroke-miterlimit:10;}
	.st12{fill:#341B85;}
	.st13{fill:none;stroke:#0069FF;stroke-width:3;stroke-miterlimit:10;}
	.st14{fill:#EBF4FF;stroke:#0069FF;stroke-width:2;stroke-miterlimit:10;}
	.st15{fill:#0069FF;stroke:#0069FF;stroke-width:2;stroke-miterlimit:10;}
	.st16{fill:#BAD7FF;stroke:#0069FF;stroke-width:3;stroke-linejoin:round;stroke-miterlimit:10;}
	.st17{fill:none;stroke:#0069FF;stroke-width:2;stroke-miterlimit:10;}
	.st18{opacity:0.4;}
	.st19{opacity:0.4;fill:#78ACF5;stroke:#0069FF;stroke-width:3;stroke-miterlimit:10;}
	.st20{opacity:0.4;fill:#EBF4FF;stroke:#0069FF;stroke-width:3;stroke-miterlimit:10;}
	.st21{fill:#39387B;}
	.st22{fill:#BAD7FF;stroke:#0069FF;stroke-width:2;stroke-miterlimit:10;}
	.st23{fill:#4D4A99;}
	.st24{fill:#BAD7FF;stroke:#0069FF;stroke-width:2;stroke-linejoin:round;stroke-miterlimit:10;}
	.st25{fill:#EBF4FF;stroke:#0069FF;stroke-width:2;stroke-linejoin:round;stroke-miterlimit:10;}
	.st26{fill:none;stroke:#BAD7FF;stroke-width:2;stroke-linecap:round;stroke-miterlimit:10;}
	.st27{opacity:0.4;fill:#78ACF5;}
</style>
<path class="st0" d="M1284.7,712.4H50.9c-5.1,0-9.3,4.1-9.3,9.3v0c0,5.1,4.1,9.3,9.3,9.3h1233.8c5.1,0,9.3-4.1,9.3-9.3v0
	C1294,716.5,1289.8,712.4,1284.7,712.4z"/>
<g>
	<path class="st1" d="M99,228.5H65.4c-4.4,0-8-3.6-8-8v0c0-4.4,3.6-8,8-8H99c4.4,0,8,3.6,8,8v0C107.1,224.9,103.5,228.5,99,228.5z"
		/>
	<path class="st1" d="M101.2,255.9h-6.9c-4.4,0-8-3.6-8-8v0c0-4.4,3.6-8,8-8h6.9c4.4,0,8,3.6,8,8v0
		C109.2,252.3,105.6,255.9,101.2,255.9z"/>
</g>
<polygon class="st2" points="670.4,329.5 670.4,133.8 767.8,133.8 767.8,237.3 837.6,237.3 837.6,68.8 948,68.8 948,263.8 
	998.5,263.8 998.5,210.1 1142.7,210.1 1142.7,554.9 675.4,554.9 675.4,329.5 "/>
<rect x="421.6" y="191.7" class="st2" width="124.2" height="71.6"/>
<rect x="152.2" y="275.1" class="st2" width="301.9" height="388.6"/>
<rect x="450.8" y="174.4" class="st2" width="65.9" height="71.6"/>
<rect x="717.6" y="102.2" class="st2" width="7.9" height="69.1"/>
<g>
	<g>
		<path class="st2" d="M1271.6,536.9c6.5-8.8,10.3-19.7,10.3-31.5c0-22.7-14.2-42.1-34.3-49.8c0.4-2.7,0.7-5.5,0.7-8.4
			c0-29.4-23.9-53.3-53.3-53.3c-29.4,0-53.3,23.9-53.3,53.3c0,2.9,0.2,5.7,0.7,8.4c-20,7.7-34.3,27.1-34.3,49.8
			c0,11.8,3.8,22.7,10.3,31.5c-8.4,8.2-13.7,19.7-13.7,32.4c0,24.9,20.2,45.1,45.1,45.1c1.7,0,3.4-0.1,5-0.3
			c9.8,11.2,24.1,18.2,40.1,18.2c16,0,30.3-7.1,40.1-18.2c1.7,0.2,3.3,0.3,5,0.3c24.9,0,45.1-20.2,45.1-45.1
			C1285.3,556.6,1280,545.1,1271.6,536.9z"/>
	</g>
</g>
<g>
	<path class="st2" d="M210.3,541.6c6.7-9.1,10.6-20.3,10.6-32.4c0-23.4-14.7-43.4-35.3-51.3c0.4-2.8,0.7-5.7,0.7-8.6
		c0-30.3-24.6-54.9-54.9-54.9c-30.3,0-54.9,24.6-54.9,54.9c0,2.9,0.2,5.8,0.7,8.6c-20.6,7.9-35.3,27.9-35.3,51.3
		c0,12.1,3.9,23.3,10.6,32.4c-8.7,8.5-14.1,20.3-14.1,33.3c0,25.7,20.8,46.5,46.5,46.5c1.8,0,3.5-0.1,5.2-0.3
		c10.1,11.5,24.8,18.8,41.3,18.8c16.5,0,31.2-7.3,41.3-18.8c1.7,0.2,3.4,0.3,5.2,0.3c25.7,0,46.5-20.8,46.5-46.5
		C224.4,561.9,219,550.1,210.3,541.6z"/>
	<polygon class="st0" points="158.2,527.3 155.1,524.2 134.1,545.3 134.1,504.2 131.7,504.2 118.6,491.1 115.6,494.1 128.7,507.2 
		128.7,581.9 105.4,558.6 102.4,561.7 128.7,588 128.7,721.6 134.1,721.6 134.1,551.4 	"/>
</g>
<g>
	<g>
		<path class="st3" d="M357,149.2l-1.8-2.5l-21.7,29.6l-21.7-29.6l-1.8,2.5h-4.9v512.4h4.9l1.8,2.5l21.7-29.6l21.7,29.6l1.8-2.5h5
			V149.2H357z M313.1,542.7l16.7,22.8l-16.7,22.8V542.7z M316.2,537h34.6l-17.3,23.6L316.2,537z M353.9,542.6v45.9l-16.8-23
			L353.9,542.6z M316.2,530l17.3-23.6l17.3,23.6H316.2z M350.8,273.8h-34.6l17.3-23.6L350.8,273.8z M337.1,245.3l16.8-23v45.9
			L337.1,245.3z M353.9,286.4v45.9l-16.8-23L353.9,286.4z M350.8,280.8l-17.3,23.6l-17.3-23.6H350.8z M353.3,341.4l-19.8,27.1
			l-19.8-27.1l19.8-27.1L353.3,341.4z M353.9,350.4v45.9l-16.8-23L353.9,350.4z M350.8,401.9h-34.6l17.3-23.6L350.8,401.9z
			 M350.8,408.9l-17.3,23.6l-17.3-23.6H350.8z M353.9,414.5v45.9l-16.8-23L353.9,414.5z M353.3,469.5l-19.8,27.1l-19.8-27.1
			l19.8-27.1L353.3,469.5z M353.9,478.5v45.9l-16.8-23L353.9,478.5z M353.9,158.3v45.9l-16.8-23L353.9,158.3z M353.3,213.3
			l-19.8,27.1l-19.8-27.1l19.8-27.1L353.3,213.3z M313.1,158.4l16.7,22.8l-16.7,22.8V158.4z M313.1,222.4l16.7,22.8l-16.7,22.8
			V222.4z M313.1,286.5l16.7,22.8l-16.7,22.8V286.5z M313.1,350.5l16.7,22.8l-16.7,22.8V350.5z M313.1,414.6l16.7,22.8l-16.7,22.8
			V414.6z M313.1,478.6l16.7,22.8l-16.7,22.8V478.6z M313.1,652.5v-45.7l16.7,22.8L313.1,652.5z M313.6,597.6l19.8-27.1l19.8,27.1
			l-19.8,27.1L313.6,597.6z M353.9,652.6l-16.8-23l16.8-23V652.6z"/>
	</g>
	<g>
		<g>
			<polygon class="st4" points="285.3,146.8 280.3,141.9 280.7,77.1 285.6,82 			"/>
		</g>
	</g>
	<g>
		<rect x="180" y="448.9" class="st5" width="7" height="167.2"/>
	</g>
	<rect x="152.6" y="638" class="st6" width="81" height="23.6"/>
	<rect x="162.7" y="614.4" class="st7" width="71" height="23.6"/>
	<rect x="152.6" y="590.8" class="st6" width="81" height="23.6"/>
	<rect x="162.7" y="567.2" class="st7" width="71" height="23.6"/>
	<g>
		<g>
			<rect x="180" y="149.2" class="st5" width="7" height="144.7"/>
		</g>
	</g>
	<g>
		<rect x="166.5" y="301.8" class="st5" width="7" height="139.1"/>
	</g>
	<path class="st7" d="M305.1,149.2h-7.4l-2.5-2.5l-29.6,29.6l-29.6-29.6l-2.5,2.5H227v512.4h6.6l2.5,2.5l29.6-29.6l29.6,29.6
		l2.5-2.5h7.4V149.2z M260.7,245.3L238,268v-45.5L260.7,245.3z M242.1,216.8h47.2l-23.6,23.6L242.1,216.8z M260.7,309.3L238,332.1
		v-45.5L260.7,309.3z M242.1,280.8h47.2l-23.6,23.6L242.1,280.8z M265.7,314.3l27.1,27.1l-27.1,27.1l-27.1-27.1L265.7,314.3z
		 M260.7,373.4L238,396.2v-45.5L260.7,373.4z M242.1,401.9l23.6-23.6l23.6,23.6H242.1z M289.3,408.9l-23.6,23.6l-23.6-23.6H289.3z
		 M260.7,437.4L238,460.2v-45.5L260.7,437.4z M265.7,442.4l27.1,27.1l-27.1,27.1l-27.1-27.1L265.7,442.4z M260.7,501.5L238,524.3
		v-45.5L260.7,501.5z M265.7,506.4l23.6,23.6h-47.2L265.7,506.4z M270.6,501.5l23.5-23.5V525L270.6,501.5z M270.6,437.4l23.5-23.5
		V461L270.6,437.4z M270.6,373.4l23.5-23.5v47.1L270.6,373.4z M270.6,309.3l23.5-23.5v47.1L270.6,309.3z M242.1,273.8l23.6-23.6
		l23.6,23.6H242.1z M238,542.8l22.8,22.8L238,588.3V542.8z M242.1,537h47.2l-23.6,23.6L242.1,537z M294.2,542v47.1l-23.5-23.5
		L294.2,542z M270.6,245.3l23.5-23.5v47.1L270.6,245.3z M242.1,209.8l23.6-23.6l23.6,23.6H242.1z M265.7,570.5l27.1,27.1l-27.1,27.1
		l-27.1-27.1L265.7,570.5z M294.2,157.7v47.1l-23.5-23.5L294.2,157.7z M238,204v-45.5l22.8,22.8L238,204z M238,652.4v-45.5
		l22.8,22.8L238,652.4z M294.2,606.1v47.1l-23.5-23.5L294.2,606.1z"/>
	<g>
		<polygon class="st5" points="184.5,146.4 180.6,140.5 286.6,64.9 290.4,70.7 		"/>
	</g>
	<g>
		<g>
			<g>
				<path class="st4" d="M194,316.9c6.8,0,12.4-5.5,12.4-12.4c0-6.8-5.5-12.4-12.4-12.4h-19.4v24.7H194z"/>
			</g>
		</g>
		<ellipse transform="matrix(0.973 -0.231 0.231 0.973 -65.6673 48.192)" class="st7" cx="173" cy="304.6" rx="12.4" ry="12.4"/>
		<path class="st5" d="M168.1,304.6c0,2.7,2.2,4.9,4.9,4.9c2.7,0,4.9-2.2,4.9-4.9c0-2.7-2.2-4.9-4.9-4.9
			C170.3,299.7,168.1,301.9,168.1,304.6z"/>
	</g>
	<g>
		<g>
			<g>
				<path class="st4" d="M194,425.9c6.8,0,12.4,5.5,12.4,12.4c0,6.8-5.5,12.4-12.4,12.4h-19.4v-24.7H194z"/>
			</g>
		</g>
		<ellipse transform="matrix(0.231 -0.973 0.973 0.231 -293.3836 505.354)" class="st7" cx="173" cy="438.3" rx="12.4" ry="12.4"/>
		<path class="st5" d="M168.1,438.3c0-2.7,2.2-4.9,4.9-4.9c2.7,0,4.9,2.2,4.9,4.9c0,2.7-2.2,4.9-4.9,4.9
			C170.3,443.1,168.1,441,168.1,438.3z"/>
	</g>
	<g>
		<g>
			<path class="st8" d="M195.6,444.5c-1.9,0-3.5-1.6-3.5-3.5V301.8c0-1.9,1.6-3.5,3.5-3.5c1.9,0,3.5,1.6,3.5,3.5V441
				C199.1,442.9,197.6,444.5,195.6,444.5z"/>
		</g>
	</g>
	<g>
		<g>
			<g>
				<path class="st4" d="M301.4,86c6.8,0,12.4-5.5,12.4-12.4c0-6.8-5.5-12.4-12.4-12.4H282V86H301.4z"/>
			</g>
		</g>
		<circle class="st7" cx="280.3" cy="73.7" r="12.4"/>
		<path class="st5" d="M275.4,73.7c0,2.7,2.2,4.9,4.9,4.9c2.7,0,4.9-2.2,4.9-4.9c0-2.7-2.2-4.9-4.9-4.9
			C277.6,68.8,275.4,71,275.4,73.7z"/>
	</g>
	<g>
		<g>
			<path class="st8" d="M329.7,109.2c-0.9,0-1.8-0.3-2.5-1l-28.6-28.6c-1.4-1.4-1.4-3.6,0-5c1.4-1.4,3.6-1.4,5,0l28.6,28.6
				c1.4,1.4,1.4,3.6,0,5C331.5,108.9,330.6,109.2,329.7,109.2z"/>
		</g>
	</g>
	<path class="st6" d="M620.8,135l-32-32c-0.7-0.7-1.7-1.2-2.8-1.2H329.7v0c-1,0-2,0.4-2.8,1.2l-32,32c-1.1,1.1-1.5,2.8-0.9,4.3
		c0.6,1.5,2,2.4,3.6,2.4h64.1h0h64.1h0h64.1h0h64.1h0H618c1.6,0,3-1,3.6-2.4C622.2,137.8,621.9,136.1,620.8,135z M553.9,132.2
		l-22.5-22.5h45.1L553.9,132.2z M489.9,132.2l-22.5-22.5h45.1L489.9,132.2z M425.8,132.2l-22.5-22.5h45.1L425.8,132.2z M361.8,132.2
		l-22.5-22.5h45.1L361.8,132.2z M307.2,133.8l22.5-22.5l22.5,22.5H307.2z M371.2,133.8l22.5-22.5l22.5,22.5H371.2z M435.3,133.8
		l22.5-22.5l22.5,22.5H435.3z M499.4,133.8l22.5-22.5l22.5,22.5H499.4z M563.4,133.8l22.5-22.5l22.5,22.5H563.4z"/>
	<path class="st3" d="M684.8,135l-25.3-25.3h0l-6.7-6.7c0,0-0.1-0.1-0.1-0.1c0,0-0.1-0.1-0.1-0.1c-0.1-0.1-0.2-0.1-0.3-0.2
		c-0.4-0.3-0.7-0.4-1.2-0.6c-0.1,0-0.1,0-0.2-0.1c-0.1,0-0.2,0-0.3-0.1c-0.2,0-0.4-0.1-0.6-0.1H586c0,0,0,0-0.1,0h-9.4l6.7,6.7
		c0,0,0,0,0,0l32,32c0.7,0.7,1.7,1.2,2.8,1.2H682c1.6,0,3-1,3.6-2.4C686.3,137.8,685.9,136.1,684.8,135z M648.7,131.2l-45.3-21.5
		h43.1L648.7,131.2z M604.8,119l31.1,14.8h-16.3L604.8,119z M656.9,133.8l-1.8-17.5l17.5,17.5H656.9z"/>
	<g>
		<rect x="265.8" y="149.2" class="st8" width="37.4" height="118.4"/>
		<rect x="214.7" y="149.2" class="st6" width="51" height="118.4"/>
		<rect x="221.7" y="156" class="st5" width="37.1" height="52"/>
		<rect x="224.1" y="158.3" class="st9" width="34.7" height="49.6"/>
		<rect x="271.4" y="156" class="st5" width="26.2" height="52"/>
		<rect x="214.7" y="257.9" class="st7" width="51" height="9.7"/>
		<rect x="265.8" y="257.9" class="st6" width="37.4" height="9.7"/>
	</g>
	<rect x="607.7" y="133.8" class="st3" width="78.2" height="15.4"/>
	<path class="st7" d="M607.7,133.8H180.9c-4.3,0-7.7,3.4-7.7,7.7l0,0c0,4.3,3.4,7.7,7.7,7.7h426.8V133.8z"/>
	<rect x="216.8" y="567.2" class="st5" width="10.2" height="94.4"/>
	<rect x="212.2" y="661.6" class="st8" width="174.1" height="60"/>
	<path class="st10" d="M151.2,721.6h61v-60h-78.5v42.5C133.7,713.8,141.5,721.6,151.2,721.6z"/>
</g>
<g>
	<path class="st11" d="M1122.6,721.6L1122.6,721.6c16,0,29-13,29-29v-15.2c0-16-13-29-29-29l0,0h-19.1v73.2H1122.6z"/>
	<g>
		<polyline class="st5" points="1105.9,341 1107.4,336.2 1140.1,346.6 1138.6,351.4 		"/>
	</g>
	<g>
		
			<rect x="1087.2" y="354.1" transform="matrix(0.3031 -0.953 0.953 0.3031 405.5677 1297.1274)" class="st5" width="5" height="34.4"/>
	</g>
	<g>
		<path class="st5" d="M1068.7,374.8c-1,0-2-0.6-2.3-1.6l-16.8-45.6l4.7-1.7l13.5,36.7l10.1-61.5c0.2-1,0.9-1.8,1.9-2
			c1-0.2,2,0.1,2.6,0.9l23.3,31.3l10.9-64.6l4.9,0.8l-11.9,70.4c-0.2,1-0.9,1.8-1.9,2c-1,0.2-2-0.1-2.6-0.9l-23.3-31.3l-10.7,65
			c-0.2,1.1-1.1,2-2.2,2.1C1068.9,374.8,1068.8,374.8,1068.7,374.8z"/>
	</g>
	<g>
		<path class="st11" d="M1259.7,721.6L1259.7,721.6c16,0,29-13,29-29v-15.2c0-16-13-29-29-29l0,0h-19.1v73.2H1259.7z"/>
		<g>
			<path class="st12" d="M1240.6,648.5L1240.6,648.5c-16,0-29,13-29,29v15.2c0,16,13,29,29,29h0c16,0,29-13,29-29v-15.2
				C1269.6,661.5,1256.6,648.5,1240.6,648.5z"/>
			<path class="st6" d="M1240.6,648.5L1240.6,648.5c-16,0-29,13-29,29v15.2c0,16,13,29,29,29h0c16,0,29-13,29-29v-15.2
				C1269.6,661.5,1256.6,648.5,1240.6,648.5z"/>
			<path class="st11" d="M1240.6,706.3c-7.6,0-13.7-6.1-13.7-13.7v-15.2c0-7.6,6.1-13.7,13.7-13.7c7.6,0,13.7,6.1,13.7,13.7v15.2
				C1254.3,700.2,1248.1,706.3,1240.6,706.3z"/>
		</g>
	</g>
	<path class="st6" d="M1123.2,614.2c12,0,21.8,9.8,21.8,21.8v34.3h147V636c0-12-9.8-21.8-21.8-21.8H1145H1123.2z"/>
	<polygon class="st9" points="1224.8,614.2 1116.1,614.2 1099.4,546.4 1098.3,542 1207,542 1208.1,546.4 	"/>
	<path class="st0" d="M1163.5,614.2v-45c0-3.6,2.9-6.5,6.5-6.5h21.3c2.9,0,5.5,1.9,6.3,4.7l13.3,46.8H1163.5z"/>
	<path class="st0" d="M1116.1,614.2l-12.4-51.5h25.5c2.9,0,5.5,1.9,6.3,4.7l13.3,46.8H1116.1z"/>
	<polygon class="st13" points="1224.8,614.2 1116.1,614.2 1099.4,546.4 1098.3,542 1207,542 1208.1,546.4 	"/>
	<path class="st8" d="M1246.5,662.8h-44.3c-3.3,0-6-2.7-6-6v-21.1c0-3.3,2.7-6,6-6h44.3c3.3,0,6,2.7,6,6v21.1
		C1252.4,660.1,1249.8,662.8,1246.5,662.8z"/>
	<rect x="1145" y="670.2" class="st8" width="151.7" height="19.5"/>
	<g>
		<g>
			
				<ellipse transform="matrix(0.9732 -0.2298 0.2298 0.9732 -117.367 286.3736)" class="st5" cx="1171.1" cy="647.2" rx="12.4" ry="12.4"/>
			<g>
				<path class="st9" d="M1174.9,658.1c-6,0-10.9-4.9-10.9-10.9c0-6,4.9-10.9,10.9-10.9c6,0,10.9,4.9,10.9,10.9
					C1185.8,653.2,1180.9,658.1,1174.9,658.1z"/>
				<path class="st5" d="M1174.9,637.8c5.2,0,9.4,4.2,9.4,9.4c0,5.2-4.2,9.4-9.4,9.4s-9.4-4.2-9.4-9.4
					C1165.6,642,1169.8,637.8,1174.9,637.8 M1174.9,634.8c-6.8,0-12.4,5.5-12.4,12.4c0,6.8,5.5,12.4,12.4,12.4s12.4-5.5,12.4-12.4
					C1187.3,640.4,1181.7,634.8,1174.9,634.8L1174.9,634.8z"/>
			</g>
			<path class="st5" d="M1170,647.2c0,2.7,2.2,4.9,4.9,4.9s4.9-2.2,4.9-4.9c0-2.7-2.2-4.9-4.9-4.9S1170,644.5,1170,647.2z"/>
		</g>
	</g>
	<g>
		<g>
			
				<ellipse transform="matrix(0.9732 -0.2298 0.2298 0.9732 -114.6917 309.3503)" class="st5" cx="1271.1" cy="647.2" rx="12.4" ry="12.4"/>
			<g>
				<path class="st9" d="M1274.9,658.1c-6,0-10.9-4.9-10.9-10.9c0-6,4.9-10.9,10.9-10.9c6,0,10.9,4.9,10.9,10.9
					C1285.8,653.2,1280.9,658.1,1274.9,658.1z"/>
				<path class="st5" d="M1274.9,637.8c5.2,0,9.4,4.2,9.4,9.4c0,5.2-4.2,9.4-9.4,9.4s-9.4-4.2-9.4-9.4
					C1265.6,642,1269.8,637.8,1274.9,637.8 M1274.9,634.8c-6.8,0-12.4,5.5-12.4,12.4c0,6.8,5.5,12.4,12.4,12.4s12.4-5.5,12.4-12.4
					C1287.3,640.4,1281.7,634.8,1274.9,634.8L1274.9,634.8z"/>
			</g>
			<path class="st5" d="M1270,647.2c0,2.7,2.2,4.9,4.9,4.9s4.9-2.2,4.9-4.9c0-2.7-2.2-4.9-4.9-4.9S1270,644.5,1270,647.2z"/>
		</g>
	</g>
	<rect x="1047.7" y="529.6" class="st8" width="50.6" height="12.3"/>
	<path class="st8" d="M1145,689.8h-97.3V542h50.6l17.8,72.2h7.1c12,0,21.8,9.8,21.8,21.8v34.3V689.8z"/>
	<path class="st5" d="M1121,628.9c0,2.7,2.2,4.9,4.9,4.9c2.7,0,4.9-2.2,4.9-4.9s-2.2-4.9-4.9-4.9C1123.2,624,1121,626.2,1121,628.9z
		"/>
	<g>
		<path class="st6" d="M1103.5,648.5L1103.5,648.5c-16,0-29,13-29,29v15.2c0,16,13,29,29,29h0c16,0,29-13,29-29v-15.2
			C1132.5,661.5,1119.5,648.5,1103.5,648.5z"/>
		<path class="st11" d="M1103.5,706.3c-7.6,0-13.7-6.1-13.7-13.7v-15.2c0-7.6,6.1-13.7,13.7-13.7c7.6,0,13.7,6.1,13.7,13.7v15.2
			C1117.2,700.2,1111,706.3,1103.5,706.3z"/>
		<path class="st2" d="M1103.5,701.3c-4.7,0-8.6-3.9-8.6-8.6v-15.2c0-4.7,3.9-8.6,8.6-8.6s8.6,3.9,8.6,8.6v15.2
			C1112.1,697.4,1108.2,701.3,1103.5,701.3z"/>
	</g>
	<g>
		<g>
			<g>
				<path class="st5" d="M1226.7,564.9h-3v-8.8c0-5.9-2.3-11.4-6.4-15.6l2.1-2.1c4.7,4.7,7.3,11,7.3,17.7V564.9z"/>
			</g>
		</g>
		<path class="st14" d="M1226.1,564.5h-6c-1.9,0-3.4,1.5-3.4,3.4v19.5c0,1.9,1.5,3.4,3.4,3.4h6c1.9,0,3.4-1.5,3.4-3.4v-19.5
			C1229.6,566.1,1228,564.5,1226.1,564.5z"/>
		<path class="st15" d="M1229.5,564.5h-6c-1.9,0-3.4,1.5-3.4,3.4v19.5c0,1.9,1.5,3.4,3.4,3.4h6c1.9,0,3.4-1.5,3.4-3.4v-19.5
			C1232.9,566.1,1231.4,564.5,1229.5,564.5z"/>
	</g>
	<path class="st6" d="M1133.9,520.9h-86.2v8.7h94.9l0,0C1142.7,524.8,1138.8,520.9,1133.9,520.9z"/>
	<g>
		<g>
			
				<rect x="1034" y="350.9" transform="matrix(0.7476 -0.6641 0.6641 0.7476 38.9268 812.3055)" class="st5" width="108.4" height="8"/>
		</g>
	</g>
	<g>
		<g>
			
				<rect x="1034" y="290.4" transform="matrix(0.7476 -0.6641 0.6641 0.7476 79.1063 797.0366)" class="st5" width="108.4" height="8"/>
		</g>
	</g>
	<g>
		<g>
			
				<rect x="1040" y="365.2" transform="matrix(0.7362 -0.6768 0.6768 0.7362 44.1103 851.5449)" class="st5" width="148.5" height="8"/>
		</g>
	</g>
	<g>
		<rect x="1159.6" y="333.9" class="st2" width="4" height="24.5"/>
	</g>
	<g>
		<rect x="1129.4" y="333.9" class="st2" width="4" height="24.5"/>
	</g>
	<g>
		<rect x="1144.2" y="333.9" class="st2" width="4" height="24.5"/>
	</g>
	<path class="st5" d="M1151.4,385.1c-0.4-0.1-0.8-0.2-1.3-0.3V380h-7v4.9h0l8.5,8.5c2.7,2.7,2.7,7.2,0,9.9c-1.4,1.4-3.2,2.1-4.9,2.1
		c-1.8,0-3.6-0.7-4.9-2.1l-9.3-9.3c-0.8,1.9-1.3,4-1.3,6.3c0,8.7,7.1,15.8,15.8,15.8c6.6,0,12.3-4.1,14.6-9.8
		c0.8-1.8,1.2-3.8,1.2-5.9C1162.7,393.1,1157.9,387,1151.4,385.1z"/>
	<rect x="1070.3" y="445.4" class="st8" width="152.5" height="66.8"/>
	
		<ellipse transform="matrix(0.2847 -0.9586 0.9586 0.2847 334.6325 1405.9464)" class="st2" cx="1109.4" cy="478.7" rx="19.8" ry="19.8"/>
	<rect x="1146.2" y="456.2" class="st2" width="66.3" height="5.6"/>
	<rect x="1146.2" y="476" class="st2" width="66.3" height="5.6"/>
	<rect x="1146.2" y="495.7" class="st2" width="66.3" height="5.6"/>
	<g>
		<g>
			<rect x="1145.1" y="404.7" class="st0" width="3.7" height="24.8"/>
		</g>
	</g>
	<g>
		<g>
			
				<rect x="1181.7" y="381.7" transform="matrix(0.4595 -0.8882 0.8882 0.4595 269.5414 1276.5317)" class="st0" width="3.7" height="70.2"/>
		</g>
	</g>
	<g>
		<g>
			
				<rect x="1083.6" y="415.1" transform="matrix(0.8542 -0.5199 0.5199 0.8542 -54.3079 640.15)" class="st0" width="61.6" height="3.7"/>
		</g>
	</g>
	<path class="st12" d="M1067.4,626.5h-11.9c-1.3,0-2.4-1.1-2.4-2.4v-2.5c0-1.3,1.1-2.4,2.4-2.4h11.9c1.3,0,2.4,1.1,2.4,2.4v2.5
		C1069.8,625.4,1068.7,626.5,1067.4,626.5z"/>
	<polygon class="st16" points="1089.3,542 1107.2,614.2 1047.7,614.2 1047.7,542 	"/>
	<path class="st6" d="M1123.9,251.5h41.9c5.8,0,10.6,4.7,10.6,10.6v61.2c0,5.8-4.7,10.6-10.6,10.6h-41.9V251.5z"/>
	<rect x="1128" y="358.4" class="st7" width="36.9" height="21.7"/>
	<rect x="1146.2" y="358.4" class="st6" width="18.7" height="21.7"/>
	<path class="st7" d="M1123.4,251.5h1c5.8,0,10.6,4.7,10.6,10.6v61.2c0,5.8-4.7,10.6-10.6,10.6h-1c-5.8,0-10.6-4.7-10.6-10.6v-61.2
		C1112.8,256.2,1117.6,251.5,1123.4,251.5z"/>
	<path class="st5" d="M1118.3,263.3c0,2.7,2.2,4.9,4.9,4.9s4.9-2.2,4.9-4.9c0-2.7-2.2-4.9-4.9-4.9S1118.3,260.6,1118.3,263.3z"/>
	<path class="st5" d="M1118.3,323.3c0,2.7,2.2,4.9,4.9,4.9s4.9-2.2,4.9-4.9c0-2.7-2.2-4.9-4.9-4.9S1118.3,320.6,1118.3,323.3z"/>
	<rect x="1070.3" y="429.4" class="st6" width="152.5" height="15.9"/>
	<g>
		<g>
			<g>
				<path class="st5" d="M1112.4,564.9h-3v-8.8c0-5.9-2.3-11.4-6.4-15.6l2.1-2.1c4.7,4.7,7.3,11,7.3,17.7V564.9z"/>
			</g>
		</g>
		<path class="st14" d="M1111.8,564.5h-6c-1.9,0-3.4,1.5-3.4,3.4v19.5c0,1.9,1.5,3.4,3.4,3.4h6c1.9,0,3.4-1.5,3.4-3.4v-19.5
			C1115.2,566.1,1113.7,564.5,1111.8,564.5z"/>
		<path class="st15" d="M1115.2,564.5h-6c-1.9,0-3.4,1.5-3.4,3.4v19.5c0,1.9,1.5,3.4,3.4,3.4h6c1.9,0,3.4-1.5,3.4-3.4v-19.5
			C1118.6,566.1,1117.1,564.5,1115.2,564.5z"/>
	</g>
	<rect x="1093.1" y="529.6" class="st6" width="131.2" height="12.3"/>
	<rect x="1131.3" y="670.2" class="st6" width="26.9" height="19.5"/>
</g>
<g>
	<path class="st6" d="M831.8,156.7v-6.2l-7.3-0.9c-0.2-0.8-0.4-1.6-0.6-2.4l5.9-4.4l-3.1-5.4l-6.8,2.9c-0.5-0.6-1.1-1.2-1.7-1.7
		l2.9-6.8l-5.4-3.1l-4.4,5.9c-0.8-0.3-1.6-0.5-2.4-0.6l-0.9-7.3h-6.2L801,134c-0.8,0.2-1.6,0.4-2.4,0.6l-4.4-5.9l-5.4,3.1l2.9,6.8
		c-0.6,0.5-1.2,1.1-1.7,1.7l-6.8-2.9l-3.1,5.4l5.9,4.4c-0.3,0.8-0.5,1.6-0.6,2.4l-7.3,0.9v6.2l7.3,0.9c0.2,0.8,0.4,1.6,0.6,2.4
		l-5.9,4.4l3.1,5.4l6.8-2.9c0.5,0.6,1.1,1.2,1.7,1.7l-2.9,6.8l5.4,3.1l4.4-5.9c0.8,0.3,1.6,0.5,2.4,0.6l0.9,7.3h6.2l0.9-7.3
		c0.8-0.2,1.6-0.4,2.4-0.6l4.4,5.9l5.4-3.1l-2.9-6.8c0.6-0.5,1.2-1.1,1.7-1.7l6.8,2.9l3.1-5.4l-5.9-4.4c0.3-0.8,0.5-1.6,0.6-2.4
		L831.8,156.7z M804.9,163.3c-5.4,0-9.7-4.4-9.7-9.7c0-5.4,4.4-9.7,9.7-9.7c5.4,0,9.7,4.4,9.7,9.7
		C814.7,158.9,810.3,163.3,804.9,163.3z"/>
	<g>
		<polygon class="st10" points="778.4,179.4 781,181.9 802,201.9 840.3,172.1 839,164.2 838.5,161.1 		"/>
		<g>
			<g>
				<path class="st11" d="M846,207.3c2.3-0.7,4.3-2.1,5.8-4.1c2.7-3.6,3.1-8.5,0.9-12.5l-9.6-17.5c-0.5-0.9-0.3-2,0.5-2.6l8.8-7.3
					l5.5-1.7l-1.4-4.5l-6.4,2l-11.4,9.5c-1.4,1.1-1.8,3.1-0.9,4.7l10.8,19.7c1.3,2.4,1.1,5.3-0.5,7.4c-1.1,1.5-2.7,2.4-4.5,2.7
					c-1.8,0.3-3.6-0.2-5.1-1.3l-20.9-15.8c-0.7-0.5-1.7-0.5-2.4,0l-20.8,16l2.9,3.7l19-14.6c0.1-0.1,0.2-0.1,0.3,0l18.9,14.3
					c2.4,1.8,5.4,2.7,8.4,2.4C844.6,207.7,845.3,207.5,846,207.3z"/>
			</g>
		</g>
		<g>
			
				<ellipse transform="matrix(0.4698 -0.8828 0.8828 0.4698 238.1021 807.1047)" class="st5" cx="791" cy="205.3" rx="19.9" ry="19.5"/>
			<g>
				
					<ellipse transform="matrix(0.6223 -0.7828 0.7828 0.6223 138.0121 696.697)" class="st9" cx="791" cy="205.3" rx="12.4" ry="12.4"/>
				<path class="st5" d="M786.1,205.3c0,2.7,2.2,4.9,4.9,4.9c2.7,0,4.9-2.2,4.9-4.9c0-2.7-2.2-4.9-4.9-4.9
					C788.3,200.5,786.1,202.6,786.1,205.3z"/>
			</g>
		</g>
		<path class="st15" d="M856.2,163l13.4-4.1c1.3-0.4,2.1-1.8,1.7-3.2l-0.4-1.2c-0.4-1.3-1.8-2.1-3.2-1.7l-13.4,4.1L856.2,163z"/>
	</g>
	<g>
		<g>
			<path class="st9" d="M896.4,108l-8.7,1.9c-5,1.1-9.9-2.1-10.9-7l-1.6-7.3l20.2-4.4L896.4,108z"/>
			<path class="st0" d="M899.2,98.5c-0.1-0.6-0.7-1-1.4-0.9l-0.8,0.2l-1.5-6.7l-9.8,2.1l1.9,8.9l0.2,0v0l10.4-2.3
				C898.9,99.8,899.3,99.2,899.2,98.5z"/>
			<g>
				<path class="st5" d="M899.1,89.2c-0.1-0.6-0.7-1-1.3-0.8l-28.7,6.2c-0.6,0.1-1,0.7-0.8,1.3l0,0c0.1,0.6,0.7,1,1.3,0.8l28.7-6.2
					C898.9,90.4,899.3,89.8,899.1,89.2L899.1,89.2z"/>
				<path class="st5" d="M884.1,78l-2.6,0.6c-5.8,1.3-9.4,6.9-8.2,12.7l0.5,2.3l23.5-5.1l-0.5-2.3C895.5,80.4,889.8,76.8,884.1,78z"
					/>
				
					<rect x="885.7" y="93.3" transform="matrix(0.9773 -0.2119 0.2119 0.9773 -1.3979 190.171)" class="st5" width="2" height="16.7"/>
			</g>
		</g>
		<g>
			<path class="st5" d="M898.4,157.8l-14.7-31.1c-3.2-6.9-0.3-15.1,6.6-18.4l2.5-1.2c5.6-2.6,12.2-0.2,14.8,5.3l14.2,30.3
				L898.4,157.8z"/>
			<path class="st0" d="M902.6,129l-12.8,6l-4.3-9.1c-2.8-5.9-0.2-13,5.7-15.7l2.5-1.2c1.2-0.6,2.5-0.9,3.9-0.9
				c3.5,0,6.8,2.1,8.3,5.3l1.4,2.9C909.4,121.1,907.4,126.8,902.6,129z"/>
		</g>
		<g>
			<g>
				<path class="st0" d="M870.7,161.3c-2,0-3.9-1.1-4.9-3c-1.4-2.7-0.4-6.1,2.3-7.5l12.4-6.5c3.9-2,6.2-6,6.2-10.3v-15.4
					c0-3.1,2.5-5.5,5.5-5.5c3.1,0,5.5,2.5,5.5,5.5v15.4c0,8.5-4.7,16.2-12.2,20.1l-12.4,6.5C872.5,161.1,871.6,161.3,870.7,161.3z"
					/>
				<line class="st17" x1="898.8" y1="118.7" x2="898.8" y2="134.1"/>
			</g>
		</g>
		<path class="st5" d="M918,136.1l-33,35.4c-1.7,1.8-2.6,4.2-2.6,6.7v38.6h12.4v-32.3c0-1.8,1-3.6,2.5-4.5l9.9-6.2l15.7-20.9v-2
			C922.9,145.6,921.2,140.4,918,136.1z"/>
		<path class="st0" d="M884.6,216.4L884.6,216.4c0-1.7-1.3-3-2.9-3H880v4.9h-3.8c-3.1,0-5.6,2.5-5.6,5.5v1.5h21.5
			c1.6,0,2.9-1.3,2.9-2.9v-6H884.6z"/>
		<path class="st5" d="M923.5,182.3c-0.2-0.8-0.3-1.6-0.3-2.3v-29.1c0-5.3-1.7-10.5-4.9-14.8l-10.3,7.5l1.3,0.4v37.2l9.5,34
			l11.5-4.4L923.5,182.3z"/>
		<path class="st0" d="M932.1,214.1l-2.1-5.7l-9.7,3.6l0-0.1c-0.6-1.5-2.2-2.3-3.7-1.7l-1.6,0.6l1.7,4.6l-3.6,1.3
			c-2.9,1.1-4.4,4.3-3.3,7.1l0.5,1.4l20.1-7.4C931.9,217.3,932.7,215.6,932.1,214.1z"/>
		<circle class="st9" cx="868.6" cy="156" r="6.3"/>
	</g>
</g>
<g>
	<path class="st8" d="M969.1,225.1v450.7h57.3c16.4,0,29.7-13.3,29.7-29.7V254.8c0-16.4-13.3-29.7-29.7-29.7H969.1z"/>
	<path class="st6" d="M988,225.1H356.1c-17.5,0-31.8,14.2-31.8,31.8v418.9h695.3V256.9C1019.7,239.3,1005.5,225.1,988,225.1z"/>
	<path class="st5" d="M667.2,236.1c0,2.7,2.2,4.9,4.9,4.9c2.7,0,4.9-2.2,4.9-4.9c0-2.7-2.2-4.9-4.9-4.9
		C669.4,231.2,667.2,233.4,667.2,236.1z"/>
	<path class="st7" d="M345.6,676.9v-420c0-5.8,4.7-10.6,10.6-10.6H988c5.8,0,10.6,4.8,10.6,10.6V644c0,5.8-4.7,10.6-10.6,31.8
		C988,675.8,345.6,682.7,345.6,676.9z"/>
	<path class="st8" d="M1034,675.8H790.3v45.8h214.8c16,0,29-13,29-29V675.8z"/>
	<g class="st18">
		<path class="st8" d="M359.7,295.7v-26c0-5.1,4.2-9.3,9.3-9.3h606.2c5.1,0,9.3,4.2,9.3,9.3v26H359.7z"/>
		<path class="st6" d="M824.8,288.6h-242c-1.9,0-3.5-1.6-3.5-3.5v-12.2c0-1.9,1.6-3.5,3.5-3.5h242c1.9,0,3.5,1.6,3.5,3.5v12.2
			C828.4,287,826.8,288.6,824.8,288.6z"/>
		<rect x="952.9" y="269.4" class="st6" width="19.8" height="19.2"/>
		<g>
			<circle class="st6" cx="380.6" cy="278" r="12.4"/>
			<circle class="st5" cx="380.6" cy="278" r="4.9"/>
		</g>
		<g>
			<circle class="st6" cx="416.8" cy="278" r="12.4"/>
			<path class="st5" d="M411.9,278c0,2.7,2.2,4.9,4.9,4.9c2.7,0,4.9-2.2,4.9-4.9c0-2.7-2.2-4.9-4.9-4.9
				C414.1,273.2,411.9,275.3,411.9,278z"/>
		</g>
		<g>
			<circle class="st6" cx="452.9" cy="278" r="12.4"/>
			<path class="st5" d="M448.1,278c0,2.7,2.2,4.9,4.9,4.9c2.7,0,4.9-2.2,4.9-4.9c0-2.7-2.2-4.9-4.9-4.9
				C450.2,273.2,448.1,275.3,448.1,278z"/>
		</g>
	</g>
	<path class="st6" d="M815.2,675.8H119.9v18.3c0,15.2,12.3,27.6,27.6,27.6h640.2c15.2,0,27.6-12.3,27.6-27.6V675.8z"/>
	<path class="st5" d="M576.5,687.5H358.6c-6.4,0-11.7-5.2-11.7-11.7v0h241.2v0C588.1,682.3,582.9,687.5,576.5,687.5z"/>
	<g>
		<g>
			<g>
				<path class="st0" d="M641.7,667.6H376.5c-10.7,0-19.4-8.7-19.4-19.4V442.7c0-10.7,8.7-19.4,19.4-19.4h265.1
					c10.7,0,19.4,8.7,19.4,19.4v205.6C661,658.9,652.3,667.6,641.7,667.6z M376.5,428.3c-7.9,0-14.4,6.4-14.4,14.4v205.6
					c0,7.9,6.4,14.4,14.4,14.4h265.1c7.9,0,14.4-6.4,14.4-14.4V442.7c0-7.9-6.4-14.4-14.4-14.4H376.5z"/>
			</g>
		</g>
		<g>
			<path class="st0" d="M388.1,612.4h208.5c4,0,7.2,3.2,7.2,7.2l0,0c0,4-3.2,7.2-7.2,7.2H388.1c-4,0-7.2-3.2-7.2-7.2l0,0
				C380.9,615.6,384.1,612.4,388.1,612.4z"/>
			<path class="st0" d="M388.1,563h208.5c4,0,7.2,3.2,7.2,7.2l0,0c0,4-3.2,7.2-7.2,7.2H388.1c-4,0-7.2-3.2-7.2-7.2l0,0
				C380.9,566.2,384.1,563,388.1,563z"/>
			<path class="st0" d="M388.1,513.6h208.5c4,0,7.2,3.2,7.2,7.2l0,0c0,4-3.2,7.2-7.2,7.2H388.1c-4,0-7.2-3.2-7.2-7.2l0,0
				C380.9,516.8,384.1,513.6,388.1,513.6z"/>
			<path class="st0" d="M388.1,464.1h208.5c4,0,7.2,3.2,7.2,7.2l0,0c0,4-3.2,7.2-7.2,7.2H388.1c-4,0-7.2-3.2-7.2-7.2l0,0
				C380.9,467.4,384.1,464.1,388.1,464.1z"/>
			
				<ellipse transform="matrix(0.6429 -0.7659 0.7659 0.6429 -249.2287 704.6147)" class="st0" cx="631.1" cy="619.6" rx="7.5" ry="7.5"/>
			
				<ellipse transform="matrix(0.9769 -0.2137 0.2137 0.9769 -107.2816 148.0504)" class="st0" cx="631.1" cy="570.2" rx="7.5" ry="7.5"/>
			<circle class="st0" cx="631.1" cy="520.8" r="7.5"/>
			
				<ellipse transform="matrix(0.6429 -0.7659 0.7659 0.6429 -135.6817 651.6776)" class="st0" cx="631.1" cy="471.4" rx="7.5" ry="7.5"/>
		</g>
	</g>
	<path class="st19" d="M980.9,308.6H682.3c-1.9,0-3.5,1.6-3.5,3.5v349.4c0,1.9,1.6,3.5,3.5,3.5h298.6c1.9,0,3.5-1.6,3.5-3.5V312.2
		C984.4,310.2,982.9,308.6,980.9,308.6z"/>
	<path class="st20" d="M702.3,469.1V329.8c0-1.9,1.6-3.5,3.5-3.5h251.6c1.9,0,3.5,1.6,3.5,3.5v139.3c0,1.9-1.6,3.5-3.5,3.5H705.8
		C703.9,472.6,702.3,471,702.3,469.1z"/>
	<path class="st20" d="M702.3,489.7v153.9c0,1.9,1.6,3.5,3.5,3.5h251.6c1.9,0,3.5-1.6,3.5-3.5V489.7c0-1.9-1.6-3.5-3.5-3.5H705.8
		C703.9,486.2,702.3,487.8,702.3,489.7z"/>
</g>
<g>
	
		<rect x="656" y="149.5" transform="matrix(-1 -1.224647e-16 1.224647e-16 -1 1314.8724 325.5771)" class="st5" width="2.9" height="26.6"/>
	
		<rect x="639.9" y="149.5" transform="matrix(-1 -1.224647e-16 1.224647e-16 -1 1282.7423 325.5771)" class="st5" width="2.9" height="26.6"/>
	
		<rect x="672.1" y="149.5" transform="matrix(-1 -1.224647e-16 1.224647e-16 -1 1347.0028 325.5771)" class="st5" width="2.9" height="26.6"/>
	<polygon class="st6" points="690.3,180.8 670.8,214.9 657.7,214.9 657.7,180.8 	"/>
	
		<rect x="657.7" y="168.4" transform="matrix(-1 -1.224647e-16 1.224647e-16 -1 1347.9155 349.2132)" class="st6" width="32.6" height="12.4"/>
	<polygon class="st7" points="625.1,180.8 644.5,214.9 657.7,214.9 657.7,180.8 	"/>
	<rect x="625.1" y="168.4" class="st7" width="32.6" height="12.4"/>
	<path class="st5" d="M661.9,223.1c-0.4-0.1-0.8-0.2-1.2-0.3v-7.8h-6.6v7.9h0l0,0v0h0l8,8c2.6,2.6,2.6,6.8,0,9.3
		c-1.3,1.3-3,1.9-4.7,1.9c-1.7,0-3.4-0.6-4.7-1.9l-8.8-8.8c-0.8,1.8-1.2,3.8-1.2,5.9c0,8.2,6.7,14.9,14.9,14.9
		c6.2,0,11.6-3.8,13.8-9.3c0.7-1.7,1.1-3.6,1.1-5.6C672.6,230.6,668.1,224.9,661.9,223.1z"/>
</g>
<g>
	<g>
		<g>
			<path class="st11" d="M455.7,462.8c-0.7-0.8-1.7-1.3-2.8-1.3h-40.3c-1.6,0-3.1,1.1-3.4,2.7l-48.1,204.2h-9.9
				c-2,0-3.6,1.6-3.6,3.6s1.6,3.6,3.6,3.6h12.6h40.3c1.6,0,3.1-1.1,3.4-2.7l48.8-207.1C456.6,464.8,456.4,463.7,455.7,462.8z
				 M401.4,668.4h-33l47.1-199.8h33L401.4,668.4z"/>
			<g>
				<g>
					<rect x="369.3" y="646.8" class="st5" width="40.3" height="4.7"/>
					<rect x="374.7" y="623.7" class="st5" width="40.3" height="4.7"/>
					<rect x="380.1" y="600.7" class="st5" width="40.3" height="4.7"/>
					<rect x="385.6" y="577.7" class="st5" width="40.3" height="4.7"/>
					<rect x="391" y="554.7" class="st5" width="40.3" height="4.7"/>
					<rect x="396.4" y="531.7" class="st5" width="40.3" height="4.7"/>
					<rect x="401.8" y="508.7" class="st5" width="40.3" height="4.7"/>
					<rect x="407.3" y="485.7" class="st5" width="40.3" height="4.7"/>
					<rect x="412.7" y="462.7" class="st21" width="40.3" height="4.7"/>
				</g>
			</g>
		</g>
	</g>
	<path class="st22" d="M516.2,668.4h-9.9l-48.1-204.2c-0.4-1.6-1.8-2.7-3.4-2.7h-40.3c-1.1,0-2.1,0.5-2.8,1.3c-0.7,0.8-0.9,2-0.7,3
		l48.8,207.1c0.4,1.6,1.8,2.7,3.4,2.7h40.3h12.6c2,0,3.6-1.6,3.6-3.6C519.8,670,518.2,668.4,516.2,668.4z M456.6,628.5h33l4.3,18.3
		h-33L456.6,628.5z M461.4,508.7h-33l-4.3-18.3h33L461.4,508.7z M462.5,513.4l4.3,18.3h-33l-4.3-18.3H462.5z M467.9,536.4l4.3,18.3
		h-33l-4.3-18.3H467.9z M473.4,559.4l4.3,18.3h-33l-4.3-18.3H473.4z M478.8,582.4l4.3,18.3h-33l-4.3-18.3H478.8z M484.2,605.4
		l4.3,18.3h-33l-4.3-18.3H484.2z M451.9,468.5l4,17.1h-33l-4-17.1H451.9z M462,651.5h33l4,16.9h-33L462,651.5z"/>
</g>
<g>
	<path class="st7" d="M842.3,361.6h214.3c8.5,0,15.4,6.9,15.4,15.4v329.3c0,8.5-6.9,15.4-15.4,15.4H842.3c-8.5,0-15.4-6.9-15.4-15.4
		V376.9C826.9,368.4,833.8,361.6,842.3,361.6z"/>
	<path class="st8" d="M863.5,361.6h214.3c8.5,0,15.4,6.9,15.4,15.4v329.3c0,8.5-6.9,15.4-15.4,15.4H863.5c-8.5,0-15.4-6.9-15.4-15.4
		V376.9C848.1,368.4,855,361.6,863.5,361.6z"/>
	<path class="st7" d="M1072,692V391.2c0-4.7-3.8-8.5-8.5-8.5H877.7c-4.7,0-8.5,3.8-8.5,8.5V692c0,4.7,3.8,8.5,8.5,8.5h185.8
		C1068.2,700.5,1072,696.7,1072,692z"/>
	<path class="st23" d="M1072,391.2v25.4h-15.9c-8.7,0-15.8,7.1-15.8,15.8v37.3c0,3.9-1.6,7.4-4.1,10c-2.6,2.6-6.1,4.1-10,4.1
		c-7.8,0-14.1-6.3-14.1-14.1v-37.1c0-4-1.6-7.7-4.3-10.3c-2.6-2.6-6.3-4.3-10.3-4.3c-8,0-14.6,6.5-14.6,14.6v69.7
		c0,3.4-1.4,6.4-3.6,8.6c-2.2,2.2-5.3,3.6-8.6,3.6c-6.8,0-12.2-5.5-12.2-12.2v-25.7c0-3.5-1.4-6.7-3.7-9c-2.3-2.3-5.5-3.7-9-3.7
		c-7,0-12.7,5.7-12.7,12.7v223.9h-55.4c-4.7,0-8.5-3.8-8.5-8.5V391.2c0-4.7,3.8-8.5,8.5-8.5h185.8
		C1068.2,382.7,1072,386.5,1072,391.2z"/>
	<path class="st6" d="M1072,391.2v25.4h-15.9c-8.7,0-15.8,7.1-15.8,15.8v37.3c0,3.9-1.6,7.4-4.1,10c-2.6,2.6-6.1,4.1-10,4.1
		c-7.8,0-14.1-6.3-14.1-14.1v-37.1c0-4-1.6-7.7-4.3-10.3c-2.6-2.6-6.3-4.3-10.3-4.3c-8,0-14.6,6.5-14.6,14.6v69.7
		c0,3.4-1.4,6.4-3.6,8.6c-2.2,2.2-5.3,3.6-8.6,3.6c-6.8,0-12.2-5.5-12.2-12.2v-25.7c0-3.5-1.4-6.7-3.7-9c-2.3-2.3-5.5-3.7-9-3.7
		c-7,0-12.7,5.7-12.7,12.7v223.9h-55.4c-4.7,0-8.5-3.8-8.5-8.5V391.2c0-4.7,3.8-8.5,8.5-8.5h185.8
		C1068.2,382.7,1072,386.5,1072,391.2z"/>
</g>
<g>
	<g>
		<g>
			<path class="st5" d="M797.4,582.6h-13.7c-8.7,0-15.9-7.1-15.9-15.9c0-9,7.3-16.3,16.3-16.3h21v2.4h-21c-7.7,0-13.9,6.3-13.9,13.9
				c0,7.4,6.1,13.5,13.5,13.5h13.7V582.6z"/>
		</g>
	</g>
	<polygon class="st7" points="822.5,550.5 822.5,552 822.2,556.5 820.2,594.8 782.5,594.8 780.5,556.5 780.3,552 780.2,550.5 	"/>
	<polygon class="st11" points="822.5,552 822.2,556.5 780.5,556.5 780.3,552 	"/>
	<path class="st5" d="M789.6,550.5v20.8c0,2.8,2.3,5.1,5.1,5.1l0,0c2.8,0,5.1-2.3,5.1-5.1v-10.5c0-1.8,1.5-3.3,3.3-3.3l0,0
		c1.8,0,3.3,1.5,3.3,3.3v2.3c0,2.8,2.3,5.1,5.1,5.1l0,0c2.8,0,5.1-2.3,5.1-5.1v-12.5H789.6z"/>
</g>
<g>
	<path class="st9" d="M867.8,536.9h-3.1c-2.6,0-4.8-2.1-4.8-4.8v-61.8h7.8V536.9z"/>
	<g>
		<g>
			<path class="st5" d="M936.2,438h-2v-19.7c0-3,2.5-5.5,5.5-5.5h8.8c0.7,0,1.4-0.6,1.4-1.4V406c0-0.7-0.6-1.4-1.4-1.4h-1.5v-2h1.5
				c1.8,0,3.4,1.5,3.4,3.4v5.4c0,1.8-1.5,3.4-3.4,3.4h-8.8c-1.9,0-3.5,1.6-3.5,3.5V438z"/>
		</g>
	</g>
	<path class="st9" d="M945.2,428.2c0-4.5-3.6-8.1-8.1-8.1c-4.5,0-8.1,3.6-8.1,8.1c0,1.4,0.3,2.7,1,3.8v9.1c0,7.5-6.1,13.5-13.5,13.5
		h-10.7V466h10.7c13.7,0,24.9-11.2,24.9-24.9v-6C943.7,433.7,945.2,431.1,945.2,428.2z"/>
	<g>
		<path class="st2" d="M864.9,517.3v-48h-4.8V465c0-5.9,4.8-10.8,10.8-10.8h1.5v0.1l1.1,0l0.2,0c0.1,0,0.2,0,0.4,0h32.4v12.3h-6.9
			v50.9H864.9z"/>
		<path class="st5" d="M905.4,455.2v10.3h-4.9h-2v2v33.5v15.4h-32.6v-46v-2h-2h-2.8V465c0-5.4,4.4-9.8,9.8-9.8h0.5v0.2l2.1-0.1
			l0.2,0c0.1,0,0.2,0,0.3,0h22.1h4.4H905.4 M907.4,453.2h-6.9h-4.4H874c-0.2,0-0.4,0-0.6,0v0H871c-6.5,0-11.8,5.3-11.8,11.8v5.3h4.8
			v48h36.6v-17.4v-33.5h6.9V453.2L907.4,453.2z"/>
	</g>
	<path class="st2" d="M892.6,594.7H864v-5.2h28.5c1.4,0,2.6,1.2,2.6,2.6l0,0C895.2,593.5,894,594.7,892.6,594.7z"/>
	
		<rect x="863.9" y="487.5" transform="matrix(-1 -1.224647e-16 1.224647e-16 -1 1764.4532 1005.8622)" class="st5" width="36.6" height="30.8"/>
	<rect x="883.7" y="518.3" class="st5" width="16.9" height="71.1"/>
	<rect x="863.9" y="518.3" class="st5" width="16.9" height="71.1"/>
	<path class="st0" d="M912.2,594.7h-28.5v-5.2h28.5c1.4,0,2.6,1.2,2.6,2.6l0,0C914.8,593.5,913.6,594.7,912.2,594.7z"/>
	<g>
		<path class="st9" d="M876.7,452.2H889c5.7,0,10.3-4.6,10.3-10.3v-9.3h-22.6V452.2z"/>
		<path class="st5" d="M875.5,432.5v13.7h-0.4c-0.8,0-1.5,0.7-1.5,1.5c0,0.8,0.7,1.5,1.5,1.5h0.4h11.2c3.1,0,5.7-2.6,5.7-5.7v-10.9
			H875.5z"/>
		<g>
			<path class="st5" d="M873.8,430.4h30c0.6,0,1.1,0.5,1.1,1.1l0,0c0,0.6-0.5,1.1-1.1,1.1h-30V430.4z"/>
			<path class="st5" d="M886.8,418.1h2c6.8,0,12.3,5.5,12.3,12.3l0,0h-26.6l0,0C874.5,423.6,880,418.1,886.8,418.1z"/>
			<path class="st5" d="M877.7,434.6h12.2c0.8,0,1.4-0.6,1.4-1.4v-0.7h-15.7l0,0C875.5,433.6,876.5,434.6,877.7,434.6z"/>
		</g>
		<path class="st9" d="M882.1,458.7L882.1,458.7c-3,0-5.4-2.4-5.4-5.4v-1.1h10.7v1.1C887.4,456.3,885,458.7,882.1,458.7z"/>
	</g>
	
		<rect x="890.6" y="453.2" transform="matrix(-1 -1.224647e-16 1.224647e-16 -1 1786.0115 944.9146)" class="st5" width="4.9" height="38.5"/>
	
		<rect x="868.9" y="453.2" transform="matrix(-1 -1.224647e-16 1.224647e-16 -1 1742.7727 944.9146)" class="st5" width="4.9" height="38.5"/>
	<path class="st11" d="M921.1,400.7v6c0,1.9,1.5,3.4,3.4,3.4H944c1.9,0,3.4-1.5,3.4-3.4v-6c0-1.9-1.5-3.4-3.4-3.4h-19.5
		C922.6,397.3,921.1,398.8,921.1,400.7z"/>
</g>
<g>
	<g>
		<g>
			<polygon class="st2" points="1057.1,721.2 1054.9,679.9 1094.1,679.9 1091.9,721.2 			"/>
			<path class="st5" d="M1092.5,681.4l-2,38.3h-32l-2-38.3H1092.5 M1095.6,678.4h-42.4l2.4,44.3h37.6L1095.6,678.4L1095.6,678.4z"/>
		</g>
		<polygon class="st5" points="1095.5,680.7 1095.6,678.4 1053.3,678.4 1053.4,680.7 		"/>
		<path class="st5" d="M1095.6,678c-0.7,0-1.2,0.5-1.2,1.2v6.9c0,6.7-5.4,12.1-12.1,12.1h-7.9h-7.9c-6.7,0-12.1-5.4-12.1-12.1v-6.9
			c0-0.7-0.5-1.2-1.2-1.2s-1.2,0.5-1.2,1.2v6.9c0,8,6.5,14.5,14.5,14.5h7.9h7.9c8,0,14.5-6.5,14.5-14.5v-6.9
			C1096.8,678.5,1096.3,678,1095.6,678z"/>
	</g>
	<g>
		<g>
			<polygon class="st0" points="1018.8,721.2 1016.7,679.9 1055.8,679.9 1053.7,721.2 			"/>
			<path class="st5" d="M1054.3,681.4l-2,38.3h-32l-2-38.3H1054.3 M1057.4,678.4h-42.4l2.4,44.3h37.6L1057.4,678.4L1057.4,678.4z"/>
		</g>
		<polygon class="st5" points="1057.3,680.7 1057.4,678.4 1015.1,678.4 1015.2,680.7 		"/>
		<path class="st5" d="M1057.4,678c-0.7,0-1.2,0.5-1.2,1.2v6.9c0,6.7-5.4,12.1-12.1,12.1h-7.9h-7.9c-6.7,0-12.1-5.4-12.1-12.1v-6.9
			c0-0.7-0.5-1.2-1.2-1.2c-0.7,0-1.2,0.5-1.2,1.2v6.9c0,8,6.5,14.5,14.5,14.5h7.9h7.9c8,0,14.5-6.5,14.5-14.5v-6.9
			C1058.6,678.5,1058.1,678,1057.4,678z"/>
	</g>
	<g>
		<g>
			<polygon class="st0" points="1024.5,679.9 1022.3,638.6 1061.5,638.6 1059.3,679.9 			"/>
			<path class="st5" d="M1060,640.1l-2,38.3h-32l-2-38.3H1060 M1063.1,637.1h-42.4l2.4,44.3h37.6L1063.1,637.1L1063.1,637.1z"/>
		</g>
		<polygon class="st5" points="1063,639.4 1063.1,637.1 1020.8,637.1 1020.9,639.4 		"/>
		<path class="st5" d="M1063.1,636.6c-0.7,0-1.2,0.5-1.2,1.2v6.9c0,6.7-5.4,12.1-12.1,12.1h-7.9h-7.9c-6.7,0-12.1-5.4-12.1-12.1
			v-6.9c0-0.7-0.5-1.2-1.2-1.2c-0.7,0-1.2,0.5-1.2,1.2v6.9c0,8,6.5,14.5,14.5,14.5h7.9h7.9c8,0,14.5-6.5,14.5-14.5v-6.9
			C1064.3,637.2,1063.8,636.6,1063.1,636.6z"/>
	</g>
	<g>
		<g>
			<polygon class="st2" points="983.3,721.2 981.1,679.9 1020.3,679.9 1018.1,721.2 			"/>
			<path class="st5" d="M1018.8,681.4l-2,38.3h-32l-2-38.3H1018.8 M1021.9,678.4h-42.4l2.4,44.3h37.6L1021.9,678.4L1021.9,678.4z"/>
		</g>
		<polygon class="st5" points="1021.8,680.7 1021.9,678.4 979.6,678.4 979.7,680.7 		"/>
		<path class="st5" d="M1021.9,678c-0.7,0-1.2,0.5-1.2,1.2v6.9c0,6.7-5.4,12.1-12.1,12.1h-7.9h-7.9c-6.7,0-12.1-5.4-12.1-12.1v-6.9
			c0-0.7-0.5-1.2-1.2-1.2c-0.7,0-1.2,0.5-1.2,1.2v6.9c0,8,6.5,14.5,14.5,14.5h7.9h7.9c8,0,14.5-6.5,14.5-14.5v-6.9
			C1023.1,678.5,1022.6,678,1021.9,678z"/>
	</g>
	<g>
		<g>
			<polygon class="st2" points="986.8,679.9 984.6,638.6 1023.8,638.6 1021.6,679.9 			"/>
			<path class="st5" d="M1022.3,640.1l-2,38.3h-32l-2-38.3H1022.3 M1025.4,637.1h-42.4l2.4,44.3h37.6L1025.4,637.1L1025.4,637.1z"/>
		</g>
		<polygon class="st5" points="1025.3,639.4 1025.4,637.1 983.1,637.1 983.2,639.4 		"/>
		<path class="st5" d="M1025.4,636.6c-0.7,0-1.2,0.5-1.2,1.2v6.9c0,6.7-5.4,12.1-12.1,12.1h-7.9h-7.9c-6.7,0-12.1-5.4-12.1-12.1
			v-6.9c0-0.7-0.5-1.2-1.2-1.2c-0.7,0-1.2,0.5-1.2,1.2v6.9c0,8,6.5,14.5,14.5,14.5h7.9h7.9c8,0,14.5-6.5,14.5-14.5v-6.9
			C1026.6,637.2,1026.1,636.6,1025.4,636.6z"/>
	</g>
</g>
<g>
	<polygon class="st11" points="948.5,690.4 907.7,646.9 948,604.1 942.8,599.2 902.8,641.8 862.8,599.2 857.7,604.1 898,646.9 
		857.1,690.4 862.2,695.2 902.8,652.1 943.4,695.2 	"/>
	<polygon class="st22" points="863.6,690.4 822.8,646.9 863,604.1 857.9,599.2 817.9,641.8 777.9,599.2 772.8,604.1 813.1,646.9 
		772.2,690.4 777.3,695.2 817.9,652.1 858.5,695.2 	"/>
	<rect x="860.4" y="594.9" class="st11" width="88.4" height="8.6"/>
	<rect x="771.9" y="594.9" class="st22" width="88.4" height="8.6"/>
	
		<rect x="941.7" y="603.6" transform="matrix(-1 -1.224647e-16 1.224647e-16 -1 1890.5323 1325.1917)" class="st11" width="7.1" height="118.1"/>
	<rect x="771.9" y="603.6" class="st22" width="7.1" height="118.1"/>
	<path class="st11" d="M946.1,699.9L946.1,699.9c0,1.9-1.6,3.5-3.5,3.5h-82.5v-7.1h82.5C944.5,696.3,946.1,697.9,946.1,699.9z"/>
	<path class="st22" d="M861.2,696.3v7.1h-82.5c-1.9,0-3.5-1.6-3.5-3.5l0,0c0-1.9,1.6-3.5,3.5-3.5H861.2z"/>
	<polygon class="st22" points="860.4,603.6 860.4,603.6 856.8,603.6 856.8,721.6 860.4,721.6 863.9,721.6 863.9,603.6 863.9,603.6 	
		"/>
</g>
<path class="st6" d="M970.8,556.7L970.8,556.7c-6.8,0-12.3-5.5-12.3-12.3v-1.7c0-6.8,5.5-12.3,12.3-12.3l0,0
	c6.8,0,12.3,5.5,12.3,12.3v1.7C983.1,551.2,977.6,556.7,970.8,556.7z"/>
<g>
	<path class="st9" d="M744.6,440.8L744.6,440.8h-6.1h-3.8c-1.2,0-2.2,1-2.2,2.2c0,1.2,1,2.2,2.2,2.2h3.8v3.6c-0.1,0-0.1,0-0.2,0
		c-1.3,0-2.4,1.1-2.4,2.4c0,1.3,1.1,2.4,2.4,2.4c0.1,0,0.1,0,0.2,0v1h12.3V447C750.8,443.5,748,440.8,744.6,440.8z"/>
	<g>
		<g>
			<path class="st15" d="M743.6,549.8h-5.5v-95.4h12.7v88.2C750.9,546.6,747.6,549.8,743.6,549.8z"/>
		</g>
	</g>
	<g>
		<path class="st22" d="M718.9,501.4c-0.6,1.8,0.4,3.7,2.2,4.2c1.8,0.6,3.7-0.4,4.2-2.2c0.6-1.8-0.4-3.7-2.2-4.2
			C721.4,498.7,719.5,499.6,718.9,501.4z"/>
		<path class="st5" d="M716.3,511.7l5.6,1.8l1.5-4.5l-2.4-0.8c-1.8-0.6-3.6,0.4-4.2,2.2L716.3,511.7z"/>
		<path class="st9" d="M724.2,496.3l-3.7,11.4c-2,6.2,1,12.8,6.7,15.5l-1.5,4.5l6.7,2.2l7.6,2.5l1.4-4.4l7.6-23.5L724.2,496.3z"/>
		<path class="st5" d="M747.5,515.5l-14.4-4.7c-3.9-1.3-6-5.4-4.8-9.3l0.1-0.3l21.4,6.9L747.5,515.5z"/>
		<g>
			<path class="st5" d="M748.8,513.9L720.6,492c-0.6-0.5-1.6-0.4-2,0.3l0,0c-0.5,0.6-0.4,1.6,0.3,2l28.2,21.8c0.6,0.5,1.6,0.4,2-0.3
				l0,0C749.5,515.3,749.4,514.3,748.8,513.9z"/>
			<path class="st22" d="M747.6,491.2l-2.7-2.1c-6.1-4.8-15-3.6-19.7,2.5l-1.9,2.4l25,19.4l1.9-2.4
				C754.8,504.8,753.7,496,747.6,491.2z"/>
		</g>
	</g>
	<g>
		<g>
			<polygon class="st24" points="686.5,531.1 663,527.9 663,572 686.5,575.2 			"/>
			<polygon class="st24" points="733.4,531.1 709.9,527.9 709.9,572 733.4,575.2 			"/>
			<polygon class="st25" points="686.5,531.1 709.9,527.9 709.9,572 686.5,575.2 			"/>
		</g>
	</g>
	<path class="st9" d="M663.1,566.2c-0.9,3.9,1.5,7.8,5.4,8.8c3.9,0.9,7.8-1.5,8.8-5.4c0.9-3.9-1.5-7.8-5.4-8.8
		C667.9,559.8,664,562.3,663.1,566.2z"/>
	<path class="st11" d="M701.4,608.5V663l12.8,53h11.5l-6.3-52.5l1.7-35.8c0.1-1.2,1-2.1,2.2-2.1l0,0c1.2,0,2.1,0.9,2.2,2l6.1,88.4
		H744V608.5H701.4z"/>
	<g>
		<g>
			<path class="st5" d="M744.9,608.5h-44.6v-4.7c0-22.1,2.7-44,8.1-65.3c2.1-8.4,10.9-13.4,19.2-10.8l14.6,4.6
				c7.1,2.2,11.3,9.6,9.5,16.9c-4.5,17.8-6.8,36.2-6.8,54.6V608.5z"/>
		</g>
	</g>
	<g>
		<g>
			<path class="st5" d="M687.7,580.5l-16.3-3.9l3.7-15.3l16.3,3.9c5.6,1.3,11.1-2.1,12.5-7.6l5.2-21.7c1-4.2,5.2-6.8,9.5-5.8l0,0
				c4.2,1,6.8,5.2,5.8,9.5l-5.2,21.7C715.7,575.2,701.7,583.8,687.7,580.5z"/>
			<path class="st26" d="M719.1,561.2c-2.2,9.1-8.9,15.9-17.1,18.6"/>
		</g>
	</g>
	<path class="st5" d="M714.2,721.6h30.6v-5.9h-24.7C716.8,715.7,714.2,718.4,714.2,721.6L714.2,721.6z"/>
	<path class="st5" d="M695.8,721.6h29.8v-5.9h-23.9C698.4,715.7,695.8,718.4,695.8,721.6L695.8,721.6z"/>
</g>
<g>
	<ellipse class="st2" cx="1023.1" cy="73.7" rx="36.9" ry="36.7"/>
	<ellipse class="st9" cx="1023.1" cy="73.7" rx="25.1" ry="25"/>
	<ellipse class="st17" cx="1023.1" cy="73.7" rx="18.4" ry="18.3"/>
</g>
<g>
	<g>
		<path class="st1" d="M1124.4,150.2v-1.4c0-4.2,3.4-7.5,7.6-7.5h11.1c4.6,0,8.3-3.7,8.3-8.2v0c0-4.5-3.7-8.2-8.3-8.2h-55.4
			c-5,0-9,4-9,8.9l0,0c0,4.9,4,8.9,9,8.9h15.5c4.2,0,7.6,3.4,7.6,7.5l0,0c0,4.2-3.4,7.5-7.6,7.5h-39c-4.7,0-8.5,3.8-8.5,8.5l0,0
			c0,4.7,3.8,8.5,8.5,8.5h100.8c4.7,0,8.5-3.8,8.5-8.5l0,0c0-4.7-3.8-8.5-8.5-8.5H1132C1127.8,157.7,1124.4,154.3,1124.4,150.2z"/>
		<path class="st1" d="M1031.6,157.7h6.2c4.7,0,8.5,3.8,8.5,8.5l0,0c0,4.7-3.8,8.5-8.5,8.5h-6.2c-4.7,0-8.5-3.8-8.5-8.5l0,0
			C1023.1,161.5,1026.9,157.7,1031.6,157.7z"/>
	</g>
</g>
<g>
	<path class="st1" d="M506.6,54.7H527c4.4,0,8,3.6,8,8v0c0,4.4-3.6,8-8,8h-20.4c-4.4,0-8-3.6-8-8v0
		C498.6,58.3,502.1,54.7,506.6,54.7z"/>
	<path class="st1" d="M448.4,47.3V46c0-4,3.2-7.2,7.2-7.2h10.5c4.4,0,7.9-3.5,7.9-7.9l0,0c0-4.3-3.5-7.9-7.9-7.9H396
		c-4.7,0-8.6,3.8-8.6,8.5l0,0c0,4.7,3.8,8.5,8.6,8.5h14.8c4,0,7.2,3.2,7.2,7.2l0,0c0,4-3.2,7.2-7.2,7.2h-45.9
		c-4.5,0-8.1,3.6-8.1,8.1l0,0c0,4.5,3.6,8.1,8.1,8.1h113.4c4.5,0,8.1-3.6,8.1-8.1l0,0c0-4.5-3.6-8.1-8.1-8.1h-22.7
		C451.6,54.5,448.4,51.3,448.4,47.3z"/>
</g>
<g>
	<g>
		<rect x="656.5" y="242.2" class="st5" width="2" height="61.2"/>
	</g>
	<g>
		
			<rect x="600.1" y="274.1" transform="matrix(0.4433 -0.8964 0.8964 0.4433 108.3848 724.7968)" class="st5" width="75.3" height="2"/>
	</g>
	<g>
		
			<rect x="673.4" y="238.2" transform="matrix(0.8964 -0.4433 0.4433 0.8964 -49.5047 326.8747)" class="st5" width="2" height="62.3"/>
	</g>
	<path class="st27" d="M516.7,337.3l261.3-49.5c8.9-1.7,17.6,4.2,19.2,13.1l14.1,74.4c1.7,8.9-4.2,17.6-13.1,19.2l-261.3,49.5
		c-8.9,1.7-17.6-4.2-19.2-13.1l-14.1-74.4C501.9,347.7,507.8,339,516.7,337.3z"/>
	<path class="st7" d="M485.5,326.6l261.3-49.5c8.9-1.7,17.6,4.2,19.2,13.1l14.1,74.4c1.7,8.9-4.2,17.6-13.1,19.2l-261.3,49.5
		c-8.9,1.7-17.6-4.2-19.2-13.1l-14.1-74.4C470.7,337,476.6,328.3,485.5,326.6z"/>
	<path class="st0" d="M767,354.2c-1.5-7.7-8.2-13.3-16.1-13.3h0c-1,0-2,0.1-3.1,0.3l-179.2,33.9c-4.3,0.8-8,3.2-10.5,6.9
		c-2.5,3.6-3.4,8-2.6,12.3c1.5,7.7,8.2,13.3,16.1,13.3c1,0,2-0.1,3.1-0.3L754,373.3C762.8,371.6,768.7,363,767,354.2z M753.2,369.3
		L574,403.3c-0.8,0.1-1.6,0.2-2.3,0.2c-5.8,0-11-4.1-12.1-10.1c-1.3-6.7,3.1-13.2,9.8-14.4l179.2-33.9c0.8-0.1,1.6-0.2,2.3-0.2
		c5.8,0,11,4.1,12.1,10.1C764.3,361.6,759.9,368.1,753.2,369.3z"/>
	<path class="st0" d="M757.7,304.9c-1.5-7.7-8.2-13.3-16.1-13.3c-1,0-2,0.1-3.1,0.3l-179.2,33.9c-4.3,0.8-8,3.2-10.5,6.9
		c-2.5,3.6-3.4,8-2.6,12.3c1.5,7.7,8.2,13.3,16.1,13.3c1,0,2-0.1,3.1-0.3L744.6,324c4.3-0.8,8-3.2,10.5-6.9
		C757.6,313.5,758.5,309.2,757.7,304.9z M743.9,320.1L564.7,354c-0.8,0.1-1.6,0.2-2.3,0.2c-5.8,0-11-4.1-12.1-10.1
		c-1.3-6.7,3.1-13.2,9.8-14.4l179.2-33.9c0.8-0.1,1.6-0.2,2.3-0.2c5.8,0,11,4.1,12.1,10.1C755,312.3,750.6,318.8,743.9,320.1z"/>
	<path class="st2" d="M512.3,334l-12.4,2.3c-9.2,1.8-15.3,10.7-13.6,19.9c1.8,9.2,10.7,15.3,19.9,13.6l12.4-2.3
		c9.2-1.8,15.3-10.7,13.6-19.9C530.5,338.4,521.5,332.3,512.3,334L512.3,334z"/>
	<path class="st2" d="M521.6,383.3l-12.4,2.3c-9.2,1.8-15.3,10.7-13.6,19.9c1.8,9.2,10.7,15.3,19.9,13.6l12.4-2.3
		c9.2-1.8,15.3-10.7,13.6-19.9C539.8,387.6,530.8,381.5,521.6,383.3L521.6,383.3z"/>
	<g>
		<g>
			<path class="st0" d="M590.3,336.6c-0.8-4-4.7-6.7-8.7-5.9c-4,0.8-6.7,4.7-5.9,8.7c0.8,4,4.7,6.7,8.7,5.9S591,340.6,590.3,336.6z"
				/>
			
				<ellipse transform="matrix(0.5249 -0.8512 0.8512 0.5249 7.1002 678.0894)" class="st0" cx="610.9" cy="332.7" rx="7.5" ry="7.5"/>
			<path class="st0" d="M646.2,326c-0.8-4-4.7-6.7-8.7-5.9c-4,0.8-6.7,4.7-5.9,8.7c0.8,4,4.7,6.7,8.7,5.9
				C644.3,333.9,647,330,646.2,326z"/>
			<path class="st0" d="M674.2,320.7c-0.8-4-4.7-6.7-8.7-5.9c-4,0.8-6.7,4.7-5.9,8.7c0.8,4,4.7,6.7,8.7,5.9
				C672.3,328.6,674.9,324.7,674.2,320.7z"/>
			<path class="st0" d="M702.1,315.4c-0.8-4-4.7-6.7-8.7-5.9c-4,0.8-6.7,4.7-5.9,8.7c0.8,4,4.7,6.7,8.7,5.9
				C700.3,323.3,702.9,319.4,702.1,315.4z"/>
			<path class="st0" d="M730.1,310.1c-0.8-4-4.7-6.7-8.7-5.9s-6.7,4.7-5.9,8.7c0.8,4,4.7,6.7,8.7,5.9S730.9,314.2,730.1,310.1z"/>
		</g>
	</g>
	<g>
		<g>
			<path class="st0" d="M599.6,385.9c-0.8-4-4.7-6.7-8.7-5.9s-6.7,4.7-5.9,8.7c0.8,4,4.7,6.7,8.7,5.9S600.4,389.9,599.6,385.9z"/>
			<path class="st0" d="M627.6,380.6c-0.8-4-4.7-6.7-8.7-5.9c-4,0.8-6.7,4.7-5.9,8.7c0.8,4,4.7,6.7,8.7,5.9
				C625.7,388.5,628.3,384.6,627.6,380.6z"/>
			<path class="st0" d="M655.5,375.3c-0.8-4-4.7-6.7-8.7-5.9s-6.7,4.7-5.9,8.7c0.8,4,4.7,6.7,8.7,5.9S656.3,379.3,655.5,375.3z"/>
			
				<ellipse transform="matrix(0.5688 -0.8225 0.8225 0.5688 -13.8554 716.2726)" class="st0" cx="676.2" cy="371.4" rx="7.5" ry="7.5"/>
			<path class="st0" d="M711.5,364.7c-0.8-4-4.7-6.7-8.7-5.9c-4,0.8-6.7,4.7-5.9,8.7c0.8,4,4.7,6.7,8.7,5.9
				C709.6,372.6,712.2,368.7,711.5,364.7z"/>
			<path class="st0" d="M739.4,359.4c-0.8-4-4.7-6.7-8.7-5.9c-4,0.8-6.7,4.7-5.9,8.7c0.8,4,4.7,6.7,8.7,5.9
				C737.6,367.3,740.2,363.4,739.4,359.4z"/>
		</g>
	</g>
</g>
<g>
	<g>
		<path class="st1" d="M679,40h33.7c4.4,0,8,3.6,8,8v0c0,4.4-3.6,8-8,8H679c-4.4,0-8-3.6-8-8v0C671,43.6,674.6,40,679,40z"/>
		<path class="st1" d="M738.4,40h6.9c4.4,0,8,3.6,8,8v0c0,4.4-3.6,8-8,8h-6.9c-4.4,0-8-3.6-8-8v0C730.4,43.6,734,40,738.4,40z"/>
	</g>
</g>
<g>
	<g>
		<g>
			<path class="st0" d="M488.8,347.3l-11.1-7.6c-6.8-4.7-14.7-7.6-22.9-8.6l-20.2-2.3l1-8.9l20.2,2.3c9.6,1.1,19,4.6,27,10.1
				l11.1,7.6L488.8,347.3z"/>
		</g>
	</g>
	<path class="st0" d="M405.6,398.7h-3.1c-2.6,0-4.8-2.1-4.8-4.8v-61.8h7.8V398.7z"/>
	<path class="st5" d="M448.3,320h-6.9h-11.5h-15c-1.5,0-2.9,0.3-4.1,0.9V320h-2.5c-6.5,0-11.8,5.3-11.8,11.8v5.3h8.3v48h36.6v-53.7
		h6.9V320z"/>
	<path class="st14" d="M441.4,367.7V453h-15.9v-65c0-1.6-1.3-2.9-2.9-2.9l0,0c-1.6,0-2.9,1.3-2.9,2.9v65h-14.9v-85.3
		c0.7,0,1.4-0.3,1.9-0.8c0.5-0.5,0.8-1.1,0.8-1.9v-24.7h1.3V320h4.9v20.4h17.8V320h4.9v20.4h2.4V365c0,0.7,0.3,1.4,0.8,1.9
		C440,367.4,440.7,367.7,441.4,367.7z"/>
	<g>
		<g>
			<polygon class="st5" points="453.8,457.5 453.8,460 425.2,460 425.2,453 438.8,453 439,453 441.1,453.7 442.2,454 444.3,454.7 
				445.4,455 			"/>
			<rect x="425.2" y="460" class="st5" width="28.6" height="1.4"/>
		</g>
	</g>
	<g>
		<path class="st0" d="M422.2,325.4L422.2,325.4c-2.7,0-5-2.2-5-5v-4.6h9.9v4.6C427.1,323.2,424.9,325.4,422.2,325.4z"/>
		<g>
			<path class="st0" d="M431.7,307.1L431.7,307.1v-4.9h0.6c1.2,0,2.1,1,2.1,2.1l0,0C434.5,305.9,433.2,307.1,431.7,307.1z"/>
			<path class="st5" d="M413.3,312.4L413.3,312.4v-11.1h2.8v8.3C416.1,311.1,414.9,312.4,413.3,312.4z"/>
			<path class="st21" d="M412.2,298.7c0,3.3,2.7,6.1,6.1,6.1s6.1-2.7,6.1-6.1c0-3.3-2.7-6.1-6.1-6.1S412.2,295.3,412.2,298.7z"/>
			<path class="st0" d="M425.8,294.4h-2.3c-4.8,0-8.7,3.9-8.7,8.7v8.3c0,5,4,9,9,9l0,0c5,0,9-4,9-9v-10
				C432.8,297.5,429.7,294.4,425.8,294.4z"/>
			<path class="st5" d="M421.9,313.4c0-1.6,1.6-2.8,3.6-2.8c2,0,3.6,1.3,3.6,2.8H421.9z"/>
			<path class="st0" d="M415.5,307.1L415.5,307.1v-4.9h-0.6c-1.2,0-2.1,1-2.1,2.1l0,0C412.7,305.9,414,307.1,415.5,307.1z"/>
			<path class="st21" d="M420.2,294.7h-5.6v7.6l0,0c3.1,0,5.6-2.5,5.6-5.6V294.7z"/>
		</g>
	</g>
	<g>
		<polygon class="st5" points="433.6,457.5 433.6,460 404.9,460 404.9,453 418.6,453 418.8,453 420.9,453.7 422,454 424.1,454.7 
			425.2,455 		"/>
		<polyline class="st5" points="433.6,460 433.6,461.5 404.9,461.5 404.9,460 		"/>
	</g>
	<path class="st25" d="M436.9,300.3h-1c0-6.3-5.1-11.5-11.5-11.5h-1.9c-6.3,0-11.5,5.1-11.5,11.5h-0.2v2.3h26c0.6,0,1.1-0.5,1.1-1.1
		S437.5,300.3,436.9,300.3z"/>
	<path class="st0" d="M402.5,390.4c0,1.3,1,2.3,2.3,2.3c1.3,0,2.3-1,2.3-2.3c0-1.3-1-2.3-2.3-2.3C403.5,388,402.5,389.1,402.5,390.4
		z"/>
	<path class="st0" d="M482.9,343.6c0,3.5,2.8,6.3,6.3,6.3s6.3-2.8,6.3-6.3s-2.8-6.3-6.3-6.3S482.9,340.1,482.9,343.6z"/>
</g>
<g>
	<polygon class="st7" points="637.9,713.8 603.2,713.8 606.7,697.6 608.6,688.6 611,677.6 612.9,668.6 616.3,652.8 624.8,652.8 
		628.2,668.6 630.2,677.6 632.5,688.6 634.5,697.6 	"/>
	<rect x="594.2" y="710.6" class="st7" width="52.7" height="11"/>
	<polygon class="st5" points="630.2,677.6 611,677.6 612.9,668.6 628.2,668.6 	"/>
	<polygon class="st5" points="634.5,697.6 606.7,697.6 608.6,688.6 632.5,688.6 	"/>
</g>
<g>
	<polygon class="st7" points="99.6,713.8 64.8,713.8 68.3,697.6 70.3,688.6 72.6,677.6 74.6,668.6 78,652.8 86.5,652.8 89.9,668.6 
		91.8,677.6 94.2,688.6 96.1,697.6 	"/>
	<rect x="55.8" y="710.6" class="st7" width="52.7" height="11"/>
	<polygon class="st5" points="91.8,677.6 72.6,677.6 74.6,668.6 89.9,668.6 	"/>
	<polygon class="st5" points="96.1,697.6 68.3,697.6 70.3,688.6 94.2,688.6 	"/>
</g>
</svg>
